SplineFontDB: 3.2
FontName: ProggyCleanTT
FullName: ProggyCleanTT
FamilyName: ProggyCleanTT
Weight: Book
Copyright: by Tristan Grimmer
Version: 2004/04/15
ItalicAngle: 0
UnderlinePosition: -10
UnderlineWidth: 20
Ascent: 2048
Descent: 0
InvalidEm: 0
sfntRevision: 0x00010000
LayerCount: 2
Layer: 0 1 "Back" 1
Layer: 1 1 "Fore" 0
XUID: [1021 209 1170152279 7652150]
StyleMap: 0x0040
FSType: 0
OS2Version: 0
OS2_WeightWidthSlopeOnly: 0
OS2_UseTypoMetrics: 0
CreationTime: 994166532
ModificationTime: 1663932586
PfmFamily: 81
TTFWeight: 400
TTFWidth: 5
LineGap: 0
VLineGap: 0
Panose: 0 0 4 9 0 0 0 0 0 0
OS2TypoAscent: 2048
OS2TypoAOffset: 0
OS2TypoDescent: 0
OS2TypoDOffset: 0
OS2TypoLinegap: 0
OS2WinAscent: 1280
OS2WinAOffset: 0
OS2WinDescent: 384
OS2WinDOffset: 0
HheadAscent: 1216
HheadAOffset: 0
HheadDescent: -448
HheadDOffset: 0
OS2SubXSize: 700
OS2SubYSize: 650
OS2SubXOff: 0
OS2SubYOff: 143
OS2SupXSize: 700
OS2SupYSize: 650
OS2SupXOff: 0
OS2SupYOff: 453
OS2StrikeYSize: 50
OS2StrikeYPos: 512
OS2Vendor: 'Alts'
OS2UnicodeRanges: 00000000.00000000.00000000.00000000
DEI: 91125
TtTable: prep
PUSHB_2
 0
 1
SCANTYPE
PUSHW_1
 511
SCANCTRL
EndTTInstrs
ShortTable: cvt  1
  0
EndShort
ShortTable: maxp 16
  1
  0
  257
  144
  36
  0
  0
  2
  8
  64
  10
  0
  118
  8
  0
  0
EndShort
LangName: 1033 "" "" "Regular" "TTX ProggyCleanTT" "" "2004/04/15"
Encoding: UnicodeBmp
UnicodeInterp: none
NameList: AGL For New Fonts
DisplaySize: -36
AntiAlias: 1
FitToEm: 0
WinInfo: 36 36 12
BeginChars: 65537 258

StartChar: .notdef
Encoding: 65536 -1 0
Width: 896
Flags: W
LayerCount: 2
Fore
SplineSet
0 1152 m 1,0,-1
 0 1280 l 1,1,-1
 128 1280 l 1,2,-1
 128 1152 l 1,3,-1
 0 1152 l 1,0,-1
128 1152 m 1,4,-1
 128 1280 l 1,5,-1
 256 1280 l 1,6,-1
 256 1152 l 1,7,-1
 128 1152 l 1,4,-1
256 1152 m 1,8,-1
 256 1280 l 1,9,-1
 384 1280 l 1,10,-1
 384 1152 l 1,11,-1
 256 1152 l 1,8,-1
384 1152 m 1,12,-1
 384 1280 l 1,13,-1
 512 1280 l 1,14,-1
 512 1152 l 1,15,-1
 384 1152 l 1,12,-1
512 1152 m 1,16,-1
 512 1280 l 1,17,-1
 640 1280 l 1,18,-1
 640 1152 l 1,19,-1
 512 1152 l 1,16,-1
640 1152 m 1,20,-1
 640 1280 l 1,21,-1
 768 1280 l 1,22,-1
 768 1152 l 1,23,-1
 640 1152 l 1,20,-1
768 1152 m 1,24,-1
 768 1280 l 1,25,-1
 896 1280 l 1,26,-1
 896 1152 l 1,27,-1
 768 1152 l 1,24,-1
0 1024 m 1,28,-1
 0 1152 l 1,29,-1
 128 1152 l 1,30,-1
 128 1024 l 1,31,-1
 0 1024 l 1,28,-1
768 1024 m 1,32,-1
 768 1152 l 1,33,-1
 896 1152 l 1,34,-1
 896 1024 l 1,35,-1
 768 1024 l 1,32,-1
0 896 m 1,36,-1
 0 1024 l 1,37,-1
 128 1024 l 1,38,-1
 128 896 l 1,39,-1
 0 896 l 1,36,-1
768 896 m 1,40,-1
 768 1024 l 1,41,-1
 896 1024 l 1,42,-1
 896 896 l 1,43,-1
 768 896 l 1,40,-1
0 768 m 1,44,-1
 0 896 l 1,45,-1
 128 896 l 1,46,-1
 128 768 l 1,47,-1
 0 768 l 1,44,-1
768 768 m 1,48,-1
 768 896 l 1,49,-1
 896 896 l 1,50,-1
 896 768 l 1,51,-1
 768 768 l 1,48,-1
0 640 m 1,52,-1
 0 768 l 1,53,-1
 128 768 l 1,54,-1
 128 640 l 1,55,-1
 0 640 l 1,52,-1
768 640 m 1,56,-1
 768 768 l 1,57,-1
 896 768 l 1,58,-1
 896 640 l 1,59,-1
 768 640 l 1,56,-1
0 512 m 1,60,-1
 0 640 l 1,61,-1
 128 640 l 1,62,-1
 128 512 l 1,63,-1
 0 512 l 1,60,-1
768 512 m 1,64,-1
 768 640 l 1,65,-1
 896 640 l 1,66,-1
 896 512 l 1,67,-1
 768 512 l 1,64,-1
0 384 m 1,68,-1
 0 512 l 1,69,-1
 128 512 l 1,70,-1
 128 384 l 1,71,-1
 0 384 l 1,68,-1
768 384 m 1,72,-1
 768 512 l 1,73,-1
 896 512 l 1,74,-1
 896 384 l 1,75,-1
 768 384 l 1,72,-1
0 256 m 1,76,-1
 0 384 l 1,77,-1
 128 384 l 1,78,-1
 128 256 l 1,79,-1
 0 256 l 1,76,-1
768 256 m 1,80,-1
 768 384 l 1,81,-1
 896 384 l 1,82,-1
 896 256 l 1,83,-1
 768 256 l 1,80,-1
0 128 m 1,84,-1
 0 256 l 1,85,-1
 128 256 l 1,86,-1
 128 128 l 1,87,-1
 0 128 l 1,84,-1
768 128 m 1,88,-1
 768 256 l 1,89,-1
 896 256 l 1,90,-1
 896 128 l 1,91,-1
 768 128 l 1,88,-1
0 0 m 1,92,-1
 0 128 l 1,93,-1
 128 128 l 1,94,-1
 128 0 l 1,95,-1
 0 0 l 1,92,-1
768 0 m 1,96,-1
 768 128 l 1,97,-1
 896 128 l 1,98,-1
 896 0 l 1,99,-1
 768 0 l 1,96,-1
0 -128 m 1,100,-1
 0 0 l 1,101,-1
 128 0 l 1,102,-1
 128 -128 l 1,103,-1
 0 -128 l 1,100,-1
768 -128 m 1,104,-1
 768 0 l 1,105,-1
 896 0 l 1,106,-1
 896 -128 l 1,107,-1
 768 -128 l 1,104,-1
0 -256 m 1,108,-1
 0 -128 l 1,109,-1
 128 -128 l 1,110,-1
 128 -256 l 1,111,-1
 0 -256 l 1,108,-1
768 -256 m 1,112,-1
 768 -128 l 1,113,-1
 896 -128 l 1,114,-1
 896 -256 l 1,115,-1
 768 -256 l 1,112,-1
0 -384 m 1,116,-1
 0 -256 l 1,117,-1
 128 -256 l 1,118,-1
 128 -384 l 1,119,-1
 0 -384 l 1,116,-1
128 -384 m 1,120,-1
 128 -256 l 1,121,-1
 256 -256 l 1,122,-1
 256 -384 l 1,123,-1
 128 -384 l 1,120,-1
256 -384 m 1,124,-1
 256 -256 l 1,125,-1
 384 -256 l 1,126,-1
 384 -384 l 1,127,-1
 256 -384 l 1,124,-1
384 -384 m 1,128,-1
 384 -256 l 1,129,-1
 512 -256 l 1,130,-1
 512 -384 l 1,131,-1
 384 -384 l 1,128,-1
512 -384 m 1,132,-1
 512 -256 l 1,133,-1
 640 -256 l 1,134,-1
 640 -384 l 1,135,-1
 512 -384 l 1,132,-1
640 -384 m 1,136,-1
 640 -256 l 1,137,-1
 768 -256 l 1,138,-1
 768 -384 l 1,139,-1
 640 -384 l 1,136,-1
768 -384 m 1,140,-1
 768 -256 l 1,141,-1
 896 -256 l 1,142,-1
 896 -384 l 1,143,-1
 768 -384 l 1,140,-1
EndSplineSet
EndChar

StartChar: exclam
Encoding: 33 33 34
Width: 896
Flags: W
LayerCount: 2
Fore
SplineSet
384 896 m 1,0,-1
 384 1024 l 1,1,-1
 512 1024 l 1,2,-1
 512 896 l 1,3,-1
 384 896 l 1,0,-1
384 768 m 1,4,-1
 384 896 l 1,5,-1
 512 896 l 1,6,-1
 512 768 l 1,7,-1
 384 768 l 1,4,-1
384 640 m 1,8,-1
 384 768 l 1,9,-1
 512 768 l 1,10,-1
 512 640 l 1,11,-1
 384 640 l 1,8,-1
384 512 m 1,12,-1
 384 640 l 1,13,-1
 512 640 l 1,14,-1
 512 512 l 1,15,-1
 384 512 l 1,12,-1
384 384 m 1,16,-1
 384 512 l 1,17,-1
 512 512 l 1,18,-1
 512 384 l 1,19,-1
 384 384 l 1,16,-1
384 256 m 1,20,-1
 384 384 l 1,21,-1
 512 384 l 1,22,-1
 512 256 l 1,23,-1
 384 256 l 1,20,-1
384 0 m 1,24,-1
 384 128 l 1,25,-1
 512 128 l 1,26,-1
 512 0 l 1,27,-1
 384 0 l 1,24,-1
EndSplineSet
EndChar

StartChar: quotedbl
Encoding: 34 34 35
Width: 896
Flags: W
LayerCount: 2
Fore
SplineSet
256 1024 m 1,0,-1
 256 1152 l 1,1,-1
 384 1152 l 1,2,-1
 384 1024 l 1,3,-1
 256 1024 l 1,0,-1
512 1024 m 1,4,-1
 512 1152 l 1,5,-1
 640 1152 l 1,6,-1
 640 1024 l 1,7,-1
 512 1024 l 1,4,-1
256 896 m 1,8,-1
 256 1024 l 1,9,-1
 384 1024 l 1,10,-1
 384 896 l 1,11,-1
 256 896 l 1,8,-1
512 896 m 1,12,-1
 512 1024 l 1,13,-1
 640 1024 l 1,14,-1
 640 896 l 1,15,-1
 512 896 l 1,12,-1
256 768 m 1,16,-1
 256 896 l 1,17,-1
 384 896 l 1,18,-1
 384 768 l 1,19,-1
 256 768 l 1,16,-1
512 768 m 1,20,-1
 512 896 l 1,21,-1
 640 896 l 1,22,-1
 640 768 l 1,23,-1
 512 768 l 1,20,-1
EndSplineSet
EndChar

StartChar: numbersign
Encoding: 35 35 36
Width: 896
Flags: W
LayerCount: 2
Fore
SplineSet
384 896 m 1,0,-1
 384 1024 l 1,1,-1
 512 1024 l 1,2,-1
 512 896 l 1,3,-1
 384 896 l 1,0,-1
640 896 m 1,4,-1
 640 1024 l 1,5,-1
 768 1024 l 1,6,-1
 768 896 l 1,7,-1
 640 896 l 1,4,-1
384 768 m 1,8,-1
 384 896 l 1,9,-1
 512 896 l 1,10,-1
 512 768 l 1,11,-1
 384 768 l 1,8,-1
640 768 m 1,12,-1
 640 896 l 1,13,-1
 768 896 l 1,14,-1
 768 768 l 1,15,-1
 640 768 l 1,12,-1
128 640 m 1,16,-1
 128 768 l 1,17,-1
 256 768 l 1,18,-1
 256 640 l 1,19,-1
 128 640 l 1,16,-1
256 640 m 1,20,-1
 256 768 l 1,21,-1
 384 768 l 1,22,-1
 384 640 l 1,23,-1
 256 640 l 1,20,-1
384 640 m 1,24,-1
 384 768 l 1,25,-1
 512 768 l 1,26,-1
 512 640 l 1,27,-1
 384 640 l 1,24,-1
512 640 m 1,28,-1
 512 768 l 1,29,-1
 640 768 l 1,30,-1
 640 640 l 1,31,-1
 512 640 l 1,28,-1
640 640 m 1,32,-1
 640 768 l 1,33,-1
 768 768 l 1,34,-1
 768 640 l 1,35,-1
 640 640 l 1,32,-1
768 640 m 1,36,-1
 768 768 l 1,37,-1
 896 768 l 1,38,-1
 896 640 l 1,39,-1
 768 640 l 1,36,-1
256 512 m 1,40,-1
 256 640 l 1,41,-1
 384 640 l 1,42,-1
 384 512 l 1,43,-1
 256 512 l 1,40,-1
512 512 m 1,44,-1
 512 640 l 1,45,-1
 640 640 l 1,46,-1
 640 512 l 1,47,-1
 512 512 l 1,44,-1
256 384 m 1,48,-1
 256 512 l 1,49,-1
 384 512 l 1,50,-1
 384 384 l 1,51,-1
 256 384 l 1,48,-1
512 384 m 1,52,-1
 512 512 l 1,53,-1
 640 512 l 1,54,-1
 640 384 l 1,55,-1
 512 384 l 1,52,-1
0 256 m 1,56,-1
 0 384 l 1,57,-1
 128 384 l 1,58,-1
 128 256 l 1,59,-1
 0 256 l 1,56,-1
128 256 m 1,60,-1
 128 384 l 1,61,-1
 256 384 l 1,62,-1
 256 256 l 1,63,-1
 128 256 l 1,60,-1
256 256 m 1,64,-1
 256 384 l 1,65,-1
 384 384 l 1,66,-1
 384 256 l 1,67,-1
 256 256 l 1,64,-1
384 256 m 1,68,-1
 384 384 l 1,69,-1
 512 384 l 1,70,-1
 512 256 l 1,71,-1
 384 256 l 1,68,-1
512 256 m 1,72,-1
 512 384 l 1,73,-1
 640 384 l 1,74,-1
 640 256 l 1,75,-1
 512 256 l 1,72,-1
640 256 m 1,76,-1
 640 384 l 1,77,-1
 768 384 l 1,78,-1
 768 256 l 1,79,-1
 640 256 l 1,76,-1
128 128 m 1,80,-1
 128 256 l 1,81,-1
 256 256 l 1,82,-1
 256 128 l 1,83,-1
 128 128 l 1,80,-1
384 128 m 1,84,-1
 384 256 l 1,85,-1
 512 256 l 1,86,-1
 512 128 l 1,87,-1
 384 128 l 1,84,-1
128 0 m 1,88,-1
 128 128 l 1,89,-1
 256 128 l 1,90,-1
 256 0 l 1,91,-1
 128 0 l 1,88,-1
384 0 m 1,92,-1
 384 128 l 1,93,-1
 512 128 l 1,94,-1
 512 0 l 1,95,-1
 384 0 l 1,92,-1
EndSplineSet
EndChar

StartChar: dollar
Encoding: 36 36 37
Width: 896
Flags: W
LayerCount: 2
Fore
SplineSet
384 896 m 1,0,-1
 384 1024 l 1,1,-1
 512 1024 l 1,2,-1
 512 896 l 1,3,-1
 384 896 l 1,0,-1
256 768 m 1,4,-1
 256 896 l 1,5,-1
 384 896 l 1,6,-1
 384 768 l 1,7,-1
 256 768 l 1,4,-1
384 768 m 1,8,-1
 384 896 l 1,9,-1
 512 896 l 1,10,-1
 512 768 l 1,11,-1
 384 768 l 1,8,-1
512 768 m 1,12,-1
 512 896 l 1,13,-1
 640 896 l 1,14,-1
 640 768 l 1,15,-1
 512 768 l 1,12,-1
640 768 m 1,16,-1
 640 896 l 1,17,-1
 768 896 l 1,18,-1
 768 768 l 1,19,-1
 640 768 l 1,16,-1
128 640 m 1,20,-1
 128 768 l 1,21,-1
 256 768 l 1,22,-1
 256 640 l 1,23,-1
 128 640 l 1,20,-1
384 640 m 1,24,-1
 384 768 l 1,25,-1
 512 768 l 1,26,-1
 512 640 l 1,27,-1
 384 640 l 1,24,-1
128 512 m 1,28,-1
 128 640 l 1,29,-1
 256 640 l 1,30,-1
 256 512 l 1,31,-1
 128 512 l 1,28,-1
384 512 m 1,32,-1
 384 640 l 1,33,-1
 512 640 l 1,34,-1
 512 512 l 1,35,-1
 384 512 l 1,32,-1
256 384 m 1,36,-1
 256 512 l 1,37,-1
 384 512 l 1,38,-1
 384 384 l 1,39,-1
 256 384 l 1,36,-1
384 384 m 1,40,-1
 384 512 l 1,41,-1
 512 512 l 1,42,-1
 512 384 l 1,43,-1
 384 384 l 1,40,-1
512 384 m 1,44,-1
 512 512 l 1,45,-1
 640 512 l 1,46,-1
 640 384 l 1,47,-1
 512 384 l 1,44,-1
384 256 m 1,48,-1
 384 384 l 1,49,-1
 512 384 l 1,50,-1
 512 256 l 1,51,-1
 384 256 l 1,48,-1
640 256 m 1,52,-1
 640 384 l 1,53,-1
 768 384 l 1,54,-1
 768 256 l 1,55,-1
 640 256 l 1,52,-1
384 128 m 1,56,-1
 384 256 l 1,57,-1
 512 256 l 1,58,-1
 512 128 l 1,59,-1
 384 128 l 1,56,-1
640 128 m 1,60,-1
 640 256 l 1,61,-1
 768 256 l 1,62,-1
 768 128 l 1,63,-1
 640 128 l 1,60,-1
128 0 m 1,64,-1
 128 128 l 1,65,-1
 256 128 l 1,66,-1
 256 0 l 1,67,-1
 128 0 l 1,64,-1
256 0 m 1,68,-1
 256 128 l 1,69,-1
 384 128 l 1,70,-1
 384 0 l 1,71,-1
 256 0 l 1,68,-1
384 0 m 1,72,-1
 384 128 l 1,73,-1
 512 128 l 1,74,-1
 512 0 l 1,75,-1
 384 0 l 1,72,-1
512 0 m 1,76,-1
 512 128 l 1,77,-1
 640 128 l 1,78,-1
 640 0 l 1,79,-1
 512 0 l 1,76,-1
384 -128 m 1,80,-1
 384 0 l 1,81,-1
 512 0 l 1,82,-1
 512 -128 l 1,83,-1
 384 -128 l 1,80,-1
EndSplineSet
EndChar

StartChar: percent
Encoding: 37 37 38
Width: 896
Flags: W
LayerCount: 2
Fore
SplineSet
128 896 m 1,0,-1
 128 1024 l 1,1,-1
 256 1024 l 1,2,-1
 256 896 l 1,3,-1
 128 896 l 1,0,-1
640 896 m 1,4,-1
 640 1024 l 1,5,-1
 768 1024 l 1,6,-1
 768 896 l 1,7,-1
 640 896 l 1,4,-1
0 768 m 1,8,-1
 0 896 l 1,9,-1
 128 896 l 1,10,-1
 128 768 l 1,11,-1
 0 768 l 1,8,-1
256 768 m 1,12,-1
 256 896 l 1,13,-1
 384 896 l 1,14,-1
 384 768 l 1,15,-1
 256 768 l 1,12,-1
512 768 m 1,16,-1
 512 896 l 1,17,-1
 640 896 l 1,18,-1
 640 768 l 1,19,-1
 512 768 l 1,16,-1
0 640 m 1,20,-1
 0 768 l 1,21,-1
 128 768 l 1,22,-1
 128 640 l 1,23,-1
 0 640 l 1,20,-1
256 640 m 1,24,-1
 256 768 l 1,25,-1
 384 768 l 1,26,-1
 384 640 l 1,27,-1
 256 640 l 1,24,-1
512 640 m 1,28,-1
 512 768 l 1,29,-1
 640 768 l 1,30,-1
 640 640 l 1,31,-1
 512 640 l 1,28,-1
128 512 m 1,32,-1
 128 640 l 1,33,-1
 256 640 l 1,34,-1
 256 512 l 1,35,-1
 128 512 l 1,32,-1
384 512 m 1,36,-1
 384 640 l 1,37,-1
 512 640 l 1,38,-1
 512 512 l 1,39,-1
 384 512 l 1,36,-1
384 384 m 1,40,-1
 384 512 l 1,41,-1
 512 512 l 1,42,-1
 512 384 l 1,43,-1
 384 384 l 1,40,-1
640 384 m 1,44,-1
 640 512 l 1,45,-1
 768 512 l 1,46,-1
 768 384 l 1,47,-1
 640 384 l 1,44,-1
256 256 m 1,48,-1
 256 384 l 1,49,-1
 384 384 l 1,50,-1
 384 256 l 1,51,-1
 256 256 l 1,48,-1
512 256 m 1,52,-1
 512 384 l 1,53,-1
 640 384 l 1,54,-1
 640 256 l 1,55,-1
 512 256 l 1,52,-1
768 256 m 1,56,-1
 768 384 l 1,57,-1
 896 384 l 1,58,-1
 896 256 l 1,59,-1
 768 256 l 1,56,-1
256 128 m 1,60,-1
 256 256 l 1,61,-1
 384 256 l 1,62,-1
 384 128 l 1,63,-1
 256 128 l 1,60,-1
512 128 m 1,64,-1
 512 256 l 1,65,-1
 640 256 l 1,66,-1
 640 128 l 1,67,-1
 512 128 l 1,64,-1
768 128 m 1,68,-1
 768 256 l 1,69,-1
 896 256 l 1,70,-1
 896 128 l 1,71,-1
 768 128 l 1,68,-1
128 0 m 1,72,-1
 128 128 l 1,73,-1
 256 128 l 1,74,-1
 256 0 l 1,75,-1
 128 0 l 1,72,-1
640 0 m 1,76,-1
 640 128 l 1,77,-1
 768 128 l 1,78,-1
 768 0 l 1,79,-1
 640 0 l 1,76,-1
EndSplineSet
EndChar

StartChar: ampersand
Encoding: 38 38 39
Width: 896
Flags: W
LayerCount: 2
Fore
SplineSet
256 896 m 1,0,-1
 256 1024 l 1,1,-1
 384 1024 l 1,2,-1
 384 896 l 1,3,-1
 256 896 l 1,0,-1
384 896 m 1,4,-1
 384 1024 l 1,5,-1
 512 1024 l 1,6,-1
 512 896 l 1,7,-1
 384 896 l 1,4,-1
128 768 m 1,8,-1
 128 896 l 1,9,-1
 256 896 l 1,10,-1
 256 768 l 1,11,-1
 128 768 l 1,8,-1
512 768 m 1,12,-1
 512 896 l 1,13,-1
 640 896 l 1,14,-1
 640 768 l 1,15,-1
 512 768 l 1,12,-1
128 640 m 1,16,-1
 128 768 l 1,17,-1
 256 768 l 1,18,-1
 256 640 l 1,19,-1
 128 640 l 1,16,-1
512 640 m 1,20,-1
 512 768 l 1,21,-1
 640 768 l 1,22,-1
 640 640 l 1,23,-1
 512 640 l 1,20,-1
256 512 m 1,24,-1
 256 640 l 1,25,-1
 384 640 l 1,26,-1
 384 512 l 1,27,-1
 256 512 l 1,24,-1
384 512 m 1,28,-1
 384 640 l 1,29,-1
 512 640 l 1,30,-1
 512 512 l 1,31,-1
 384 512 l 1,28,-1
768 512 m 1,32,-1
 768 640 l 1,33,-1
 896 640 l 1,34,-1
 896 512 l 1,35,-1
 768 512 l 1,32,-1
128 384 m 1,36,-1
 128 512 l 1,37,-1
 256 512 l 1,38,-1
 256 384 l 1,39,-1
 128 384 l 1,36,-1
512 384 m 1,40,-1
 512 512 l 1,41,-1
 640 512 l 1,42,-1
 640 384 l 1,43,-1
 512 384 l 1,40,-1
768 384 m 1,44,-1
 768 512 l 1,45,-1
 896 512 l 1,46,-1
 896 384 l 1,47,-1
 768 384 l 1,44,-1
128 256 m 1,48,-1
 128 384 l 1,49,-1
 256 384 l 1,50,-1
 256 256 l 1,51,-1
 128 256 l 1,48,-1
640 256 m 1,52,-1
 640 384 l 1,53,-1
 768 384 l 1,54,-1
 768 256 l 1,55,-1
 640 256 l 1,52,-1
128 128 m 1,56,-1
 128 256 l 1,57,-1
 256 256 l 1,58,-1
 256 128 l 1,59,-1
 128 128 l 1,56,-1
640 128 m 1,60,-1
 640 256 l 1,61,-1
 768 256 l 1,62,-1
 768 128 l 1,63,-1
 640 128 l 1,60,-1
256 0 m 1,64,-1
 256 128 l 1,65,-1
 384 128 l 1,66,-1
 384 0 l 1,67,-1
 256 0 l 1,64,-1
384 0 m 1,68,-1
 384 128 l 1,69,-1
 512 128 l 1,70,-1
 512 0 l 1,71,-1
 384 0 l 1,68,-1
512 0 m 1,72,-1
 512 128 l 1,73,-1
 640 128 l 1,74,-1
 640 0 l 1,75,-1
 512 0 l 1,72,-1
768 0 m 1,76,-1
 768 128 l 1,77,-1
 896 128 l 1,78,-1
 896 0 l 1,79,-1
 768 0 l 1,76,-1
EndSplineSet
EndChar

StartChar: quotesingle
Encoding: 39 39 40
Width: 896
Flags: W
LayerCount: 2
Fore
SplineSet
384 1024 m 1,0,-1
 384 1152 l 1,1,-1
 512 1152 l 1,2,-1
 512 1024 l 1,3,-1
 384 1024 l 1,0,-1
384 896 m 1,4,-1
 384 1024 l 1,5,-1
 512 1024 l 1,6,-1
 512 896 l 1,7,-1
 384 896 l 1,4,-1
384 768 m 1,8,-1
 384 896 l 1,9,-1
 512 896 l 1,10,-1
 512 768 l 1,11,-1
 384 768 l 1,8,-1
EndSplineSet
EndChar

StartChar: parenleft
Encoding: 40 40 41
Width: 896
Flags: W
LayerCount: 2
Fore
SplineSet
512 1024 m 1,0,-1
 512 1152 l 1,1,-1
 640 1152 l 1,2,-1
 640 1024 l 1,3,-1
 512 1024 l 1,0,-1
384 896 m 1,4,-1
 384 1024 l 1,5,-1
 512 1024 l 1,6,-1
 512 896 l 1,7,-1
 384 896 l 1,4,-1
384 768 m 1,8,-1
 384 896 l 1,9,-1
 512 896 l 1,10,-1
 512 768 l 1,11,-1
 384 768 l 1,8,-1
256 640 m 1,12,-1
 256 768 l 1,13,-1
 384 768 l 1,14,-1
 384 640 l 1,15,-1
 256 640 l 1,12,-1
256 512 m 1,16,-1
 256 640 l 1,17,-1
 384 640 l 1,18,-1
 384 512 l 1,19,-1
 256 512 l 1,16,-1
256 384 m 1,20,-1
 256 512 l 1,21,-1
 384 512 l 1,22,-1
 384 384 l 1,23,-1
 256 384 l 1,20,-1
256 256 m 1,24,-1
 256 384 l 1,25,-1
 384 384 l 1,26,-1
 384 256 l 1,27,-1
 256 256 l 1,24,-1
256 128 m 1,28,-1
 256 256 l 1,29,-1
 384 256 l 1,30,-1
 384 128 l 1,31,-1
 256 128 l 1,28,-1
384 0 m 1,32,-1
 384 128 l 1,33,-1
 512 128 l 1,34,-1
 512 0 l 1,35,-1
 384 0 l 1,32,-1
384 -128 m 1,36,-1
 384 0 l 1,37,-1
 512 0 l 1,38,-1
 512 -128 l 1,39,-1
 384 -128 l 1,36,-1
512 -256 m 1,40,-1
 512 -128 l 1,41,-1
 640 -128 l 1,42,-1
 640 -256 l 1,43,-1
 512 -256 l 1,40,-1
EndSplineSet
EndChar

StartChar: parenright
Encoding: 41 41 42
Width: 896
Flags: W
LayerCount: 2
Fore
SplineSet
256 1024 m 1,0,-1
 256 1152 l 1,1,-1
 384 1152 l 1,2,-1
 384 1024 l 1,3,-1
 256 1024 l 1,0,-1
384 896 m 1,4,-1
 384 1024 l 1,5,-1
 512 1024 l 1,6,-1
 512 896 l 1,7,-1
 384 896 l 1,4,-1
384 768 m 1,8,-1
 384 896 l 1,9,-1
 512 896 l 1,10,-1
 512 768 l 1,11,-1
 384 768 l 1,8,-1
512 640 m 1,12,-1
 512 768 l 1,13,-1
 640 768 l 1,14,-1
 640 640 l 1,15,-1
 512 640 l 1,12,-1
512 512 m 1,16,-1
 512 640 l 1,17,-1
 640 640 l 1,18,-1
 640 512 l 1,19,-1
 512 512 l 1,16,-1
512 384 m 1,20,-1
 512 512 l 1,21,-1
 640 512 l 1,22,-1
 640 384 l 1,23,-1
 512 384 l 1,20,-1
512 256 m 1,24,-1
 512 384 l 1,25,-1
 640 384 l 1,26,-1
 640 256 l 1,27,-1
 512 256 l 1,24,-1
512 128 m 1,28,-1
 512 256 l 1,29,-1
 640 256 l 1,30,-1
 640 128 l 1,31,-1
 512 128 l 1,28,-1
384 0 m 1,32,-1
 384 128 l 1,33,-1
 512 128 l 1,34,-1
 512 0 l 1,35,-1
 384 0 l 1,32,-1
384 -128 m 1,36,-1
 384 0 l 1,37,-1
 512 0 l 1,38,-1
 512 -128 l 1,39,-1
 384 -128 l 1,36,-1
256 -256 m 1,40,-1
 256 -128 l 1,41,-1
 384 -128 l 1,42,-1
 384 -256 l 1,43,-1
 256 -256 l 1,40,-1
EndSplineSet
EndChar

StartChar: asterisk
Encoding: 42 42 43
Width: 896
Flags: W
LayerCount: 2
Fore
SplineSet
384 640 m 1,0,-1
 384 768 l 1,1,-1
 512 768 l 1,2,-1
 512 640 l 1,3,-1
 384 640 l 1,0,-1
128 512 m 1,4,-1
 128 640 l 1,5,-1
 256 640 l 1,6,-1
 256 512 l 1,7,-1
 128 512 l 1,4,-1
384 512 m 1,8,-1
 384 640 l 1,9,-1
 512 640 l 1,10,-1
 512 512 l 1,11,-1
 384 512 l 1,8,-1
640 512 m 1,12,-1
 640 640 l 1,13,-1
 768 640 l 1,14,-1
 768 512 l 1,15,-1
 640 512 l 1,12,-1
256 384 m 1,16,-1
 256 512 l 1,17,-1
 384 512 l 1,18,-1
 384 384 l 1,19,-1
 256 384 l 1,16,-1
384 384 m 1,20,-1
 384 512 l 1,21,-1
 512 512 l 1,22,-1
 512 384 l 1,23,-1
 384 384 l 1,20,-1
512 384 m 1,24,-1
 512 512 l 1,25,-1
 640 512 l 1,26,-1
 640 384 l 1,27,-1
 512 384 l 1,24,-1
128 256 m 1,28,-1
 128 384 l 1,29,-1
 256 384 l 1,30,-1
 256 256 l 1,31,-1
 128 256 l 1,28,-1
384 256 m 1,32,-1
 384 384 l 1,33,-1
 512 384 l 1,34,-1
 512 256 l 1,35,-1
 384 256 l 1,32,-1
640 256 m 1,36,-1
 640 384 l 1,37,-1
 768 384 l 1,38,-1
 768 256 l 1,39,-1
 640 256 l 1,36,-1
384 128 m 1,40,-1
 384 256 l 1,41,-1
 512 256 l 1,42,-1
 512 128 l 1,43,-1
 384 128 l 1,40,-1
EndSplineSet
EndChar

StartChar: plus
Encoding: 43 43 44
Width: 896
Flags: W
LayerCount: 2
Fore
SplineSet
384 640 m 1,0,-1
 384 768 l 1,1,-1
 512 768 l 1,2,-1
 512 640 l 1,3,-1
 384 640 l 1,0,-1
384 512 m 1,4,-1
 384 640 l 1,5,-1
 512 640 l 1,6,-1
 512 512 l 1,7,-1
 384 512 l 1,4,-1
128 384 m 1,8,-1
 128 512 l 1,9,-1
 256 512 l 1,10,-1
 256 384 l 1,11,-1
 128 384 l 1,8,-1
256 384 m 1,12,-1
 256 512 l 1,13,-1
 384 512 l 1,14,-1
 384 384 l 1,15,-1
 256 384 l 1,12,-1
384 384 m 1,16,-1
 384 512 l 1,17,-1
 512 512 l 1,18,-1
 512 384 l 1,19,-1
 384 384 l 1,16,-1
512 384 m 1,20,-1
 512 512 l 1,21,-1
 640 512 l 1,22,-1
 640 384 l 1,23,-1
 512 384 l 1,20,-1
640 384 m 1,24,-1
 640 512 l 1,25,-1
 768 512 l 1,26,-1
 768 384 l 1,27,-1
 640 384 l 1,24,-1
384 256 m 1,28,-1
 384 384 l 1,29,-1
 512 384 l 1,30,-1
 512 256 l 1,31,-1
 384 256 l 1,28,-1
384 128 m 1,32,-1
 384 256 l 1,33,-1
 512 256 l 1,34,-1
 512 128 l 1,35,-1
 384 128 l 1,32,-1
EndSplineSet
EndChar

StartChar: comma
Encoding: 44 44 45
Width: 896
Flags: W
LayerCount: 2
Fore
SplineSet
256 128 m 1,0,-1
 256 256 l 1,1,-1
 384 256 l 1,2,-1
 384 128 l 1,3,-1
 256 128 l 1,0,-1
256 0 m 1,4,-1
 256 128 l 1,5,-1
 384 128 l 1,6,-1
 384 0 l 1,7,-1
 256 0 l 1,4,-1
256 -128 m 1,8,-1
 256 0 l 1,9,-1
 384 0 l 1,10,-1
 384 -128 l 1,11,-1
 256 -128 l 1,8,-1
128 -256 m 1,12,-1
 128 -128 l 1,13,-1
 256 -128 l 1,14,-1
 256 -256 l 1,15,-1
 128 -256 l 1,12,-1
EndSplineSet
EndChar

StartChar: hyphen
Encoding: 45 45 46
Width: 896
Flags: W
LayerCount: 2
Fore
SplineSet
128 384 m 1,0,-1
 128 512 l 1,1,-1
 256 512 l 1,2,-1
 256 384 l 1,3,-1
 128 384 l 1,0,-1
256 384 m 1,4,-1
 256 512 l 1,5,-1
 384 512 l 1,6,-1
 384 384 l 1,7,-1
 256 384 l 1,4,-1
384 384 m 1,8,-1
 384 512 l 1,9,-1
 512 512 l 1,10,-1
 512 384 l 1,11,-1
 384 384 l 1,8,-1
512 384 m 1,12,-1
 512 512 l 1,13,-1
 640 512 l 1,14,-1
 640 384 l 1,15,-1
 512 384 l 1,12,-1
640 384 m 1,16,-1
 640 512 l 1,17,-1
 768 512 l 1,18,-1
 768 384 l 1,19,-1
 640 384 l 1,16,-1
EndSplineSet
EndChar

StartChar: period
Encoding: 46 46 47
Width: 896
Flags: W
LayerCount: 2
Fore
SplineSet
256 128 m 1,0,-1
 256 256 l 1,1,-1
 384 256 l 1,2,-1
 384 128 l 1,3,-1
 256 128 l 1,0,-1
256 0 m 1,4,-1
 256 128 l 1,5,-1
 384 128 l 1,6,-1
 384 0 l 1,7,-1
 256 0 l 1,4,-1
EndSplineSet
EndChar

StartChar: slash
Encoding: 47 47 48
Width: 896
Flags: W
LayerCount: 2
Fore
SplineSet
640 1024 m 1,0,-1
 640 1152 l 1,1,-1
 768 1152 l 1,2,-1
 768 1024 l 1,3,-1
 640 1024 l 1,0,-1
640 896 m 1,4,-1
 640 1024 l 1,5,-1
 768 1024 l 1,6,-1
 768 896 l 1,7,-1
 640 896 l 1,4,-1
512 768 m 1,8,-1
 512 896 l 1,9,-1
 640 896 l 1,10,-1
 640 768 l 1,11,-1
 512 768 l 1,8,-1
512 640 m 1,12,-1
 512 768 l 1,13,-1
 640 768 l 1,14,-1
 640 640 l 1,15,-1
 512 640 l 1,12,-1
384 512 m 1,16,-1
 384 640 l 1,17,-1
 512 640 l 1,18,-1
 512 512 l 1,19,-1
 384 512 l 1,16,-1
384 384 m 1,20,-1
 384 512 l 1,21,-1
 512 512 l 1,22,-1
 512 384 l 1,23,-1
 384 384 l 1,20,-1
256 256 m 1,24,-1
 256 384 l 1,25,-1
 384 384 l 1,26,-1
 384 256 l 1,27,-1
 256 256 l 1,24,-1
256 128 m 1,28,-1
 256 256 l 1,29,-1
 384 256 l 1,30,-1
 384 128 l 1,31,-1
 256 128 l 1,28,-1
128 0 m 1,32,-1
 128 128 l 1,33,-1
 256 128 l 1,34,-1
 256 0 l 1,35,-1
 128 0 l 1,32,-1
128 -128 m 1,36,-1
 128 0 l 1,37,-1
 256 0 l 1,38,-1
 256 -128 l 1,39,-1
 128 -128 l 1,36,-1
EndSplineSet
EndChar

StartChar: zero
Encoding: 48 48 49
Width: 896
Flags: W
LayerCount: 2
Fore
SplineSet
256 896 m 1,0,-1
 256 1024 l 1,1,-1
 384 1024 l 1,2,-1
 384 896 l 1,3,-1
 256 896 l 1,0,-1
384 896 m 1,4,-1
 384 1024 l 1,5,-1
 512 1024 l 1,6,-1
 512 896 l 1,7,-1
 384 896 l 1,4,-1
512 896 m 1,8,-1
 512 1024 l 1,9,-1
 640 1024 l 1,10,-1
 640 896 l 1,11,-1
 512 896 l 1,8,-1
128 768 m 1,12,-1
 128 896 l 1,13,-1
 256 896 l 1,14,-1
 256 768 l 1,15,-1
 128 768 l 1,12,-1
640 768 m 1,16,-1
 640 896 l 1,17,-1
 768 896 l 1,18,-1
 768 768 l 1,19,-1
 640 768 l 1,16,-1
128 640 m 1,20,-1
 128 768 l 1,21,-1
 256 768 l 1,22,-1
 256 640 l 1,23,-1
 128 640 l 1,20,-1
640 640 m 1,24,-1
 640 768 l 1,25,-1
 768 768 l 1,26,-1
 768 640 l 1,27,-1
 640 640 l 1,24,-1
128 512 m 1,28,-1
 128 640 l 1,29,-1
 256 640 l 1,30,-1
 256 512 l 1,31,-1
 128 512 l 1,28,-1
384 512 m 1,32,-1
 384 640 l 1,33,-1
 512 640 l 1,34,-1
 512 512 l 1,35,-1
 384 512 l 1,32,-1
640 512 m 1,36,-1
 640 640 l 1,37,-1
 768 640 l 1,38,-1
 768 512 l 1,39,-1
 640 512 l 1,36,-1
128 384 m 1,40,-1
 128 512 l 1,41,-1
 256 512 l 1,42,-1
 256 384 l 1,43,-1
 128 384 l 1,40,-1
384 384 m 1,44,-1
 384 512 l 1,45,-1
 512 512 l 1,46,-1
 512 384 l 1,47,-1
 384 384 l 1,44,-1
640 384 m 1,48,-1
 640 512 l 1,49,-1
 768 512 l 1,50,-1
 768 384 l 1,51,-1
 640 384 l 1,48,-1
128 256 m 1,52,-1
 128 384 l 1,53,-1
 256 384 l 1,54,-1
 256 256 l 1,55,-1
 128 256 l 1,52,-1
640 256 m 1,56,-1
 640 384 l 1,57,-1
 768 384 l 1,58,-1
 768 256 l 1,59,-1
 640 256 l 1,56,-1
128 128 m 1,60,-1
 128 256 l 1,61,-1
 256 256 l 1,62,-1
 256 128 l 1,63,-1
 128 128 l 1,60,-1
640 128 m 1,64,-1
 640 256 l 1,65,-1
 768 256 l 1,66,-1
 768 128 l 1,67,-1
 640 128 l 1,64,-1
256 0 m 1,68,-1
 256 128 l 1,69,-1
 384 128 l 1,70,-1
 384 0 l 1,71,-1
 256 0 l 1,68,-1
384 0 m 1,72,-1
 384 128 l 1,73,-1
 512 128 l 1,74,-1
 512 0 l 1,75,-1
 384 0 l 1,72,-1
512 0 m 1,76,-1
 512 128 l 1,77,-1
 640 128 l 1,78,-1
 640 0 l 1,79,-1
 512 0 l 1,76,-1
EndSplineSet
EndChar

StartChar: one
Encoding: 49 49 50
Width: 896
Flags: W
LayerCount: 2
Fore
SplineSet
384 896 m 1,0,-1
 384 1024 l 1,1,-1
 512 1024 l 1,2,-1
 512 896 l 1,3,-1
 384 896 l 1,0,-1
256 768 m 1,4,-1
 256 896 l 1,5,-1
 384 896 l 1,6,-1
 384 768 l 1,7,-1
 256 768 l 1,4,-1
384 768 m 1,8,-1
 384 896 l 1,9,-1
 512 896 l 1,10,-1
 512 768 l 1,11,-1
 384 768 l 1,8,-1
128 640 m 1,12,-1
 128 768 l 1,13,-1
 256 768 l 1,14,-1
 256 640 l 1,15,-1
 128 640 l 1,12,-1
384 640 m 1,16,-1
 384 768 l 1,17,-1
 512 768 l 1,18,-1
 512 640 l 1,19,-1
 384 640 l 1,16,-1
384 512 m 1,20,-1
 384 640 l 1,21,-1
 512 640 l 1,22,-1
 512 512 l 1,23,-1
 384 512 l 1,20,-1
384 384 m 1,24,-1
 384 512 l 1,25,-1
 512 512 l 1,26,-1
 512 384 l 1,27,-1
 384 384 l 1,24,-1
384 256 m 1,28,-1
 384 384 l 1,29,-1
 512 384 l 1,30,-1
 512 256 l 1,31,-1
 384 256 l 1,28,-1
384 128 m 1,32,-1
 384 256 l 1,33,-1
 512 256 l 1,34,-1
 512 128 l 1,35,-1
 384 128 l 1,32,-1
128 0 m 1,36,-1
 128 128 l 1,37,-1
 256 128 l 1,38,-1
 256 0 l 1,39,-1
 128 0 l 1,36,-1
256 0 m 1,40,-1
 256 128 l 1,41,-1
 384 128 l 1,42,-1
 384 0 l 1,43,-1
 256 0 l 1,40,-1
384 0 m 1,44,-1
 384 128 l 1,45,-1
 512 128 l 1,46,-1
 512 0 l 1,47,-1
 384 0 l 1,44,-1
512 0 m 1,48,-1
 512 128 l 1,49,-1
 640 128 l 1,50,-1
 640 0 l 1,51,-1
 512 0 l 1,48,-1
640 0 m 1,52,-1
 640 128 l 1,53,-1
 768 128 l 1,54,-1
 768 0 l 1,55,-1
 640 0 l 1,52,-1
EndSplineSet
EndChar

StartChar: two
Encoding: 50 50 51
Width: 896
Flags: W
LayerCount: 2
Fore
SplineSet
256 896 m 1,0,-1
 256 1024 l 1,1,-1
 384 1024 l 1,2,-1
 384 896 l 1,3,-1
 256 896 l 1,0,-1
384 896 m 1,4,-1
 384 1024 l 1,5,-1
 512 1024 l 1,6,-1
 512 896 l 1,7,-1
 384 896 l 1,4,-1
512 896 m 1,8,-1
 512 1024 l 1,9,-1
 640 1024 l 1,10,-1
 640 896 l 1,11,-1
 512 896 l 1,8,-1
128 768 m 1,12,-1
 128 896 l 1,13,-1
 256 896 l 1,14,-1
 256 768 l 1,15,-1
 128 768 l 1,12,-1
640 768 m 1,16,-1
 640 896 l 1,17,-1
 768 896 l 1,18,-1
 768 768 l 1,19,-1
 640 768 l 1,16,-1
640 640 m 1,20,-1
 640 768 l 1,21,-1
 768 768 l 1,22,-1
 768 640 l 1,23,-1
 640 640 l 1,20,-1
512 512 m 1,24,-1
 512 640 l 1,25,-1
 640 640 l 1,26,-1
 640 512 l 1,27,-1
 512 512 l 1,24,-1
384 384 m 1,28,-1
 384 512 l 1,29,-1
 512 512 l 1,30,-1
 512 384 l 1,31,-1
 384 384 l 1,28,-1
256 256 m 1,32,-1
 256 384 l 1,33,-1
 384 384 l 1,34,-1
 384 256 l 1,35,-1
 256 256 l 1,32,-1
128 128 m 1,36,-1
 128 256 l 1,37,-1
 256 256 l 1,38,-1
 256 128 l 1,39,-1
 128 128 l 1,36,-1
128 0 m 1,40,-1
 128 128 l 1,41,-1
 256 128 l 1,42,-1
 256 0 l 1,43,-1
 128 0 l 1,40,-1
256 0 m 1,44,-1
 256 128 l 1,45,-1
 384 128 l 1,46,-1
 384 0 l 1,47,-1
 256 0 l 1,44,-1
384 0 m 1,48,-1
 384 128 l 1,49,-1
 512 128 l 1,50,-1
 512 0 l 1,51,-1
 384 0 l 1,48,-1
512 0 m 1,52,-1
 512 128 l 1,53,-1
 640 128 l 1,54,-1
 640 0 l 1,55,-1
 512 0 l 1,52,-1
640 0 m 1,56,-1
 640 128 l 1,57,-1
 768 128 l 1,58,-1
 768 0 l 1,59,-1
 640 0 l 1,56,-1
EndSplineSet
EndChar

StartChar: three
Encoding: 51 51 52
Width: 896
Flags: W
LayerCount: 2
Fore
SplineSet
256 896 m 1,0,-1
 256 1024 l 1,1,-1
 384 1024 l 1,2,-1
 384 896 l 1,3,-1
 256 896 l 1,0,-1
384 896 m 1,4,-1
 384 1024 l 1,5,-1
 512 1024 l 1,6,-1
 512 896 l 1,7,-1
 384 896 l 1,4,-1
512 896 m 1,8,-1
 512 1024 l 1,9,-1
 640 1024 l 1,10,-1
 640 896 l 1,11,-1
 512 896 l 1,8,-1
128 768 m 1,12,-1
 128 896 l 1,13,-1
 256 896 l 1,14,-1
 256 768 l 1,15,-1
 128 768 l 1,12,-1
640 768 m 1,16,-1
 640 896 l 1,17,-1
 768 896 l 1,18,-1
 768 768 l 1,19,-1
 640 768 l 1,16,-1
640 640 m 1,20,-1
 640 768 l 1,21,-1
 768 768 l 1,22,-1
 768 640 l 1,23,-1
 640 640 l 1,20,-1
384 512 m 1,24,-1
 384 640 l 1,25,-1
 512 640 l 1,26,-1
 512 512 l 1,27,-1
 384 512 l 1,24,-1
512 512 m 1,28,-1
 512 640 l 1,29,-1
 640 640 l 1,30,-1
 640 512 l 1,31,-1
 512 512 l 1,28,-1
640 384 m 1,32,-1
 640 512 l 1,33,-1
 768 512 l 1,34,-1
 768 384 l 1,35,-1
 640 384 l 1,32,-1
640 256 m 1,36,-1
 640 384 l 1,37,-1
 768 384 l 1,38,-1
 768 256 l 1,39,-1
 640 256 l 1,36,-1
128 128 m 1,40,-1
 128 256 l 1,41,-1
 256 256 l 1,42,-1
 256 128 l 1,43,-1
 128 128 l 1,40,-1
640 128 m 1,44,-1
 640 256 l 1,45,-1
 768 256 l 1,46,-1
 768 128 l 1,47,-1
 640 128 l 1,44,-1
256 0 m 1,48,-1
 256 128 l 1,49,-1
 384 128 l 1,50,-1
 384 0 l 1,51,-1
 256 0 l 1,48,-1
384 0 m 1,52,-1
 384 128 l 1,53,-1
 512 128 l 1,54,-1
 512 0 l 1,55,-1
 384 0 l 1,52,-1
512 0 m 1,56,-1
 512 128 l 1,57,-1
 640 128 l 1,58,-1
 640 0 l 1,59,-1
 512 0 l 1,56,-1
EndSplineSet
EndChar

StartChar: four
Encoding: 52 52 53
Width: 896
Flags: W
LayerCount: 2
Fore
SplineSet
640 896 m 1,0,-1
 640 1024 l 1,1,-1
 768 1024 l 1,2,-1
 768 896 l 1,3,-1
 640 896 l 1,0,-1
512 768 m 1,4,-1
 512 896 l 1,5,-1
 640 896 l 1,6,-1
 640 768 l 1,7,-1
 512 768 l 1,4,-1
640 768 m 1,8,-1
 640 896 l 1,9,-1
 768 896 l 1,10,-1
 768 768 l 1,11,-1
 640 768 l 1,8,-1
384 640 m 1,12,-1
 384 768 l 1,13,-1
 512 768 l 1,14,-1
 512 640 l 1,15,-1
 384 640 l 1,12,-1
640 640 m 1,16,-1
 640 768 l 1,17,-1
 768 768 l 1,18,-1
 768 640 l 1,19,-1
 640 640 l 1,16,-1
256 512 m 1,20,-1
 256 640 l 1,21,-1
 384 640 l 1,22,-1
 384 512 l 1,23,-1
 256 512 l 1,20,-1
640 512 m 1,24,-1
 640 640 l 1,25,-1
 768 640 l 1,26,-1
 768 512 l 1,27,-1
 640 512 l 1,24,-1
128 384 m 1,28,-1
 128 512 l 1,29,-1
 256 512 l 1,30,-1
 256 384 l 1,31,-1
 128 384 l 1,28,-1
640 384 m 1,32,-1
 640 512 l 1,33,-1
 768 512 l 1,34,-1
 768 384 l 1,35,-1
 640 384 l 1,32,-1
128 256 m 1,36,-1
 128 384 l 1,37,-1
 256 384 l 1,38,-1
 256 256 l 1,39,-1
 128 256 l 1,36,-1
256 256 m 1,40,-1
 256 384 l 1,41,-1
 384 384 l 1,42,-1
 384 256 l 1,43,-1
 256 256 l 1,40,-1
384 256 m 1,44,-1
 384 384 l 1,45,-1
 512 384 l 1,46,-1
 512 256 l 1,47,-1
 384 256 l 1,44,-1
512 256 m 1,48,-1
 512 384 l 1,49,-1
 640 384 l 1,50,-1
 640 256 l 1,51,-1
 512 256 l 1,48,-1
640 256 m 1,52,-1
 640 384 l 1,53,-1
 768 384 l 1,54,-1
 768 256 l 1,55,-1
 640 256 l 1,52,-1
768 256 m 1,56,-1
 768 384 l 1,57,-1
 896 384 l 1,58,-1
 896 256 l 1,59,-1
 768 256 l 1,56,-1
640 128 m 1,60,-1
 640 256 l 1,61,-1
 768 256 l 1,62,-1
 768 128 l 1,63,-1
 640 128 l 1,60,-1
640 0 m 1,64,-1
 640 128 l 1,65,-1
 768 128 l 1,66,-1
 768 0 l 1,67,-1
 640 0 l 1,64,-1
EndSplineSet
EndChar

StartChar: five
Encoding: 53 53 54
Width: 896
Flags: W
LayerCount: 2
Fore
SplineSet
128 896 m 1,0,-1
 128 1024 l 1,1,-1
 256 1024 l 1,2,-1
 256 896 l 1,3,-1
 128 896 l 1,0,-1
256 896 m 1,4,-1
 256 1024 l 1,5,-1
 384 1024 l 1,6,-1
 384 896 l 1,7,-1
 256 896 l 1,4,-1
384 896 m 1,8,-1
 384 1024 l 1,9,-1
 512 1024 l 1,10,-1
 512 896 l 1,11,-1
 384 896 l 1,8,-1
512 896 m 1,12,-1
 512 1024 l 1,13,-1
 640 1024 l 1,14,-1
 640 896 l 1,15,-1
 512 896 l 1,12,-1
640 896 m 1,16,-1
 640 1024 l 1,17,-1
 768 1024 l 1,18,-1
 768 896 l 1,19,-1
 640 896 l 1,16,-1
128 768 m 1,20,-1
 128 896 l 1,21,-1
 256 896 l 1,22,-1
 256 768 l 1,23,-1
 128 768 l 1,20,-1
128 640 m 1,24,-1
 128 768 l 1,25,-1
 256 768 l 1,26,-1
 256 640 l 1,27,-1
 128 640 l 1,24,-1
128 512 m 1,28,-1
 128 640 l 1,29,-1
 256 640 l 1,30,-1
 256 512 l 1,31,-1
 128 512 l 1,28,-1
256 512 m 1,32,-1
 256 640 l 1,33,-1
 384 640 l 1,34,-1
 384 512 l 1,35,-1
 256 512 l 1,32,-1
384 512 m 1,36,-1
 384 640 l 1,37,-1
 512 640 l 1,38,-1
 512 512 l 1,39,-1
 384 512 l 1,36,-1
512 512 m 1,40,-1
 512 640 l 1,41,-1
 640 640 l 1,42,-1
 640 512 l 1,43,-1
 512 512 l 1,40,-1
640 384 m 1,44,-1
 640 512 l 1,45,-1
 768 512 l 1,46,-1
 768 384 l 1,47,-1
 640 384 l 1,44,-1
640 256 m 1,48,-1
 640 384 l 1,49,-1
 768 384 l 1,50,-1
 768 256 l 1,51,-1
 640 256 l 1,48,-1
128 128 m 1,52,-1
 128 256 l 1,53,-1
 256 256 l 1,54,-1
 256 128 l 1,55,-1
 128 128 l 1,52,-1
640 128 m 1,56,-1
 640 256 l 1,57,-1
 768 256 l 1,58,-1
 768 128 l 1,59,-1
 640 128 l 1,56,-1
256 0 m 1,60,-1
 256 128 l 1,61,-1
 384 128 l 1,62,-1
 384 0 l 1,63,-1
 256 0 l 1,60,-1
384 0 m 1,64,-1
 384 128 l 1,65,-1
 512 128 l 1,66,-1
 512 0 l 1,67,-1
 384 0 l 1,64,-1
512 0 m 1,68,-1
 512 128 l 1,69,-1
 640 128 l 1,70,-1
 640 0 l 1,71,-1
 512 0 l 1,68,-1
EndSplineSet
EndChar

StartChar: six
Encoding: 54 54 55
Width: 896
Flags: W
LayerCount: 2
Fore
SplineSet
384 896 m 1,0,-1
 384 1024 l 1,1,-1
 512 1024 l 1,2,-1
 512 896 l 1,3,-1
 384 896 l 1,0,-1
512 896 m 1,4,-1
 512 1024 l 1,5,-1
 640 1024 l 1,6,-1
 640 896 l 1,7,-1
 512 896 l 1,4,-1
256 768 m 1,8,-1
 256 896 l 1,9,-1
 384 896 l 1,10,-1
 384 768 l 1,11,-1
 256 768 l 1,8,-1
128 640 m 1,12,-1
 128 768 l 1,13,-1
 256 768 l 1,14,-1
 256 640 l 1,15,-1
 128 640 l 1,12,-1
128 512 m 1,16,-1
 128 640 l 1,17,-1
 256 640 l 1,18,-1
 256 512 l 1,19,-1
 128 512 l 1,16,-1
256 512 m 1,20,-1
 256 640 l 1,21,-1
 384 640 l 1,22,-1
 384 512 l 1,23,-1
 256 512 l 1,20,-1
384 512 m 1,24,-1
 384 640 l 1,25,-1
 512 640 l 1,26,-1
 512 512 l 1,27,-1
 384 512 l 1,24,-1
512 512 m 1,28,-1
 512 640 l 1,29,-1
 640 640 l 1,30,-1
 640 512 l 1,31,-1
 512 512 l 1,28,-1
128 384 m 1,32,-1
 128 512 l 1,33,-1
 256 512 l 1,34,-1
 256 384 l 1,35,-1
 128 384 l 1,32,-1
640 384 m 1,36,-1
 640 512 l 1,37,-1
 768 512 l 1,38,-1
 768 384 l 1,39,-1
 640 384 l 1,36,-1
128 256 m 1,40,-1
 128 384 l 1,41,-1
 256 384 l 1,42,-1
 256 256 l 1,43,-1
 128 256 l 1,40,-1
640 256 m 1,44,-1
 640 384 l 1,45,-1
 768 384 l 1,46,-1
 768 256 l 1,47,-1
 640 256 l 1,44,-1
128 128 m 1,48,-1
 128 256 l 1,49,-1
 256 256 l 1,50,-1
 256 128 l 1,51,-1
 128 128 l 1,48,-1
640 128 m 1,52,-1
 640 256 l 1,53,-1
 768 256 l 1,54,-1
 768 128 l 1,55,-1
 640 128 l 1,52,-1
256 0 m 1,56,-1
 256 128 l 1,57,-1
 384 128 l 1,58,-1
 384 0 l 1,59,-1
 256 0 l 1,56,-1
384 0 m 1,60,-1
 384 128 l 1,61,-1
 512 128 l 1,62,-1
 512 0 l 1,63,-1
 384 0 l 1,60,-1
512 0 m 1,64,-1
 512 128 l 1,65,-1
 640 128 l 1,66,-1
 640 0 l 1,67,-1
 512 0 l 1,64,-1
EndSplineSet
EndChar

StartChar: seven
Encoding: 55 55 56
Width: 896
Flags: W
LayerCount: 2
Fore
SplineSet
128 896 m 1,0,-1
 128 1024 l 1,1,-1
 256 1024 l 1,2,-1
 256 896 l 1,3,-1
 128 896 l 1,0,-1
256 896 m 1,4,-1
 256 1024 l 1,5,-1
 384 1024 l 1,6,-1
 384 896 l 1,7,-1
 256 896 l 1,4,-1
384 896 m 1,8,-1
 384 1024 l 1,9,-1
 512 1024 l 1,10,-1
 512 896 l 1,11,-1
 384 896 l 1,8,-1
512 896 m 1,12,-1
 512 1024 l 1,13,-1
 640 1024 l 1,14,-1
 640 896 l 1,15,-1
 512 896 l 1,12,-1
640 896 m 1,16,-1
 640 1024 l 1,17,-1
 768 1024 l 1,18,-1
 768 896 l 1,19,-1
 640 896 l 1,16,-1
640 768 m 1,20,-1
 640 896 l 1,21,-1
 768 896 l 1,22,-1
 768 768 l 1,23,-1
 640 768 l 1,20,-1
512 640 m 1,24,-1
 512 768 l 1,25,-1
 640 768 l 1,26,-1
 640 640 l 1,27,-1
 512 640 l 1,24,-1
512 512 m 1,28,-1
 512 640 l 1,29,-1
 640 640 l 1,30,-1
 640 512 l 1,31,-1
 512 512 l 1,28,-1
384 384 m 1,32,-1
 384 512 l 1,33,-1
 512 512 l 1,34,-1
 512 384 l 1,35,-1
 384 384 l 1,32,-1
384 256 m 1,36,-1
 384 384 l 1,37,-1
 512 384 l 1,38,-1
 512 256 l 1,39,-1
 384 256 l 1,36,-1
256 128 m 1,40,-1
 256 256 l 1,41,-1
 384 256 l 1,42,-1
 384 128 l 1,43,-1
 256 128 l 1,40,-1
256 0 m 1,44,-1
 256 128 l 1,45,-1
 384 128 l 1,46,-1
 384 0 l 1,47,-1
 256 0 l 1,44,-1
EndSplineSet
EndChar

StartChar: eight
Encoding: 56 56 57
Width: 896
Flags: W
LayerCount: 2
Fore
SplineSet
256 896 m 1,0,-1
 256 1024 l 1,1,-1
 384 1024 l 1,2,-1
 384 896 l 1,3,-1
 256 896 l 1,0,-1
384 896 m 1,4,-1
 384 1024 l 1,5,-1
 512 1024 l 1,6,-1
 512 896 l 1,7,-1
 384 896 l 1,4,-1
512 896 m 1,8,-1
 512 1024 l 1,9,-1
 640 1024 l 1,10,-1
 640 896 l 1,11,-1
 512 896 l 1,8,-1
128 768 m 1,12,-1
 128 896 l 1,13,-1
 256 896 l 1,14,-1
 256 768 l 1,15,-1
 128 768 l 1,12,-1
640 768 m 1,16,-1
 640 896 l 1,17,-1
 768 896 l 1,18,-1
 768 768 l 1,19,-1
 640 768 l 1,16,-1
128 640 m 1,20,-1
 128 768 l 1,21,-1
 256 768 l 1,22,-1
 256 640 l 1,23,-1
 128 640 l 1,20,-1
640 640 m 1,24,-1
 640 768 l 1,25,-1
 768 768 l 1,26,-1
 768 640 l 1,27,-1
 640 640 l 1,24,-1
256 512 m 1,28,-1
 256 640 l 1,29,-1
 384 640 l 1,30,-1
 384 512 l 1,31,-1
 256 512 l 1,28,-1
384 512 m 1,32,-1
 384 640 l 1,33,-1
 512 640 l 1,34,-1
 512 512 l 1,35,-1
 384 512 l 1,32,-1
512 512 m 1,36,-1
 512 640 l 1,37,-1
 640 640 l 1,38,-1
 640 512 l 1,39,-1
 512 512 l 1,36,-1
128 384 m 1,40,-1
 128 512 l 1,41,-1
 256 512 l 1,42,-1
 256 384 l 1,43,-1
 128 384 l 1,40,-1
640 384 m 1,44,-1
 640 512 l 1,45,-1
 768 512 l 1,46,-1
 768 384 l 1,47,-1
 640 384 l 1,44,-1
128 256 m 1,48,-1
 128 384 l 1,49,-1
 256 384 l 1,50,-1
 256 256 l 1,51,-1
 128 256 l 1,48,-1
640 256 m 1,52,-1
 640 384 l 1,53,-1
 768 384 l 1,54,-1
 768 256 l 1,55,-1
 640 256 l 1,52,-1
128 128 m 1,56,-1
 128 256 l 1,57,-1
 256 256 l 1,58,-1
 256 128 l 1,59,-1
 128 128 l 1,56,-1
640 128 m 1,60,-1
 640 256 l 1,61,-1
 768 256 l 1,62,-1
 768 128 l 1,63,-1
 640 128 l 1,60,-1
256 0 m 1,64,-1
 256 128 l 1,65,-1
 384 128 l 1,66,-1
 384 0 l 1,67,-1
 256 0 l 1,64,-1
384 0 m 1,68,-1
 384 128 l 1,69,-1
 512 128 l 1,70,-1
 512 0 l 1,71,-1
 384 0 l 1,68,-1
512 0 m 1,72,-1
 512 128 l 1,73,-1
 640 128 l 1,74,-1
 640 0 l 1,75,-1
 512 0 l 1,72,-1
EndSplineSet
EndChar

StartChar: nine
Encoding: 57 57 58
Width: 896
Flags: W
LayerCount: 2
Fore
SplineSet
256 896 m 1,0,-1
 256 1024 l 1,1,-1
 384 1024 l 1,2,-1
 384 896 l 1,3,-1
 256 896 l 1,0,-1
384 896 m 1,4,-1
 384 1024 l 1,5,-1
 512 1024 l 1,6,-1
 512 896 l 1,7,-1
 384 896 l 1,4,-1
512 896 m 1,8,-1
 512 1024 l 1,9,-1
 640 1024 l 1,10,-1
 640 896 l 1,11,-1
 512 896 l 1,8,-1
128 768 m 1,12,-1
 128 896 l 1,13,-1
 256 896 l 1,14,-1
 256 768 l 1,15,-1
 128 768 l 1,12,-1
640 768 m 1,16,-1
 640 896 l 1,17,-1
 768 896 l 1,18,-1
 768 768 l 1,19,-1
 640 768 l 1,16,-1
128 640 m 1,20,-1
 128 768 l 1,21,-1
 256 768 l 1,22,-1
 256 640 l 1,23,-1
 128 640 l 1,20,-1
640 640 m 1,24,-1
 640 768 l 1,25,-1
 768 768 l 1,26,-1
 768 640 l 1,27,-1
 640 640 l 1,24,-1
128 512 m 1,28,-1
 128 640 l 1,29,-1
 256 640 l 1,30,-1
 256 512 l 1,31,-1
 128 512 l 1,28,-1
640 512 m 1,32,-1
 640 640 l 1,33,-1
 768 640 l 1,34,-1
 768 512 l 1,35,-1
 640 512 l 1,32,-1
256 384 m 1,36,-1
 256 512 l 1,37,-1
 384 512 l 1,38,-1
 384 384 l 1,39,-1
 256 384 l 1,36,-1
384 384 m 1,40,-1
 384 512 l 1,41,-1
 512 512 l 1,42,-1
 512 384 l 1,43,-1
 384 384 l 1,40,-1
512 384 m 1,44,-1
 512 512 l 1,45,-1
 640 512 l 1,46,-1
 640 384 l 1,47,-1
 512 384 l 1,44,-1
640 384 m 1,48,-1
 640 512 l 1,49,-1
 768 512 l 1,50,-1
 768 384 l 1,51,-1
 640 384 l 1,48,-1
640 256 m 1,52,-1
 640 384 l 1,53,-1
 768 384 l 1,54,-1
 768 256 l 1,55,-1
 640 256 l 1,52,-1
512 128 m 1,56,-1
 512 256 l 1,57,-1
 640 256 l 1,58,-1
 640 128 l 1,59,-1
 512 128 l 1,56,-1
256 0 m 1,60,-1
 256 128 l 1,61,-1
 384 128 l 1,62,-1
 384 0 l 1,63,-1
 256 0 l 1,60,-1
384 0 m 1,64,-1
 384 128 l 1,65,-1
 512 128 l 1,66,-1
 512 0 l 1,67,-1
 384 0 l 1,64,-1
EndSplineSet
EndChar

StartChar: colon
Encoding: 58 58 59
Width: 896
Flags: W
LayerCount: 2
Fore
SplineSet
384 640 m 1,0,-1
 384 768 l 1,1,-1
 512 768 l 1,2,-1
 512 640 l 1,3,-1
 384 640 l 1,0,-1
384 512 m 1,4,-1
 384 640 l 1,5,-1
 512 640 l 1,6,-1
 512 512 l 1,7,-1
 384 512 l 1,4,-1
384 128 m 1,8,-1
 384 256 l 1,9,-1
 512 256 l 1,10,-1
 512 128 l 1,11,-1
 384 128 l 1,8,-1
384 0 m 1,12,-1
 384 128 l 1,13,-1
 512 128 l 1,14,-1
 512 0 l 1,15,-1
 384 0 l 1,12,-1
EndSplineSet
EndChar

StartChar: semicolon
Encoding: 59 59 60
Width: 896
Flags: W
LayerCount: 2
Fore
SplineSet
256 640 m 1,0,-1
 256 768 l 1,1,-1
 384 768 l 1,2,-1
 384 640 l 1,3,-1
 256 640 l 1,0,-1
256 512 m 1,4,-1
 256 640 l 1,5,-1
 384 640 l 1,6,-1
 384 512 l 1,7,-1
 256 512 l 1,4,-1
256 128 m 1,8,-1
 256 256 l 1,9,-1
 384 256 l 1,10,-1
 384 128 l 1,11,-1
 256 128 l 1,8,-1
256 0 m 1,12,-1
 256 128 l 1,13,-1
 384 128 l 1,14,-1
 384 0 l 1,15,-1
 256 0 l 1,12,-1
256 -128 m 1,16,-1
 256 0 l 1,17,-1
 384 0 l 1,18,-1
 384 -128 l 1,19,-1
 256 -128 l 1,16,-1
128 -256 m 1,20,-1
 128 -128 l 1,21,-1
 256 -128 l 1,22,-1
 256 -256 l 1,23,-1
 128 -256 l 1,20,-1
EndSplineSet
EndChar

StartChar: less
Encoding: 60 60 61
Width: 896
Flags: W
LayerCount: 2
Fore
SplineSet
512 640 m 1,0,-1
 512 768 l 1,1,-1
 640 768 l 1,2,-1
 640 640 l 1,3,-1
 512 640 l 1,0,-1
640 640 m 1,4,-1
 640 768 l 1,5,-1
 768 768 l 1,6,-1
 768 640 l 1,7,-1
 640 640 l 1,4,-1
256 512 m 1,8,-1
 256 640 l 1,9,-1
 384 640 l 1,10,-1
 384 512 l 1,11,-1
 256 512 l 1,8,-1
384 512 m 1,12,-1
 384 640 l 1,13,-1
 512 640 l 1,14,-1
 512 512 l 1,15,-1
 384 512 l 1,12,-1
0 384 m 1,16,-1
 0 512 l 1,17,-1
 128 512 l 1,18,-1
 128 384 l 1,19,-1
 0 384 l 1,16,-1
128 384 m 1,20,-1
 128 512 l 1,21,-1
 256 512 l 1,22,-1
 256 384 l 1,23,-1
 128 384 l 1,20,-1
256 256 m 1,24,-1
 256 384 l 1,25,-1
 384 384 l 1,26,-1
 384 256 l 1,27,-1
 256 256 l 1,24,-1
384 256 m 1,28,-1
 384 384 l 1,29,-1
 512 384 l 1,30,-1
 512 256 l 1,31,-1
 384 256 l 1,28,-1
512 128 m 1,32,-1
 512 256 l 1,33,-1
 640 256 l 1,34,-1
 640 128 l 1,35,-1
 512 128 l 1,32,-1
640 128 m 1,36,-1
 640 256 l 1,37,-1
 768 256 l 1,38,-1
 768 128 l 1,39,-1
 640 128 l 1,36,-1
EndSplineSet
EndChar

StartChar: equal
Encoding: 61 61 62
Width: 896
Flags: W
LayerCount: 2
Fore
SplineSet
128 512 m 1,0,-1
 128 640 l 1,1,-1
 256 640 l 1,2,-1
 256 512 l 1,3,-1
 128 512 l 1,0,-1
256 512 m 1,4,-1
 256 640 l 1,5,-1
 384 640 l 1,6,-1
 384 512 l 1,7,-1
 256 512 l 1,4,-1
384 512 m 1,8,-1
 384 640 l 1,9,-1
 512 640 l 1,10,-1
 512 512 l 1,11,-1
 384 512 l 1,8,-1
512 512 m 1,12,-1
 512 640 l 1,13,-1
 640 640 l 1,14,-1
 640 512 l 1,15,-1
 512 512 l 1,12,-1
640 512 m 1,16,-1
 640 640 l 1,17,-1
 768 640 l 1,18,-1
 768 512 l 1,19,-1
 640 512 l 1,16,-1
768 512 m 1,20,-1
 768 640 l 1,21,-1
 896 640 l 1,22,-1
 896 512 l 1,23,-1
 768 512 l 1,20,-1
128 256 m 1,24,-1
 128 384 l 1,25,-1
 256 384 l 1,26,-1
 256 256 l 1,27,-1
 128 256 l 1,24,-1
256 256 m 1,28,-1
 256 384 l 1,29,-1
 384 384 l 1,30,-1
 384 256 l 1,31,-1
 256 256 l 1,28,-1
384 256 m 1,32,-1
 384 384 l 1,33,-1
 512 384 l 1,34,-1
 512 256 l 1,35,-1
 384 256 l 1,32,-1
512 256 m 1,36,-1
 512 384 l 1,37,-1
 640 384 l 1,38,-1
 640 256 l 1,39,-1
 512 256 l 1,36,-1
640 256 m 1,40,-1
 640 384 l 1,41,-1
 768 384 l 1,42,-1
 768 256 l 1,43,-1
 640 256 l 1,40,-1
768 256 m 1,44,-1
 768 384 l 1,45,-1
 896 384 l 1,46,-1
 896 256 l 1,47,-1
 768 256 l 1,44,-1
EndSplineSet
EndChar

StartChar: greater
Encoding: 62 62 63
Width: 896
Flags: W
LayerCount: 2
Fore
SplineSet
128 640 m 1,0,-1
 128 768 l 1,1,-1
 256 768 l 1,2,-1
 256 640 l 1,3,-1
 128 640 l 1,0,-1
256 640 m 1,4,-1
 256 768 l 1,5,-1
 384 768 l 1,6,-1
 384 640 l 1,7,-1
 256 640 l 1,4,-1
384 512 m 1,8,-1
 384 640 l 1,9,-1
 512 640 l 1,10,-1
 512 512 l 1,11,-1
 384 512 l 1,8,-1
512 512 m 1,12,-1
 512 640 l 1,13,-1
 640 640 l 1,14,-1
 640 512 l 1,15,-1
 512 512 l 1,12,-1
640 384 m 1,16,-1
 640 512 l 1,17,-1
 768 512 l 1,18,-1
 768 384 l 1,19,-1
 640 384 l 1,16,-1
768 384 m 1,20,-1
 768 512 l 1,21,-1
 896 512 l 1,22,-1
 896 384 l 1,23,-1
 768 384 l 1,20,-1
384 256 m 1,24,-1
 384 384 l 1,25,-1
 512 384 l 1,26,-1
 512 256 l 1,27,-1
 384 256 l 1,24,-1
512 256 m 1,28,-1
 512 384 l 1,29,-1
 640 384 l 1,30,-1
 640 256 l 1,31,-1
 512 256 l 1,28,-1
128 128 m 1,32,-1
 128 256 l 1,33,-1
 256 256 l 1,34,-1
 256 128 l 1,35,-1
 128 128 l 1,32,-1
256 128 m 1,36,-1
 256 256 l 1,37,-1
 384 256 l 1,38,-1
 384 128 l 1,39,-1
 256 128 l 1,36,-1
EndSplineSet
EndChar

StartChar: question
Encoding: 63 63 64
Width: 896
Flags: W
LayerCount: 2
Fore
SplineSet
256 896 m 1,0,-1
 256 1024 l 1,1,-1
 384 1024 l 1,2,-1
 384 896 l 1,3,-1
 256 896 l 1,0,-1
384 896 m 1,4,-1
 384 1024 l 1,5,-1
 512 1024 l 1,6,-1
 512 896 l 1,7,-1
 384 896 l 1,4,-1
512 896 m 1,8,-1
 512 1024 l 1,9,-1
 640 1024 l 1,10,-1
 640 896 l 1,11,-1
 512 896 l 1,8,-1
128 768 m 1,12,-1
 128 896 l 1,13,-1
 256 896 l 1,14,-1
 256 768 l 1,15,-1
 128 768 l 1,12,-1
640 768 m 1,16,-1
 640 896 l 1,17,-1
 768 896 l 1,18,-1
 768 768 l 1,19,-1
 640 768 l 1,16,-1
640 640 m 1,20,-1
 640 768 l 1,21,-1
 768 768 l 1,22,-1
 768 640 l 1,23,-1
 640 640 l 1,20,-1
512 512 m 1,24,-1
 512 640 l 1,25,-1
 640 640 l 1,26,-1
 640 512 l 1,27,-1
 512 512 l 1,24,-1
384 384 m 1,28,-1
 384 512 l 1,29,-1
 512 512 l 1,30,-1
 512 384 l 1,31,-1
 384 384 l 1,28,-1
384 256 m 1,32,-1
 384 384 l 1,33,-1
 512 384 l 1,34,-1
 512 256 l 1,35,-1
 384 256 l 1,32,-1
384 0 m 1,36,-1
 384 128 l 1,37,-1
 512 128 l 1,38,-1
 512 0 l 1,39,-1
 384 0 l 1,36,-1
EndSplineSet
EndChar

StartChar: at
Encoding: 64 64 65
Width: 896
Flags: W
LayerCount: 2
Fore
SplineSet
256 896 m 1,0,-1
 256 1024 l 1,1,-1
 384 1024 l 1,2,-1
 384 896 l 1,3,-1
 256 896 l 1,0,-1
384 896 m 1,4,-1
 384 1024 l 1,5,-1
 512 1024 l 1,6,-1
 512 896 l 1,7,-1
 384 896 l 1,4,-1
512 896 m 1,8,-1
 512 1024 l 1,9,-1
 640 1024 l 1,10,-1
 640 896 l 1,11,-1
 512 896 l 1,8,-1
128 768 m 1,12,-1
 128 896 l 1,13,-1
 256 896 l 1,14,-1
 256 768 l 1,15,-1
 128 768 l 1,12,-1
640 768 m 1,16,-1
 640 896 l 1,17,-1
 768 896 l 1,18,-1
 768 768 l 1,19,-1
 640 768 l 1,16,-1
0 640 m 1,20,-1
 0 768 l 1,21,-1
 128 768 l 1,22,-1
 128 640 l 1,23,-1
 0 640 l 1,20,-1
384 640 m 1,24,-1
 384 768 l 1,25,-1
 512 768 l 1,26,-1
 512 640 l 1,27,-1
 384 640 l 1,24,-1
512 640 m 1,28,-1
 512 768 l 1,29,-1
 640 768 l 1,30,-1
 640 640 l 1,31,-1
 512 640 l 1,28,-1
768 640 m 1,32,-1
 768 768 l 1,33,-1
 896 768 l 1,34,-1
 896 640 l 1,35,-1
 768 640 l 1,32,-1
0 512 m 1,36,-1
 0 640 l 1,37,-1
 128 640 l 1,38,-1
 128 512 l 1,39,-1
 0 512 l 1,36,-1
256 512 m 1,40,-1
 256 640 l 1,41,-1
 384 640 l 1,42,-1
 384 512 l 1,43,-1
 256 512 l 1,40,-1
512 512 m 1,44,-1
 512 640 l 1,45,-1
 640 640 l 1,46,-1
 640 512 l 1,47,-1
 512 512 l 1,44,-1
768 512 m 1,48,-1
 768 640 l 1,49,-1
 896 640 l 1,50,-1
 896 512 l 1,51,-1
 768 512 l 1,48,-1
0 384 m 1,52,-1
 0 512 l 1,53,-1
 128 512 l 1,54,-1
 128 384 l 1,55,-1
 0 384 l 1,52,-1
256 384 m 1,56,-1
 256 512 l 1,57,-1
 384 512 l 1,58,-1
 384 384 l 1,59,-1
 256 384 l 1,56,-1
512 384 m 1,60,-1
 512 512 l 1,61,-1
 640 512 l 1,62,-1
 640 384 l 1,63,-1
 512 384 l 1,60,-1
768 384 m 1,64,-1
 768 512 l 1,65,-1
 896 512 l 1,66,-1
 896 384 l 1,67,-1
 768 384 l 1,64,-1
0 256 m 1,68,-1
 0 384 l 1,69,-1
 128 384 l 1,70,-1
 128 256 l 1,71,-1
 0 256 l 1,68,-1
384 256 m 1,72,-1
 384 384 l 1,73,-1
 512 384 l 1,74,-1
 512 256 l 1,75,-1
 384 256 l 1,72,-1
512 256 m 1,76,-1
 512 384 l 1,77,-1
 640 384 l 1,78,-1
 640 256 l 1,79,-1
 512 256 l 1,76,-1
640 256 m 1,80,-1
 640 384 l 1,81,-1
 768 384 l 1,82,-1
 768 256 l 1,83,-1
 640 256 l 1,80,-1
128 128 m 1,84,-1
 128 256 l 1,85,-1
 256 256 l 1,86,-1
 256 128 l 1,87,-1
 128 128 l 1,84,-1
256 0 m 1,88,-1
 256 128 l 1,89,-1
 384 128 l 1,90,-1
 384 0 l 1,91,-1
 256 0 l 1,88,-1
384 0 m 1,92,-1
 384 128 l 1,93,-1
 512 128 l 1,94,-1
 512 0 l 1,95,-1
 384 0 l 1,92,-1
512 0 m 1,96,-1
 512 128 l 1,97,-1
 640 128 l 1,98,-1
 640 0 l 1,99,-1
 512 0 l 1,96,-1
640 0 m 1,100,-1
 640 128 l 1,101,-1
 768 128 l 1,102,-1
 768 0 l 1,103,-1
 640 0 l 1,100,-1
EndSplineSet
EndChar

StartChar: A
Encoding: 65 65 66
Width: 896
Flags: W
LayerCount: 2
Fore
SplineSet
384 896 m 1,0,-1
 384 1024 l 1,1,-1
 512 1024 l 1,2,-1
 512 896 l 1,3,-1
 384 896 l 1,0,-1
512 896 m 1,4,-1
 512 1024 l 1,5,-1
 640 1024 l 1,6,-1
 640 896 l 1,7,-1
 512 896 l 1,4,-1
384 768 m 1,8,-1
 384 896 l 1,9,-1
 512 896 l 1,10,-1
 512 768 l 1,11,-1
 384 768 l 1,8,-1
512 768 m 1,12,-1
 512 896 l 1,13,-1
 640 896 l 1,14,-1
 640 768 l 1,15,-1
 512 768 l 1,12,-1
256 640 m 1,16,-1
 256 768 l 1,17,-1
 384 768 l 1,18,-1
 384 640 l 1,19,-1
 256 640 l 1,16,-1
640 640 m 1,20,-1
 640 768 l 1,21,-1
 768 768 l 1,22,-1
 768 640 l 1,23,-1
 640 640 l 1,20,-1
256 512 m 1,24,-1
 256 640 l 1,25,-1
 384 640 l 1,26,-1
 384 512 l 1,27,-1
 256 512 l 1,24,-1
640 512 m 1,28,-1
 640 640 l 1,29,-1
 768 640 l 1,30,-1
 768 512 l 1,31,-1
 640 512 l 1,28,-1
256 384 m 1,32,-1
 256 512 l 1,33,-1
 384 512 l 1,34,-1
 384 384 l 1,35,-1
 256 384 l 1,32,-1
384 384 m 1,36,-1
 384 512 l 1,37,-1
 512 512 l 1,38,-1
 512 384 l 1,39,-1
 384 384 l 1,36,-1
512 384 m 1,40,-1
 512 512 l 1,41,-1
 640 512 l 1,42,-1
 640 384 l 1,43,-1
 512 384 l 1,40,-1
640 384 m 1,44,-1
 640 512 l 1,45,-1
 768 512 l 1,46,-1
 768 384 l 1,47,-1
 640 384 l 1,44,-1
128 256 m 1,48,-1
 128 384 l 1,49,-1
 256 384 l 1,50,-1
 256 256 l 1,51,-1
 128 256 l 1,48,-1
768 256 m 1,52,-1
 768 384 l 1,53,-1
 896 384 l 1,54,-1
 896 256 l 1,55,-1
 768 256 l 1,52,-1
128 128 m 1,56,-1
 128 256 l 1,57,-1
 256 256 l 1,58,-1
 256 128 l 1,59,-1
 128 128 l 1,56,-1
768 128 m 1,60,-1
 768 256 l 1,61,-1
 896 256 l 1,62,-1
 896 128 l 1,63,-1
 768 128 l 1,60,-1
128 0 m 1,64,-1
 128 128 l 1,65,-1
 256 128 l 1,66,-1
 256 0 l 1,67,-1
 128 0 l 1,64,-1
768 0 m 1,68,-1
 768 128 l 1,69,-1
 896 128 l 1,70,-1
 896 0 l 1,71,-1
 768 0 l 1,68,-1
EndSplineSet
EndChar

StartChar: B
Encoding: 66 66 67
Width: 896
Flags: W
LayerCount: 2
Fore
SplineSet
128 896 m 1,0,-1
 128 1024 l 1,1,-1
 256 1024 l 1,2,-1
 256 896 l 1,3,-1
 128 896 l 1,0,-1
256 896 m 1,4,-1
 256 1024 l 1,5,-1
 384 1024 l 1,6,-1
 384 896 l 1,7,-1
 256 896 l 1,4,-1
384 896 m 1,8,-1
 384 1024 l 1,9,-1
 512 1024 l 1,10,-1
 512 896 l 1,11,-1
 384 896 l 1,8,-1
512 896 m 1,12,-1
 512 1024 l 1,13,-1
 640 1024 l 1,14,-1
 640 896 l 1,15,-1
 512 896 l 1,12,-1
128 768 m 1,16,-1
 128 896 l 1,17,-1
 256 896 l 1,18,-1
 256 768 l 1,19,-1
 128 768 l 1,16,-1
640 768 m 1,20,-1
 640 896 l 1,21,-1
 768 896 l 1,22,-1
 768 768 l 1,23,-1
 640 768 l 1,20,-1
128 640 m 1,24,-1
 128 768 l 1,25,-1
 256 768 l 1,26,-1
 256 640 l 1,27,-1
 128 640 l 1,24,-1
640 640 m 1,28,-1
 640 768 l 1,29,-1
 768 768 l 1,30,-1
 768 640 l 1,31,-1
 640 640 l 1,28,-1
128 512 m 1,32,-1
 128 640 l 1,33,-1
 256 640 l 1,34,-1
 256 512 l 1,35,-1
 128 512 l 1,32,-1
256 512 m 1,36,-1
 256 640 l 1,37,-1
 384 640 l 1,38,-1
 384 512 l 1,39,-1
 256 512 l 1,36,-1
384 512 m 1,40,-1
 384 640 l 1,41,-1
 512 640 l 1,42,-1
 512 512 l 1,43,-1
 384 512 l 1,40,-1
512 512 m 1,44,-1
 512 640 l 1,45,-1
 640 640 l 1,46,-1
 640 512 l 1,47,-1
 512 512 l 1,44,-1
640 512 m 1,48,-1
 640 640 l 1,49,-1
 768 640 l 1,50,-1
 768 512 l 1,51,-1
 640 512 l 1,48,-1
128 384 m 1,52,-1
 128 512 l 1,53,-1
 256 512 l 1,54,-1
 256 384 l 1,55,-1
 128 384 l 1,52,-1
768 384 m 1,56,-1
 768 512 l 1,57,-1
 896 512 l 1,58,-1
 896 384 l 1,59,-1
 768 384 l 1,56,-1
128 256 m 1,60,-1
 128 384 l 1,61,-1
 256 384 l 1,62,-1
 256 256 l 1,63,-1
 128 256 l 1,60,-1
768 256 m 1,64,-1
 768 384 l 1,65,-1
 896 384 l 1,66,-1
 896 256 l 1,67,-1
 768 256 l 1,64,-1
128 128 m 1,68,-1
 128 256 l 1,69,-1
 256 256 l 1,70,-1
 256 128 l 1,71,-1
 128 128 l 1,68,-1
768 128 m 1,72,-1
 768 256 l 1,73,-1
 896 256 l 1,74,-1
 896 128 l 1,75,-1
 768 128 l 1,72,-1
128 0 m 1,76,-1
 128 128 l 1,77,-1
 256 128 l 1,78,-1
 256 0 l 1,79,-1
 128 0 l 1,76,-1
256 0 m 1,80,-1
 256 128 l 1,81,-1
 384 128 l 1,82,-1
 384 0 l 1,83,-1
 256 0 l 1,80,-1
384 0 m 1,84,-1
 384 128 l 1,85,-1
 512 128 l 1,86,-1
 512 0 l 1,87,-1
 384 0 l 1,84,-1
512 0 m 1,88,-1
 512 128 l 1,89,-1
 640 128 l 1,90,-1
 640 0 l 1,91,-1
 512 0 l 1,88,-1
640 0 m 1,92,-1
 640 128 l 1,93,-1
 768 128 l 1,94,-1
 768 0 l 1,95,-1
 640 0 l 1,92,-1
EndSplineSet
EndChar

StartChar: C
Encoding: 67 67 68
Width: 896
Flags: W
LayerCount: 2
Fore
SplineSet
384 896 m 1,0,-1
 384 1024 l 1,1,-1
 512 1024 l 1,2,-1
 512 896 l 1,3,-1
 384 896 l 1,0,-1
512 896 m 1,4,-1
 512 1024 l 1,5,-1
 640 1024 l 1,6,-1
 640 896 l 1,7,-1
 512 896 l 1,4,-1
640 896 m 1,8,-1
 640 1024 l 1,9,-1
 768 1024 l 1,10,-1
 768 896 l 1,11,-1
 640 896 l 1,8,-1
256 768 m 1,12,-1
 256 896 l 1,13,-1
 384 896 l 1,14,-1
 384 768 l 1,15,-1
 256 768 l 1,12,-1
768 768 m 1,16,-1
 768 896 l 1,17,-1
 896 896 l 1,18,-1
 896 768 l 1,19,-1
 768 768 l 1,16,-1
128 640 m 1,20,-1
 128 768 l 1,21,-1
 256 768 l 1,22,-1
 256 640 l 1,23,-1
 128 640 l 1,20,-1
128 512 m 1,24,-1
 128 640 l 1,25,-1
 256 640 l 1,26,-1
 256 512 l 1,27,-1
 128 512 l 1,24,-1
128 384 m 1,28,-1
 128 512 l 1,29,-1
 256 512 l 1,30,-1
 256 384 l 1,31,-1
 128 384 l 1,28,-1
128 256 m 1,32,-1
 128 384 l 1,33,-1
 256 384 l 1,34,-1
 256 256 l 1,35,-1
 128 256 l 1,32,-1
256 128 m 1,36,-1
 256 256 l 1,37,-1
 384 256 l 1,38,-1
 384 128 l 1,39,-1
 256 128 l 1,36,-1
768 128 m 1,40,-1
 768 256 l 1,41,-1
 896 256 l 1,42,-1
 896 128 l 1,43,-1
 768 128 l 1,40,-1
384 0 m 1,44,-1
 384 128 l 1,45,-1
 512 128 l 1,46,-1
 512 0 l 1,47,-1
 384 0 l 1,44,-1
512 0 m 1,48,-1
 512 128 l 1,49,-1
 640 128 l 1,50,-1
 640 0 l 1,51,-1
 512 0 l 1,48,-1
640 0 m 1,52,-1
 640 128 l 1,53,-1
 768 128 l 1,54,-1
 768 0 l 1,55,-1
 640 0 l 1,52,-1
EndSplineSet
EndChar

StartChar: D
Encoding: 68 68 69
Width: 896
Flags: W
LayerCount: 2
Fore
SplineSet
128 896 m 1,0,-1
 128 1024 l 1,1,-1
 256 1024 l 1,2,-1
 256 896 l 1,3,-1
 128 896 l 1,0,-1
256 896 m 1,4,-1
 256 1024 l 1,5,-1
 384 1024 l 1,6,-1
 384 896 l 1,7,-1
 256 896 l 1,4,-1
384 896 m 1,8,-1
 384 1024 l 1,9,-1
 512 1024 l 1,10,-1
 512 896 l 1,11,-1
 384 896 l 1,8,-1
512 896 m 1,12,-1
 512 1024 l 1,13,-1
 640 1024 l 1,14,-1
 640 896 l 1,15,-1
 512 896 l 1,12,-1
128 768 m 1,16,-1
 128 896 l 1,17,-1
 256 896 l 1,18,-1
 256 768 l 1,19,-1
 128 768 l 1,16,-1
640 768 m 1,20,-1
 640 896 l 1,21,-1
 768 896 l 1,22,-1
 768 768 l 1,23,-1
 640 768 l 1,20,-1
128 640 m 1,24,-1
 128 768 l 1,25,-1
 256 768 l 1,26,-1
 256 640 l 1,27,-1
 128 640 l 1,24,-1
768 640 m 1,28,-1
 768 768 l 1,29,-1
 896 768 l 1,30,-1
 896 640 l 1,31,-1
 768 640 l 1,28,-1
128 512 m 1,32,-1
 128 640 l 1,33,-1
 256 640 l 1,34,-1
 256 512 l 1,35,-1
 128 512 l 1,32,-1
768 512 m 1,36,-1
 768 640 l 1,37,-1
 896 640 l 1,38,-1
 896 512 l 1,39,-1
 768 512 l 1,36,-1
128 384 m 1,40,-1
 128 512 l 1,41,-1
 256 512 l 1,42,-1
 256 384 l 1,43,-1
 128 384 l 1,40,-1
768 384 m 1,44,-1
 768 512 l 1,45,-1
 896 512 l 1,46,-1
 896 384 l 1,47,-1
 768 384 l 1,44,-1
128 256 m 1,48,-1
 128 384 l 1,49,-1
 256 384 l 1,50,-1
 256 256 l 1,51,-1
 128 256 l 1,48,-1
768 256 m 1,52,-1
 768 384 l 1,53,-1
 896 384 l 1,54,-1
 896 256 l 1,55,-1
 768 256 l 1,52,-1
128 128 m 1,56,-1
 128 256 l 1,57,-1
 256 256 l 1,58,-1
 256 128 l 1,59,-1
 128 128 l 1,56,-1
640 128 m 1,60,-1
 640 256 l 1,61,-1
 768 256 l 1,62,-1
 768 128 l 1,63,-1
 640 128 l 1,60,-1
128 0 m 1,64,-1
 128 128 l 1,65,-1
 256 128 l 1,66,-1
 256 0 l 1,67,-1
 128 0 l 1,64,-1
256 0 m 1,68,-1
 256 128 l 1,69,-1
 384 128 l 1,70,-1
 384 0 l 1,71,-1
 256 0 l 1,68,-1
384 0 m 1,72,-1
 384 128 l 1,73,-1
 512 128 l 1,74,-1
 512 0 l 1,75,-1
 384 0 l 1,72,-1
512 0 m 1,76,-1
 512 128 l 1,77,-1
 640 128 l 1,78,-1
 640 0 l 1,79,-1
 512 0 l 1,76,-1
EndSplineSet
EndChar

StartChar: E
Encoding: 69 69 70
Width: 896
Flags: W
LayerCount: 2
Fore
SplineSet
128 896 m 1,0,-1
 128 1024 l 1,1,-1
 256 1024 l 1,2,-1
 256 896 l 1,3,-1
 128 896 l 1,0,-1
256 896 m 1,4,-1
 256 1024 l 1,5,-1
 384 1024 l 1,6,-1
 384 896 l 1,7,-1
 256 896 l 1,4,-1
384 896 m 1,8,-1
 384 1024 l 1,9,-1
 512 1024 l 1,10,-1
 512 896 l 1,11,-1
 384 896 l 1,8,-1
512 896 m 1,12,-1
 512 1024 l 1,13,-1
 640 1024 l 1,14,-1
 640 896 l 1,15,-1
 512 896 l 1,12,-1
640 896 m 1,16,-1
 640 1024 l 1,17,-1
 768 1024 l 1,18,-1
 768 896 l 1,19,-1
 640 896 l 1,16,-1
128 768 m 1,20,-1
 128 896 l 1,21,-1
 256 896 l 1,22,-1
 256 768 l 1,23,-1
 128 768 l 1,20,-1
128 640 m 1,24,-1
 128 768 l 1,25,-1
 256 768 l 1,26,-1
 256 640 l 1,27,-1
 128 640 l 1,24,-1
128 512 m 1,28,-1
 128 640 l 1,29,-1
 256 640 l 1,30,-1
 256 512 l 1,31,-1
 128 512 l 1,28,-1
256 512 m 1,32,-1
 256 640 l 1,33,-1
 384 640 l 1,34,-1
 384 512 l 1,35,-1
 256 512 l 1,32,-1
384 512 m 1,36,-1
 384 640 l 1,37,-1
 512 640 l 1,38,-1
 512 512 l 1,39,-1
 384 512 l 1,36,-1
512 512 m 1,40,-1
 512 640 l 1,41,-1
 640 640 l 1,42,-1
 640 512 l 1,43,-1
 512 512 l 1,40,-1
128 384 m 1,44,-1
 128 512 l 1,45,-1
 256 512 l 1,46,-1
 256 384 l 1,47,-1
 128 384 l 1,44,-1
128 256 m 1,48,-1
 128 384 l 1,49,-1
 256 384 l 1,50,-1
 256 256 l 1,51,-1
 128 256 l 1,48,-1
128 128 m 1,52,-1
 128 256 l 1,53,-1
 256 256 l 1,54,-1
 256 128 l 1,55,-1
 128 128 l 1,52,-1
128 0 m 1,56,-1
 128 128 l 1,57,-1
 256 128 l 1,58,-1
 256 0 l 1,59,-1
 128 0 l 1,56,-1
256 0 m 1,60,-1
 256 128 l 1,61,-1
 384 128 l 1,62,-1
 384 0 l 1,63,-1
 256 0 l 1,60,-1
384 0 m 1,64,-1
 384 128 l 1,65,-1
 512 128 l 1,66,-1
 512 0 l 1,67,-1
 384 0 l 1,64,-1
512 0 m 1,68,-1
 512 128 l 1,69,-1
 640 128 l 1,70,-1
 640 0 l 1,71,-1
 512 0 l 1,68,-1
640 0 m 1,72,-1
 640 128 l 1,73,-1
 768 128 l 1,74,-1
 768 0 l 1,75,-1
 640 0 l 1,72,-1
EndSplineSet
EndChar

StartChar: F
Encoding: 70 70 71
Width: 896
Flags: W
LayerCount: 2
Fore
SplineSet
128 896 m 1,0,-1
 128 1024 l 1,1,-1
 256 1024 l 1,2,-1
 256 896 l 1,3,-1
 128 896 l 1,0,-1
256 896 m 1,4,-1
 256 1024 l 1,5,-1
 384 1024 l 1,6,-1
 384 896 l 1,7,-1
 256 896 l 1,4,-1
384 896 m 1,8,-1
 384 1024 l 1,9,-1
 512 1024 l 1,10,-1
 512 896 l 1,11,-1
 384 896 l 1,8,-1
512 896 m 1,12,-1
 512 1024 l 1,13,-1
 640 1024 l 1,14,-1
 640 896 l 1,15,-1
 512 896 l 1,12,-1
640 896 m 1,16,-1
 640 1024 l 1,17,-1
 768 1024 l 1,18,-1
 768 896 l 1,19,-1
 640 896 l 1,16,-1
128 768 m 1,20,-1
 128 896 l 1,21,-1
 256 896 l 1,22,-1
 256 768 l 1,23,-1
 128 768 l 1,20,-1
128 640 m 1,24,-1
 128 768 l 1,25,-1
 256 768 l 1,26,-1
 256 640 l 1,27,-1
 128 640 l 1,24,-1
128 512 m 1,28,-1
 128 640 l 1,29,-1
 256 640 l 1,30,-1
 256 512 l 1,31,-1
 128 512 l 1,28,-1
256 512 m 1,32,-1
 256 640 l 1,33,-1
 384 640 l 1,34,-1
 384 512 l 1,35,-1
 256 512 l 1,32,-1
384 512 m 1,36,-1
 384 640 l 1,37,-1
 512 640 l 1,38,-1
 512 512 l 1,39,-1
 384 512 l 1,36,-1
512 512 m 1,40,-1
 512 640 l 1,41,-1
 640 640 l 1,42,-1
 640 512 l 1,43,-1
 512 512 l 1,40,-1
128 384 m 1,44,-1
 128 512 l 1,45,-1
 256 512 l 1,46,-1
 256 384 l 1,47,-1
 128 384 l 1,44,-1
128 256 m 1,48,-1
 128 384 l 1,49,-1
 256 384 l 1,50,-1
 256 256 l 1,51,-1
 128 256 l 1,48,-1
128 128 m 1,52,-1
 128 256 l 1,53,-1
 256 256 l 1,54,-1
 256 128 l 1,55,-1
 128 128 l 1,52,-1
128 0 m 1,56,-1
 128 128 l 1,57,-1
 256 128 l 1,58,-1
 256 0 l 1,59,-1
 128 0 l 1,56,-1
EndSplineSet
EndChar

StartChar: G
Encoding: 71 71 72
Width: 896
Flags: W
LayerCount: 2
Fore
SplineSet
384 896 m 1,0,-1
 384 1024 l 1,1,-1
 512 1024 l 1,2,-1
 512 896 l 1,3,-1
 384 896 l 1,0,-1
512 896 m 1,4,-1
 512 1024 l 1,5,-1
 640 1024 l 1,6,-1
 640 896 l 1,7,-1
 512 896 l 1,4,-1
640 896 m 1,8,-1
 640 1024 l 1,9,-1
 768 1024 l 1,10,-1
 768 896 l 1,11,-1
 640 896 l 1,8,-1
256 768 m 1,12,-1
 256 896 l 1,13,-1
 384 896 l 1,14,-1
 384 768 l 1,15,-1
 256 768 l 1,12,-1
768 768 m 1,16,-1
 768 896 l 1,17,-1
 896 896 l 1,18,-1
 896 768 l 1,19,-1
 768 768 l 1,16,-1
128 640 m 1,20,-1
 128 768 l 1,21,-1
 256 768 l 1,22,-1
 256 640 l 1,23,-1
 128 640 l 1,20,-1
128 512 m 1,24,-1
 128 640 l 1,25,-1
 256 640 l 1,26,-1
 256 512 l 1,27,-1
 128 512 l 1,24,-1
128 384 m 1,28,-1
 128 512 l 1,29,-1
 256 512 l 1,30,-1
 256 384 l 1,31,-1
 128 384 l 1,28,-1
512 384 m 1,32,-1
 512 512 l 1,33,-1
 640 512 l 1,34,-1
 640 384 l 1,35,-1
 512 384 l 1,32,-1
640 384 m 1,36,-1
 640 512 l 1,37,-1
 768 512 l 1,38,-1
 768 384 l 1,39,-1
 640 384 l 1,36,-1
768 384 m 1,40,-1
 768 512 l 1,41,-1
 896 512 l 1,42,-1
 896 384 l 1,43,-1
 768 384 l 1,40,-1
128 256 m 1,44,-1
 128 384 l 1,45,-1
 256 384 l 1,46,-1
 256 256 l 1,47,-1
 128 256 l 1,44,-1
768 256 m 1,48,-1
 768 384 l 1,49,-1
 896 384 l 1,50,-1
 896 256 l 1,51,-1
 768 256 l 1,48,-1
256 128 m 1,52,-1
 256 256 l 1,53,-1
 384 256 l 1,54,-1
 384 128 l 1,55,-1
 256 128 l 1,52,-1
768 128 m 1,56,-1
 768 256 l 1,57,-1
 896 256 l 1,58,-1
 896 128 l 1,59,-1
 768 128 l 1,56,-1
384 0 m 1,60,-1
 384 128 l 1,61,-1
 512 128 l 1,62,-1
 512 0 l 1,63,-1
 384 0 l 1,60,-1
512 0 m 1,64,-1
 512 128 l 1,65,-1
 640 128 l 1,66,-1
 640 0 l 1,67,-1
 512 0 l 1,64,-1
640 0 m 1,68,-1
 640 128 l 1,69,-1
 768 128 l 1,70,-1
 768 0 l 1,71,-1
 640 0 l 1,68,-1
EndSplineSet
EndChar

StartChar: H
Encoding: 72 72 73
Width: 896
Flags: W
LayerCount: 2
Fore
SplineSet
128 896 m 1,0,-1
 128 1024 l 1,1,-1
 256 1024 l 1,2,-1
 256 896 l 1,3,-1
 128 896 l 1,0,-1
768 896 m 1,4,-1
 768 1024 l 1,5,-1
 896 1024 l 1,6,-1
 896 896 l 1,7,-1
 768 896 l 1,4,-1
128 768 m 1,8,-1
 128 896 l 1,9,-1
 256 896 l 1,10,-1
 256 768 l 1,11,-1
 128 768 l 1,8,-1
768 768 m 1,12,-1
 768 896 l 1,13,-1
 896 896 l 1,14,-1
 896 768 l 1,15,-1
 768 768 l 1,12,-1
128 640 m 1,16,-1
 128 768 l 1,17,-1
 256 768 l 1,18,-1
 256 640 l 1,19,-1
 128 640 l 1,16,-1
768 640 m 1,20,-1
 768 768 l 1,21,-1
 896 768 l 1,22,-1
 896 640 l 1,23,-1
 768 640 l 1,20,-1
128 512 m 1,24,-1
 128 640 l 1,25,-1
 256 640 l 1,26,-1
 256 512 l 1,27,-1
 128 512 l 1,24,-1
256 512 m 1,28,-1
 256 640 l 1,29,-1
 384 640 l 1,30,-1
 384 512 l 1,31,-1
 256 512 l 1,28,-1
384 512 m 1,32,-1
 384 640 l 1,33,-1
 512 640 l 1,34,-1
 512 512 l 1,35,-1
 384 512 l 1,32,-1
512 512 m 1,36,-1
 512 640 l 1,37,-1
 640 640 l 1,38,-1
 640 512 l 1,39,-1
 512 512 l 1,36,-1
640 512 m 1,40,-1
 640 640 l 1,41,-1
 768 640 l 1,42,-1
 768 512 l 1,43,-1
 640 512 l 1,40,-1
768 512 m 1,44,-1
 768 640 l 1,45,-1
 896 640 l 1,46,-1
 896 512 l 1,47,-1
 768 512 l 1,44,-1
128 384 m 1,48,-1
 128 512 l 1,49,-1
 256 512 l 1,50,-1
 256 384 l 1,51,-1
 128 384 l 1,48,-1
768 384 m 1,52,-1
 768 512 l 1,53,-1
 896 512 l 1,54,-1
 896 384 l 1,55,-1
 768 384 l 1,52,-1
128 256 m 1,56,-1
 128 384 l 1,57,-1
 256 384 l 1,58,-1
 256 256 l 1,59,-1
 128 256 l 1,56,-1
768 256 m 1,60,-1
 768 384 l 1,61,-1
 896 384 l 1,62,-1
 896 256 l 1,63,-1
 768 256 l 1,60,-1
128 128 m 1,64,-1
 128 256 l 1,65,-1
 256 256 l 1,66,-1
 256 128 l 1,67,-1
 128 128 l 1,64,-1
768 128 m 1,68,-1
 768 256 l 1,69,-1
 896 256 l 1,70,-1
 896 128 l 1,71,-1
 768 128 l 1,68,-1
128 0 m 1,72,-1
 128 128 l 1,73,-1
 256 128 l 1,74,-1
 256 0 l 1,75,-1
 128 0 l 1,72,-1
768 0 m 1,76,-1
 768 128 l 1,77,-1
 896 128 l 1,78,-1
 896 0 l 1,79,-1
 768 0 l 1,76,-1
EndSplineSet
EndChar

StartChar: I
Encoding: 73 73 74
Width: 896
Flags: W
LayerCount: 2
Fore
SplineSet
256 896 m 1,0,-1
 256 1024 l 1,1,-1
 384 1024 l 1,2,-1
 384 896 l 1,3,-1
 256 896 l 1,0,-1
384 896 m 1,4,-1
 384 1024 l 1,5,-1
 512 1024 l 1,6,-1
 512 896 l 1,7,-1
 384 896 l 1,4,-1
512 896 m 1,8,-1
 512 1024 l 1,9,-1
 640 1024 l 1,10,-1
 640 896 l 1,11,-1
 512 896 l 1,8,-1
384 768 m 1,12,-1
 384 896 l 1,13,-1
 512 896 l 1,14,-1
 512 768 l 1,15,-1
 384 768 l 1,12,-1
384 640 m 1,16,-1
 384 768 l 1,17,-1
 512 768 l 1,18,-1
 512 640 l 1,19,-1
 384 640 l 1,16,-1
384 512 m 1,20,-1
 384 640 l 1,21,-1
 512 640 l 1,22,-1
 512 512 l 1,23,-1
 384 512 l 1,20,-1
384 384 m 1,24,-1
 384 512 l 1,25,-1
 512 512 l 1,26,-1
 512 384 l 1,27,-1
 384 384 l 1,24,-1
384 256 m 1,28,-1
 384 384 l 1,29,-1
 512 384 l 1,30,-1
 512 256 l 1,31,-1
 384 256 l 1,28,-1
384 128 m 1,32,-1
 384 256 l 1,33,-1
 512 256 l 1,34,-1
 512 128 l 1,35,-1
 384 128 l 1,32,-1
256 0 m 1,36,-1
 256 128 l 1,37,-1
 384 128 l 1,38,-1
 384 0 l 1,39,-1
 256 0 l 1,36,-1
384 0 m 1,40,-1
 384 128 l 1,41,-1
 512 128 l 1,42,-1
 512 0 l 1,43,-1
 384 0 l 1,40,-1
512 0 m 1,44,-1
 512 128 l 1,45,-1
 640 128 l 1,46,-1
 640 0 l 1,47,-1
 512 0 l 1,44,-1
EndSplineSet
EndChar

StartChar: J
Encoding: 74 74 75
Width: 896
Flags: W
LayerCount: 2
Fore
SplineSet
256 896 m 1,0,-1
 256 1024 l 1,1,-1
 384 1024 l 1,2,-1
 384 896 l 1,3,-1
 256 896 l 1,0,-1
384 896 m 1,4,-1
 384 1024 l 1,5,-1
 512 1024 l 1,6,-1
 512 896 l 1,7,-1
 384 896 l 1,4,-1
512 896 m 1,8,-1
 512 1024 l 1,9,-1
 640 1024 l 1,10,-1
 640 896 l 1,11,-1
 512 896 l 1,8,-1
512 768 m 1,12,-1
 512 896 l 1,13,-1
 640 896 l 1,14,-1
 640 768 l 1,15,-1
 512 768 l 1,12,-1
512 640 m 1,16,-1
 512 768 l 1,17,-1
 640 768 l 1,18,-1
 640 640 l 1,19,-1
 512 640 l 1,16,-1
512 512 m 1,20,-1
 512 640 l 1,21,-1
 640 640 l 1,22,-1
 640 512 l 1,23,-1
 512 512 l 1,20,-1
512 384 m 1,24,-1
 512 512 l 1,25,-1
 640 512 l 1,26,-1
 640 384 l 1,27,-1
 512 384 l 1,24,-1
512 256 m 1,28,-1
 512 384 l 1,29,-1
 640 384 l 1,30,-1
 640 256 l 1,31,-1
 512 256 l 1,28,-1
512 128 m 1,32,-1
 512 256 l 1,33,-1
 640 256 l 1,34,-1
 640 128 l 1,35,-1
 512 128 l 1,32,-1
128 0 m 1,36,-1
 128 128 l 1,37,-1
 256 128 l 1,38,-1
 256 0 l 1,39,-1
 128 0 l 1,36,-1
256 0 m 1,40,-1
 256 128 l 1,41,-1
 384 128 l 1,42,-1
 384 0 l 1,43,-1
 256 0 l 1,40,-1
384 0 m 1,44,-1
 384 128 l 1,45,-1
 512 128 l 1,46,-1
 512 0 l 1,47,-1
 384 0 l 1,44,-1
EndSplineSet
EndChar

StartChar: K
Encoding: 75 75 76
Width: 896
Flags: W
LayerCount: 2
Fore
SplineSet
128 896 m 1,0,-1
 128 1024 l 1,1,-1
 256 1024 l 1,2,-1
 256 896 l 1,3,-1
 128 896 l 1,0,-1
768 896 m 1,4,-1
 768 1024 l 1,5,-1
 896 1024 l 1,6,-1
 896 896 l 1,7,-1
 768 896 l 1,4,-1
128 768 m 1,8,-1
 128 896 l 1,9,-1
 256 896 l 1,10,-1
 256 768 l 1,11,-1
 128 768 l 1,8,-1
640 768 m 1,12,-1
 640 896 l 1,13,-1
 768 896 l 1,14,-1
 768 768 l 1,15,-1
 640 768 l 1,12,-1
128 640 m 1,16,-1
 128 768 l 1,17,-1
 256 768 l 1,18,-1
 256 640 l 1,19,-1
 128 640 l 1,16,-1
512 640 m 1,20,-1
 512 768 l 1,21,-1
 640 768 l 1,22,-1
 640 640 l 1,23,-1
 512 640 l 1,20,-1
128 512 m 1,24,-1
 128 640 l 1,25,-1
 256 640 l 1,26,-1
 256 512 l 1,27,-1
 128 512 l 1,24,-1
384 512 m 1,28,-1
 384 640 l 1,29,-1
 512 640 l 1,30,-1
 512 512 l 1,31,-1
 384 512 l 1,28,-1
128 384 m 1,32,-1
 128 512 l 1,33,-1
 256 512 l 1,34,-1
 256 384 l 1,35,-1
 128 384 l 1,32,-1
256 384 m 1,36,-1
 256 512 l 1,37,-1
 384 512 l 1,38,-1
 384 384 l 1,39,-1
 256 384 l 1,36,-1
384 384 m 1,40,-1
 384 512 l 1,41,-1
 512 512 l 1,42,-1
 512 384 l 1,43,-1
 384 384 l 1,40,-1
128 256 m 1,44,-1
 128 384 l 1,45,-1
 256 384 l 1,46,-1
 256 256 l 1,47,-1
 128 256 l 1,44,-1
512 256 m 1,48,-1
 512 384 l 1,49,-1
 640 384 l 1,50,-1
 640 256 l 1,51,-1
 512 256 l 1,48,-1
128 128 m 1,52,-1
 128 256 l 1,53,-1
 256 256 l 1,54,-1
 256 128 l 1,55,-1
 128 128 l 1,52,-1
640 128 m 1,56,-1
 640 256 l 1,57,-1
 768 256 l 1,58,-1
 768 128 l 1,59,-1
 640 128 l 1,56,-1
128 0 m 1,60,-1
 128 128 l 1,61,-1
 256 128 l 1,62,-1
 256 0 l 1,63,-1
 128 0 l 1,60,-1
768 0 m 1,64,-1
 768 128 l 1,65,-1
 896 128 l 1,66,-1
 896 0 l 1,67,-1
 768 0 l 1,64,-1
EndSplineSet
EndChar

StartChar: L
Encoding: 76 76 77
Width: 896
Flags: W
LayerCount: 2
Fore
SplineSet
128 896 m 1,0,-1
 128 1024 l 1,1,-1
 256 1024 l 1,2,-1
 256 896 l 1,3,-1
 128 896 l 1,0,-1
128 768 m 1,4,-1
 128 896 l 1,5,-1
 256 896 l 1,6,-1
 256 768 l 1,7,-1
 128 768 l 1,4,-1
128 640 m 1,8,-1
 128 768 l 1,9,-1
 256 768 l 1,10,-1
 256 640 l 1,11,-1
 128 640 l 1,8,-1
128 512 m 1,12,-1
 128 640 l 1,13,-1
 256 640 l 1,14,-1
 256 512 l 1,15,-1
 128 512 l 1,12,-1
128 384 m 1,16,-1
 128 512 l 1,17,-1
 256 512 l 1,18,-1
 256 384 l 1,19,-1
 128 384 l 1,16,-1
128 256 m 1,20,-1
 128 384 l 1,21,-1
 256 384 l 1,22,-1
 256 256 l 1,23,-1
 128 256 l 1,20,-1
128 128 m 1,24,-1
 128 256 l 1,25,-1
 256 256 l 1,26,-1
 256 128 l 1,27,-1
 128 128 l 1,24,-1
128 0 m 1,28,-1
 128 128 l 1,29,-1
 256 128 l 1,30,-1
 256 0 l 1,31,-1
 128 0 l 1,28,-1
256 0 m 1,32,-1
 256 128 l 1,33,-1
 384 128 l 1,34,-1
 384 0 l 1,35,-1
 256 0 l 1,32,-1
384 0 m 1,36,-1
 384 128 l 1,37,-1
 512 128 l 1,38,-1
 512 0 l 1,39,-1
 384 0 l 1,36,-1
512 0 m 1,40,-1
 512 128 l 1,41,-1
 640 128 l 1,42,-1
 640 0 l 1,43,-1
 512 0 l 1,40,-1
640 0 m 1,44,-1
 640 128 l 1,45,-1
 768 128 l 1,46,-1
 768 0 l 1,47,-1
 640 0 l 1,44,-1
EndSplineSet
EndChar

StartChar: M
Encoding: 77 77 78
Width: 896
Flags: W
LayerCount: 2
Fore
SplineSet
0 896 m 1,0,-1
 0 1024 l 1,1,-1
 128 1024 l 1,2,-1
 128 896 l 1,3,-1
 0 896 l 1,0,-1
128 896 m 1,4,-1
 128 1024 l 1,5,-1
 256 1024 l 1,6,-1
 256 896 l 1,7,-1
 128 896 l 1,4,-1
640 896 m 1,8,-1
 640 1024 l 1,9,-1
 768 1024 l 1,10,-1
 768 896 l 1,11,-1
 640 896 l 1,8,-1
768 896 m 1,12,-1
 768 1024 l 1,13,-1
 896 1024 l 1,14,-1
 896 896 l 1,15,-1
 768 896 l 1,12,-1
0 768 m 1,16,-1
 0 896 l 1,17,-1
 128 896 l 1,18,-1
 128 768 l 1,19,-1
 0 768 l 1,16,-1
128 768 m 1,20,-1
 128 896 l 1,21,-1
 256 896 l 1,22,-1
 256 768 l 1,23,-1
 128 768 l 1,20,-1
640 768 m 1,24,-1
 640 896 l 1,25,-1
 768 896 l 1,26,-1
 768 768 l 1,27,-1
 640 768 l 1,24,-1
768 768 m 1,28,-1
 768 896 l 1,29,-1
 896 896 l 1,30,-1
 896 768 l 1,31,-1
 768 768 l 1,28,-1
0 640 m 1,32,-1
 0 768 l 1,33,-1
 128 768 l 1,34,-1
 128 640 l 1,35,-1
 0 640 l 1,32,-1
256 640 m 1,36,-1
 256 768 l 1,37,-1
 384 768 l 1,38,-1
 384 640 l 1,39,-1
 256 640 l 1,36,-1
512 640 m 1,40,-1
 512 768 l 1,41,-1
 640 768 l 1,42,-1
 640 640 l 1,43,-1
 512 640 l 1,40,-1
768 640 m 1,44,-1
 768 768 l 1,45,-1
 896 768 l 1,46,-1
 896 640 l 1,47,-1
 768 640 l 1,44,-1
0 512 m 1,48,-1
 0 640 l 1,49,-1
 128 640 l 1,50,-1
 128 512 l 1,51,-1
 0 512 l 1,48,-1
256 512 m 1,52,-1
 256 640 l 1,53,-1
 384 640 l 1,54,-1
 384 512 l 1,55,-1
 256 512 l 1,52,-1
512 512 m 1,56,-1
 512 640 l 1,57,-1
 640 640 l 1,58,-1
 640 512 l 1,59,-1
 512 512 l 1,56,-1
768 512 m 1,60,-1
 768 640 l 1,61,-1
 896 640 l 1,62,-1
 896 512 l 1,63,-1
 768 512 l 1,60,-1
0 384 m 1,64,-1
 0 512 l 1,65,-1
 128 512 l 1,66,-1
 128 384 l 1,67,-1
 0 384 l 1,64,-1
384 384 m 1,68,-1
 384 512 l 1,69,-1
 512 512 l 1,70,-1
 512 384 l 1,71,-1
 384 384 l 1,68,-1
768 384 m 1,72,-1
 768 512 l 1,73,-1
 896 512 l 1,74,-1
 896 384 l 1,75,-1
 768 384 l 1,72,-1
0 256 m 1,76,-1
 0 384 l 1,77,-1
 128 384 l 1,78,-1
 128 256 l 1,79,-1
 0 256 l 1,76,-1
384 256 m 1,80,-1
 384 384 l 1,81,-1
 512 384 l 1,82,-1
 512 256 l 1,83,-1
 384 256 l 1,80,-1
768 256 m 1,84,-1
 768 384 l 1,85,-1
 896 384 l 1,86,-1
 896 256 l 1,87,-1
 768 256 l 1,84,-1
0 128 m 1,88,-1
 0 256 l 1,89,-1
 128 256 l 1,90,-1
 128 128 l 1,91,-1
 0 128 l 1,88,-1
768 128 m 1,92,-1
 768 256 l 1,93,-1
 896 256 l 1,94,-1
 896 128 l 1,95,-1
 768 128 l 1,92,-1
0 0 m 1,96,-1
 0 128 l 1,97,-1
 128 128 l 1,98,-1
 128 0 l 1,99,-1
 0 0 l 1,96,-1
768 0 m 1,100,-1
 768 128 l 1,101,-1
 896 128 l 1,102,-1
 896 0 l 1,103,-1
 768 0 l 1,100,-1
EndSplineSet
EndChar

StartChar: N
Encoding: 78 78 79
Width: 896
Flags: W
LayerCount: 2
Fore
SplineSet
128 896 m 1,0,-1
 128 1024 l 1,1,-1
 256 1024 l 1,2,-1
 256 896 l 1,3,-1
 128 896 l 1,0,-1
256 896 m 1,4,-1
 256 1024 l 1,5,-1
 384 1024 l 1,6,-1
 384 896 l 1,7,-1
 256 896 l 1,4,-1
768 896 m 1,8,-1
 768 1024 l 1,9,-1
 896 1024 l 1,10,-1
 896 896 l 1,11,-1
 768 896 l 1,8,-1
128 768 m 1,12,-1
 128 896 l 1,13,-1
 256 896 l 1,14,-1
 256 768 l 1,15,-1
 128 768 l 1,12,-1
256 768 m 1,16,-1
 256 896 l 1,17,-1
 384 896 l 1,18,-1
 384 768 l 1,19,-1
 256 768 l 1,16,-1
768 768 m 1,20,-1
 768 896 l 1,21,-1
 896 896 l 1,22,-1
 896 768 l 1,23,-1
 768 768 l 1,20,-1
128 640 m 1,24,-1
 128 768 l 1,25,-1
 256 768 l 1,26,-1
 256 640 l 1,27,-1
 128 640 l 1,24,-1
384 640 m 1,28,-1
 384 768 l 1,29,-1
 512 768 l 1,30,-1
 512 640 l 1,31,-1
 384 640 l 1,28,-1
768 640 m 1,32,-1
 768 768 l 1,33,-1
 896 768 l 1,34,-1
 896 640 l 1,35,-1
 768 640 l 1,32,-1
128 512 m 1,36,-1
 128 640 l 1,37,-1
 256 640 l 1,38,-1
 256 512 l 1,39,-1
 128 512 l 1,36,-1
384 512 m 1,40,-1
 384 640 l 1,41,-1
 512 640 l 1,42,-1
 512 512 l 1,43,-1
 384 512 l 1,40,-1
768 512 m 1,44,-1
 768 640 l 1,45,-1
 896 640 l 1,46,-1
 896 512 l 1,47,-1
 768 512 l 1,44,-1
128 384 m 1,48,-1
 128 512 l 1,49,-1
 256 512 l 1,50,-1
 256 384 l 1,51,-1
 128 384 l 1,48,-1
512 384 m 1,52,-1
 512 512 l 1,53,-1
 640 512 l 1,54,-1
 640 384 l 1,55,-1
 512 384 l 1,52,-1
768 384 m 1,56,-1
 768 512 l 1,57,-1
 896 512 l 1,58,-1
 896 384 l 1,59,-1
 768 384 l 1,56,-1
128 256 m 1,60,-1
 128 384 l 1,61,-1
 256 384 l 1,62,-1
 256 256 l 1,63,-1
 128 256 l 1,60,-1
512 256 m 1,64,-1
 512 384 l 1,65,-1
 640 384 l 1,66,-1
 640 256 l 1,67,-1
 512 256 l 1,64,-1
768 256 m 1,68,-1
 768 384 l 1,69,-1
 896 384 l 1,70,-1
 896 256 l 1,71,-1
 768 256 l 1,68,-1
128 128 m 1,72,-1
 128 256 l 1,73,-1
 256 256 l 1,74,-1
 256 128 l 1,75,-1
 128 128 l 1,72,-1
640 128 m 1,76,-1
 640 256 l 1,77,-1
 768 256 l 1,78,-1
 768 128 l 1,79,-1
 640 128 l 1,76,-1
768 128 m 1,80,-1
 768 256 l 1,81,-1
 896 256 l 1,82,-1
 896 128 l 1,83,-1
 768 128 l 1,80,-1
128 0 m 1,84,-1
 128 128 l 1,85,-1
 256 128 l 1,86,-1
 256 0 l 1,87,-1
 128 0 l 1,84,-1
640 0 m 1,88,-1
 640 128 l 1,89,-1
 768 128 l 1,90,-1
 768 0 l 1,91,-1
 640 0 l 1,88,-1
768 0 m 1,92,-1
 768 128 l 1,93,-1
 896 128 l 1,94,-1
 896 0 l 1,95,-1
 768 0 l 1,92,-1
EndSplineSet
EndChar

StartChar: O
Encoding: 79 79 80
Width: 896
Flags: W
LayerCount: 2
Fore
SplineSet
384 896 m 1,0,-1
 384 1024 l 1,1,-1
 512 1024 l 1,2,-1
 512 896 l 1,3,-1
 384 896 l 1,0,-1
512 896 m 1,4,-1
 512 1024 l 1,5,-1
 640 1024 l 1,6,-1
 640 896 l 1,7,-1
 512 896 l 1,4,-1
256 768 m 1,8,-1
 256 896 l 1,9,-1
 384 896 l 1,10,-1
 384 768 l 1,11,-1
 256 768 l 1,8,-1
640 768 m 1,12,-1
 640 896 l 1,13,-1
 768 896 l 1,14,-1
 768 768 l 1,15,-1
 640 768 l 1,12,-1
128 640 m 1,16,-1
 128 768 l 1,17,-1
 256 768 l 1,18,-1
 256 640 l 1,19,-1
 128 640 l 1,16,-1
768 640 m 1,20,-1
 768 768 l 1,21,-1
 896 768 l 1,22,-1
 896 640 l 1,23,-1
 768 640 l 1,20,-1
128 512 m 1,24,-1
 128 640 l 1,25,-1
 256 640 l 1,26,-1
 256 512 l 1,27,-1
 128 512 l 1,24,-1
768 512 m 1,28,-1
 768 640 l 1,29,-1
 896 640 l 1,30,-1
 896 512 l 1,31,-1
 768 512 l 1,28,-1
128 384 m 1,32,-1
 128 512 l 1,33,-1
 256 512 l 1,34,-1
 256 384 l 1,35,-1
 128 384 l 1,32,-1
768 384 m 1,36,-1
 768 512 l 1,37,-1
 896 512 l 1,38,-1
 896 384 l 1,39,-1
 768 384 l 1,36,-1
128 256 m 1,40,-1
 128 384 l 1,41,-1
 256 384 l 1,42,-1
 256 256 l 1,43,-1
 128 256 l 1,40,-1
768 256 m 1,44,-1
 768 384 l 1,45,-1
 896 384 l 1,46,-1
 896 256 l 1,47,-1
 768 256 l 1,44,-1
256 128 m 1,48,-1
 256 256 l 1,49,-1
 384 256 l 1,50,-1
 384 128 l 1,51,-1
 256 128 l 1,48,-1
640 128 m 1,52,-1
 640 256 l 1,53,-1
 768 256 l 1,54,-1
 768 128 l 1,55,-1
 640 128 l 1,52,-1
384 0 m 1,56,-1
 384 128 l 1,57,-1
 512 128 l 1,58,-1
 512 0 l 1,59,-1
 384 0 l 1,56,-1
512 0 m 1,60,-1
 512 128 l 1,61,-1
 640 128 l 1,62,-1
 640 0 l 1,63,-1
 512 0 l 1,60,-1
EndSplineSet
EndChar

StartChar: P
Encoding: 80 80 81
Width: 896
Flags: W
LayerCount: 2
Fore
SplineSet
128 896 m 1,0,-1
 128 1024 l 1,1,-1
 256 1024 l 1,2,-1
 256 896 l 1,3,-1
 128 896 l 1,0,-1
256 896 m 1,4,-1
 256 1024 l 1,5,-1
 384 1024 l 1,6,-1
 384 896 l 1,7,-1
 256 896 l 1,4,-1
384 896 m 1,8,-1
 384 1024 l 1,9,-1
 512 1024 l 1,10,-1
 512 896 l 1,11,-1
 384 896 l 1,8,-1
512 896 m 1,12,-1
 512 1024 l 1,13,-1
 640 1024 l 1,14,-1
 640 896 l 1,15,-1
 512 896 l 1,12,-1
128 768 m 1,16,-1
 128 896 l 1,17,-1
 256 896 l 1,18,-1
 256 768 l 1,19,-1
 128 768 l 1,16,-1
640 768 m 1,20,-1
 640 896 l 1,21,-1
 768 896 l 1,22,-1
 768 768 l 1,23,-1
 640 768 l 1,20,-1
128 640 m 1,24,-1
 128 768 l 1,25,-1
 256 768 l 1,26,-1
 256 640 l 1,27,-1
 128 640 l 1,24,-1
640 640 m 1,28,-1
 640 768 l 1,29,-1
 768 768 l 1,30,-1
 768 640 l 1,31,-1
 640 640 l 1,28,-1
128 512 m 1,32,-1
 128 640 l 1,33,-1
 256 640 l 1,34,-1
 256 512 l 1,35,-1
 128 512 l 1,32,-1
640 512 m 1,36,-1
 640 640 l 1,37,-1
 768 640 l 1,38,-1
 768 512 l 1,39,-1
 640 512 l 1,36,-1
128 384 m 1,40,-1
 128 512 l 1,41,-1
 256 512 l 1,42,-1
 256 384 l 1,43,-1
 128 384 l 1,40,-1
256 384 m 1,44,-1
 256 512 l 1,45,-1
 384 512 l 1,46,-1
 384 384 l 1,47,-1
 256 384 l 1,44,-1
384 384 m 1,48,-1
 384 512 l 1,49,-1
 512 512 l 1,50,-1
 512 384 l 1,51,-1
 384 384 l 1,48,-1
512 384 m 1,52,-1
 512 512 l 1,53,-1
 640 512 l 1,54,-1
 640 384 l 1,55,-1
 512 384 l 1,52,-1
128 256 m 1,56,-1
 128 384 l 1,57,-1
 256 384 l 1,58,-1
 256 256 l 1,59,-1
 128 256 l 1,56,-1
128 128 m 1,60,-1
 128 256 l 1,61,-1
 256 256 l 1,62,-1
 256 128 l 1,63,-1
 128 128 l 1,60,-1
128 0 m 1,64,-1
 128 128 l 1,65,-1
 256 128 l 1,66,-1
 256 0 l 1,67,-1
 128 0 l 1,64,-1
EndSplineSet
EndChar

StartChar: Q
Encoding: 81 81 82
Width: 896
Flags: W
LayerCount: 2
Fore
SplineSet
384 896 m 1,0,-1
 384 1024 l 1,1,-1
 512 1024 l 1,2,-1
 512 896 l 1,3,-1
 384 896 l 1,0,-1
512 896 m 1,4,-1
 512 1024 l 1,5,-1
 640 1024 l 1,6,-1
 640 896 l 1,7,-1
 512 896 l 1,4,-1
256 768 m 1,8,-1
 256 896 l 1,9,-1
 384 896 l 1,10,-1
 384 768 l 1,11,-1
 256 768 l 1,8,-1
640 768 m 1,12,-1
 640 896 l 1,13,-1
 768 896 l 1,14,-1
 768 768 l 1,15,-1
 640 768 l 1,12,-1
128 640 m 1,16,-1
 128 768 l 1,17,-1
 256 768 l 1,18,-1
 256 640 l 1,19,-1
 128 640 l 1,16,-1
768 640 m 1,20,-1
 768 768 l 1,21,-1
 896 768 l 1,22,-1
 896 640 l 1,23,-1
 768 640 l 1,20,-1
128 512 m 1,24,-1
 128 640 l 1,25,-1
 256 640 l 1,26,-1
 256 512 l 1,27,-1
 128 512 l 1,24,-1
768 512 m 1,28,-1
 768 640 l 1,29,-1
 896 640 l 1,30,-1
 896 512 l 1,31,-1
 768 512 l 1,28,-1
128 384 m 1,32,-1
 128 512 l 1,33,-1
 256 512 l 1,34,-1
 256 384 l 1,35,-1
 128 384 l 1,32,-1
768 384 m 1,36,-1
 768 512 l 1,37,-1
 896 512 l 1,38,-1
 896 384 l 1,39,-1
 768 384 l 1,36,-1
128 256 m 1,40,-1
 128 384 l 1,41,-1
 256 384 l 1,42,-1
 256 256 l 1,43,-1
 128 256 l 1,40,-1
768 256 m 1,44,-1
 768 384 l 1,45,-1
 896 384 l 1,46,-1
 896 256 l 1,47,-1
 768 256 l 1,44,-1
256 128 m 1,48,-1
 256 256 l 1,49,-1
 384 256 l 1,50,-1
 384 128 l 1,51,-1
 256 128 l 1,48,-1
640 128 m 1,52,-1
 640 256 l 1,53,-1
 768 256 l 1,54,-1
 768 128 l 1,55,-1
 640 128 l 1,52,-1
384 0 m 1,56,-1
 384 128 l 1,57,-1
 512 128 l 1,58,-1
 512 0 l 1,59,-1
 384 0 l 1,56,-1
512 0 m 1,60,-1
 512 128 l 1,61,-1
 640 128 l 1,62,-1
 640 0 l 1,63,-1
 512 0 l 1,60,-1
768 0 m 1,64,-1
 768 128 l 1,65,-1
 896 128 l 1,66,-1
 896 0 l 1,67,-1
 768 0 l 1,64,-1
768 -128 m 1,68,-1
 768 0 l 1,69,-1
 896 0 l 1,70,-1
 896 -128 l 1,71,-1
 768 -128 l 1,68,-1
EndSplineSet
EndChar

StartChar: R
Encoding: 82 82 83
Width: 896
Flags: W
LayerCount: 2
Fore
SplineSet
128 896 m 1,0,-1
 128 1024 l 1,1,-1
 256 1024 l 1,2,-1
 256 896 l 1,3,-1
 128 896 l 1,0,-1
256 896 m 1,4,-1
 256 1024 l 1,5,-1
 384 1024 l 1,6,-1
 384 896 l 1,7,-1
 256 896 l 1,4,-1
384 896 m 1,8,-1
 384 1024 l 1,9,-1
 512 1024 l 1,10,-1
 512 896 l 1,11,-1
 384 896 l 1,8,-1
512 896 m 1,12,-1
 512 1024 l 1,13,-1
 640 1024 l 1,14,-1
 640 896 l 1,15,-1
 512 896 l 1,12,-1
128 768 m 1,16,-1
 128 896 l 1,17,-1
 256 896 l 1,18,-1
 256 768 l 1,19,-1
 128 768 l 1,16,-1
640 768 m 1,20,-1
 640 896 l 1,21,-1
 768 896 l 1,22,-1
 768 768 l 1,23,-1
 640 768 l 1,20,-1
128 640 m 1,24,-1
 128 768 l 1,25,-1
 256 768 l 1,26,-1
 256 640 l 1,27,-1
 128 640 l 1,24,-1
640 640 m 1,28,-1
 640 768 l 1,29,-1
 768 768 l 1,30,-1
 768 640 l 1,31,-1
 640 640 l 1,28,-1
128 512 m 1,32,-1
 128 640 l 1,33,-1
 256 640 l 1,34,-1
 256 512 l 1,35,-1
 128 512 l 1,32,-1
640 512 m 1,36,-1
 640 640 l 1,37,-1
 768 640 l 1,38,-1
 768 512 l 1,39,-1
 640 512 l 1,36,-1
128 384 m 1,40,-1
 128 512 l 1,41,-1
 256 512 l 1,42,-1
 256 384 l 1,43,-1
 128 384 l 1,40,-1
256 384 m 1,44,-1
 256 512 l 1,45,-1
 384 512 l 1,46,-1
 384 384 l 1,47,-1
 256 384 l 1,44,-1
384 384 m 1,48,-1
 384 512 l 1,49,-1
 512 512 l 1,50,-1
 512 384 l 1,51,-1
 384 384 l 1,48,-1
512 384 m 1,52,-1
 512 512 l 1,53,-1
 640 512 l 1,54,-1
 640 384 l 1,55,-1
 512 384 l 1,52,-1
128 256 m 1,56,-1
 128 384 l 1,57,-1
 256 384 l 1,58,-1
 256 256 l 1,59,-1
 128 256 l 1,56,-1
512 256 m 1,60,-1
 512 384 l 1,61,-1
 640 384 l 1,62,-1
 640 256 l 1,63,-1
 512 256 l 1,60,-1
128 128 m 1,64,-1
 128 256 l 1,65,-1
 256 256 l 1,66,-1
 256 128 l 1,67,-1
 128 128 l 1,64,-1
640 128 m 1,68,-1
 640 256 l 1,69,-1
 768 256 l 1,70,-1
 768 128 l 1,71,-1
 640 128 l 1,68,-1
128 0 m 1,72,-1
 128 128 l 1,73,-1
 256 128 l 1,74,-1
 256 0 l 1,75,-1
 128 0 l 1,72,-1
768 0 m 1,76,-1
 768 128 l 1,77,-1
 896 128 l 1,78,-1
 896 0 l 1,79,-1
 768 0 l 1,76,-1
EndSplineSet
EndChar

StartChar: S
Encoding: 83 83 84
Width: 896
Flags: W
LayerCount: 2
Fore
SplineSet
256 896 m 1,0,-1
 256 1024 l 1,1,-1
 384 1024 l 1,2,-1
 384 896 l 1,3,-1
 256 896 l 1,0,-1
384 896 m 1,4,-1
 384 1024 l 1,5,-1
 512 1024 l 1,6,-1
 512 896 l 1,7,-1
 384 896 l 1,4,-1
512 896 m 1,8,-1
 512 1024 l 1,9,-1
 640 1024 l 1,10,-1
 640 896 l 1,11,-1
 512 896 l 1,8,-1
640 896 m 1,12,-1
 640 1024 l 1,13,-1
 768 1024 l 1,14,-1
 768 896 l 1,15,-1
 640 896 l 1,12,-1
128 768 m 1,16,-1
 128 896 l 1,17,-1
 256 896 l 1,18,-1
 256 768 l 1,19,-1
 128 768 l 1,16,-1
768 768 m 1,20,-1
 768 896 l 1,21,-1
 896 896 l 1,22,-1
 896 768 l 1,23,-1
 768 768 l 1,20,-1
128 640 m 1,24,-1
 128 768 l 1,25,-1
 256 768 l 1,26,-1
 256 640 l 1,27,-1
 128 640 l 1,24,-1
256 512 m 1,28,-1
 256 640 l 1,29,-1
 384 640 l 1,30,-1
 384 512 l 1,31,-1
 256 512 l 1,28,-1
384 512 m 1,32,-1
 384 640 l 1,33,-1
 512 640 l 1,34,-1
 512 512 l 1,35,-1
 384 512 l 1,32,-1
512 384 m 1,36,-1
 512 512 l 1,37,-1
 640 512 l 1,38,-1
 640 384 l 1,39,-1
 512 384 l 1,36,-1
640 384 m 1,40,-1
 640 512 l 1,41,-1
 768 512 l 1,42,-1
 768 384 l 1,43,-1
 640 384 l 1,40,-1
768 256 m 1,44,-1
 768 384 l 1,45,-1
 896 384 l 1,46,-1
 896 256 l 1,47,-1
 768 256 l 1,44,-1
128 128 m 1,48,-1
 128 256 l 1,49,-1
 256 256 l 1,50,-1
 256 128 l 1,51,-1
 128 128 l 1,48,-1
768 128 m 1,52,-1
 768 256 l 1,53,-1
 896 256 l 1,54,-1
 896 128 l 1,55,-1
 768 128 l 1,52,-1
256 0 m 1,56,-1
 256 128 l 1,57,-1
 384 128 l 1,58,-1
 384 0 l 1,59,-1
 256 0 l 1,56,-1
384 0 m 1,60,-1
 384 128 l 1,61,-1
 512 128 l 1,62,-1
 512 0 l 1,63,-1
 384 0 l 1,60,-1
512 0 m 1,64,-1
 512 128 l 1,65,-1
 640 128 l 1,66,-1
 640 0 l 1,67,-1
 512 0 l 1,64,-1
640 0 m 1,68,-1
 640 128 l 1,69,-1
 768 128 l 1,70,-1
 768 0 l 1,71,-1
 640 0 l 1,68,-1
EndSplineSet
EndChar

StartChar: T
Encoding: 84 84 85
Width: 896
Flags: W
LayerCount: 2
Fore
SplineSet
0 896 m 1,0,-1
 0 1024 l 1,1,-1
 128 1024 l 1,2,-1
 128 896 l 1,3,-1
 0 896 l 1,0,-1
128 896 m 1,4,-1
 128 1024 l 1,5,-1
 256 1024 l 1,6,-1
 256 896 l 1,7,-1
 128 896 l 1,4,-1
256 896 m 1,8,-1
 256 1024 l 1,9,-1
 384 1024 l 1,10,-1
 384 896 l 1,11,-1
 256 896 l 1,8,-1
384 896 m 1,12,-1
 384 1024 l 1,13,-1
 512 1024 l 1,14,-1
 512 896 l 1,15,-1
 384 896 l 1,12,-1
512 896 m 1,16,-1
 512 1024 l 1,17,-1
 640 1024 l 1,18,-1
 640 896 l 1,19,-1
 512 896 l 1,16,-1
640 896 m 1,20,-1
 640 1024 l 1,21,-1
 768 1024 l 1,22,-1
 768 896 l 1,23,-1
 640 896 l 1,20,-1
768 896 m 1,24,-1
 768 1024 l 1,25,-1
 896 1024 l 1,26,-1
 896 896 l 1,27,-1
 768 896 l 1,24,-1
384 768 m 1,28,-1
 384 896 l 1,29,-1
 512 896 l 1,30,-1
 512 768 l 1,31,-1
 384 768 l 1,28,-1
384 640 m 1,32,-1
 384 768 l 1,33,-1
 512 768 l 1,34,-1
 512 640 l 1,35,-1
 384 640 l 1,32,-1
384 512 m 1,36,-1
 384 640 l 1,37,-1
 512 640 l 1,38,-1
 512 512 l 1,39,-1
 384 512 l 1,36,-1
384 384 m 1,40,-1
 384 512 l 1,41,-1
 512 512 l 1,42,-1
 512 384 l 1,43,-1
 384 384 l 1,40,-1
384 256 m 1,44,-1
 384 384 l 1,45,-1
 512 384 l 1,46,-1
 512 256 l 1,47,-1
 384 256 l 1,44,-1
384 128 m 1,48,-1
 384 256 l 1,49,-1
 512 256 l 1,50,-1
 512 128 l 1,51,-1
 384 128 l 1,48,-1
384 0 m 1,52,-1
 384 128 l 1,53,-1
 512 128 l 1,54,-1
 512 0 l 1,55,-1
 384 0 l 1,52,-1
EndSplineSet
EndChar

StartChar: U
Encoding: 85 85 86
Width: 896
Flags: W
LayerCount: 2
Fore
SplineSet
128 896 m 1,0,-1
 128 1024 l 1,1,-1
 256 1024 l 1,2,-1
 256 896 l 1,3,-1
 128 896 l 1,0,-1
768 896 m 1,4,-1
 768 1024 l 1,5,-1
 896 1024 l 1,6,-1
 896 896 l 1,7,-1
 768 896 l 1,4,-1
128 768 m 1,8,-1
 128 896 l 1,9,-1
 256 896 l 1,10,-1
 256 768 l 1,11,-1
 128 768 l 1,8,-1
768 768 m 1,12,-1
 768 896 l 1,13,-1
 896 896 l 1,14,-1
 896 768 l 1,15,-1
 768 768 l 1,12,-1
128 640 m 1,16,-1
 128 768 l 1,17,-1
 256 768 l 1,18,-1
 256 640 l 1,19,-1
 128 640 l 1,16,-1
768 640 m 1,20,-1
 768 768 l 1,21,-1
 896 768 l 1,22,-1
 896 640 l 1,23,-1
 768 640 l 1,20,-1
128 512 m 1,24,-1
 128 640 l 1,25,-1
 256 640 l 1,26,-1
 256 512 l 1,27,-1
 128 512 l 1,24,-1
768 512 m 1,28,-1
 768 640 l 1,29,-1
 896 640 l 1,30,-1
 896 512 l 1,31,-1
 768 512 l 1,28,-1
128 384 m 1,32,-1
 128 512 l 1,33,-1
 256 512 l 1,34,-1
 256 384 l 1,35,-1
 128 384 l 1,32,-1
768 384 m 1,36,-1
 768 512 l 1,37,-1
 896 512 l 1,38,-1
 896 384 l 1,39,-1
 768 384 l 1,36,-1
128 256 m 1,40,-1
 128 384 l 1,41,-1
 256 384 l 1,42,-1
 256 256 l 1,43,-1
 128 256 l 1,40,-1
768 256 m 1,44,-1
 768 384 l 1,45,-1
 896 384 l 1,46,-1
 896 256 l 1,47,-1
 768 256 l 1,44,-1
128 128 m 1,48,-1
 128 256 l 1,49,-1
 256 256 l 1,50,-1
 256 128 l 1,51,-1
 128 128 l 1,48,-1
768 128 m 1,52,-1
 768 256 l 1,53,-1
 896 256 l 1,54,-1
 896 128 l 1,55,-1
 768 128 l 1,52,-1
256 0 m 1,56,-1
 256 128 l 1,57,-1
 384 128 l 1,58,-1
 384 0 l 1,59,-1
 256 0 l 1,56,-1
384 0 m 1,60,-1
 384 128 l 1,61,-1
 512 128 l 1,62,-1
 512 0 l 1,63,-1
 384 0 l 1,60,-1
512 0 m 1,64,-1
 512 128 l 1,65,-1
 640 128 l 1,66,-1
 640 0 l 1,67,-1
 512 0 l 1,64,-1
640 0 m 1,68,-1
 640 128 l 1,69,-1
 768 128 l 1,70,-1
 768 0 l 1,71,-1
 640 0 l 1,68,-1
EndSplineSet
EndChar

StartChar: V
Encoding: 86 86 87
Width: 896
Flags: W
LayerCount: 2
Fore
SplineSet
0 896 m 1,0,-1
 0 1024 l 1,1,-1
 128 1024 l 1,2,-1
 128 896 l 1,3,-1
 0 896 l 1,0,-1
768 896 m 1,4,-1
 768 1024 l 1,5,-1
 896 1024 l 1,6,-1
 896 896 l 1,7,-1
 768 896 l 1,4,-1
0 768 m 1,8,-1
 0 896 l 1,9,-1
 128 896 l 1,10,-1
 128 768 l 1,11,-1
 0 768 l 1,8,-1
768 768 m 1,12,-1
 768 896 l 1,13,-1
 896 896 l 1,14,-1
 896 768 l 1,15,-1
 768 768 l 1,12,-1
128 640 m 1,16,-1
 128 768 l 1,17,-1
 256 768 l 1,18,-1
 256 640 l 1,19,-1
 128 640 l 1,16,-1
640 640 m 1,20,-1
 640 768 l 1,21,-1
 768 768 l 1,22,-1
 768 640 l 1,23,-1
 640 640 l 1,20,-1
128 512 m 1,24,-1
 128 640 l 1,25,-1
 256 640 l 1,26,-1
 256 512 l 1,27,-1
 128 512 l 1,24,-1
640 512 m 1,28,-1
 640 640 l 1,29,-1
 768 640 l 1,30,-1
 768 512 l 1,31,-1
 640 512 l 1,28,-1
256 384 m 1,32,-1
 256 512 l 1,33,-1
 384 512 l 1,34,-1
 384 384 l 1,35,-1
 256 384 l 1,32,-1
512 384 m 1,36,-1
 512 512 l 1,37,-1
 640 512 l 1,38,-1
 640 384 l 1,39,-1
 512 384 l 1,36,-1
256 256 m 1,40,-1
 256 384 l 1,41,-1
 384 384 l 1,42,-1
 384 256 l 1,43,-1
 256 256 l 1,40,-1
512 256 m 1,44,-1
 512 384 l 1,45,-1
 640 384 l 1,46,-1
 640 256 l 1,47,-1
 512 256 l 1,44,-1
384 128 m 1,48,-1
 384 256 l 1,49,-1
 512 256 l 1,50,-1
 512 128 l 1,51,-1
 384 128 l 1,48,-1
384 0 m 1,52,-1
 384 128 l 1,53,-1
 512 128 l 1,54,-1
 512 0 l 1,55,-1
 384 0 l 1,52,-1
EndSplineSet
EndChar

StartChar: W
Encoding: 87 87 88
Width: 896
Flags: W
LayerCount: 2
Fore
SplineSet
0 896 m 1,0,-1
 0 1024 l 1,1,-1
 128 1024 l 1,2,-1
 128 896 l 1,3,-1
 0 896 l 1,0,-1
768 896 m 1,4,-1
 768 1024 l 1,5,-1
 896 1024 l 1,6,-1
 896 896 l 1,7,-1
 768 896 l 1,4,-1
0 768 m 1,8,-1
 0 896 l 1,9,-1
 128 896 l 1,10,-1
 128 768 l 1,11,-1
 0 768 l 1,8,-1
384 768 m 1,12,-1
 384 896 l 1,13,-1
 512 896 l 1,14,-1
 512 768 l 1,15,-1
 384 768 l 1,12,-1
768 768 m 1,16,-1
 768 896 l 1,17,-1
 896 896 l 1,18,-1
 896 768 l 1,19,-1
 768 768 l 1,16,-1
0 640 m 1,20,-1
 0 768 l 1,21,-1
 128 768 l 1,22,-1
 128 640 l 1,23,-1
 0 640 l 1,20,-1
384 640 m 1,24,-1
 384 768 l 1,25,-1
 512 768 l 1,26,-1
 512 640 l 1,27,-1
 384 640 l 1,24,-1
768 640 m 1,28,-1
 768 768 l 1,29,-1
 896 768 l 1,30,-1
 896 640 l 1,31,-1
 768 640 l 1,28,-1
0 512 m 1,32,-1
 0 640 l 1,33,-1
 128 640 l 1,34,-1
 128 512 l 1,35,-1
 0 512 l 1,32,-1
256 512 m 1,36,-1
 256 640 l 1,37,-1
 384 640 l 1,38,-1
 384 512 l 1,39,-1
 256 512 l 1,36,-1
512 512 m 1,40,-1
 512 640 l 1,41,-1
 640 640 l 1,42,-1
 640 512 l 1,43,-1
 512 512 l 1,40,-1
768 512 m 1,44,-1
 768 640 l 1,45,-1
 896 640 l 1,46,-1
 896 512 l 1,47,-1
 768 512 l 1,44,-1
0 384 m 1,48,-1
 0 512 l 1,49,-1
 128 512 l 1,50,-1
 128 384 l 1,51,-1
 0 384 l 1,48,-1
256 384 m 1,52,-1
 256 512 l 1,53,-1
 384 512 l 1,54,-1
 384 384 l 1,55,-1
 256 384 l 1,52,-1
512 384 m 1,56,-1
 512 512 l 1,57,-1
 640 512 l 1,58,-1
 640 384 l 1,59,-1
 512 384 l 1,56,-1
768 384 m 1,60,-1
 768 512 l 1,61,-1
 896 512 l 1,62,-1
 896 384 l 1,63,-1
 768 384 l 1,60,-1
128 256 m 1,64,-1
 128 384 l 1,65,-1
 256 384 l 1,66,-1
 256 256 l 1,67,-1
 128 256 l 1,64,-1
256 256 m 1,68,-1
 256 384 l 1,69,-1
 384 384 l 1,70,-1
 384 256 l 1,71,-1
 256 256 l 1,68,-1
512 256 m 1,72,-1
 512 384 l 1,73,-1
 640 384 l 1,74,-1
 640 256 l 1,75,-1
 512 256 l 1,72,-1
640 256 m 1,76,-1
 640 384 l 1,77,-1
 768 384 l 1,78,-1
 768 256 l 1,79,-1
 640 256 l 1,76,-1
128 128 m 1,80,-1
 128 256 l 1,81,-1
 256 256 l 1,82,-1
 256 128 l 1,83,-1
 128 128 l 1,80,-1
640 128 m 1,84,-1
 640 256 l 1,85,-1
 768 256 l 1,86,-1
 768 128 l 1,87,-1
 640 128 l 1,84,-1
128 0 m 1,88,-1
 128 128 l 1,89,-1
 256 128 l 1,90,-1
 256 0 l 1,91,-1
 128 0 l 1,88,-1
640 0 m 1,92,-1
 640 128 l 1,93,-1
 768 128 l 1,94,-1
 768 0 l 1,95,-1
 640 0 l 1,92,-1
EndSplineSet
EndChar

StartChar: X
Encoding: 88 88 89
Width: 896
Flags: W
LayerCount: 2
Fore
SplineSet
128 896 m 1,0,-1
 128 1024 l 1,1,-1
 256 1024 l 1,2,-1
 256 896 l 1,3,-1
 128 896 l 1,0,-1
768 896 m 1,4,-1
 768 1024 l 1,5,-1
 896 1024 l 1,6,-1
 896 896 l 1,7,-1
 768 896 l 1,4,-1
128 768 m 1,8,-1
 128 896 l 1,9,-1
 256 896 l 1,10,-1
 256 768 l 1,11,-1
 128 768 l 1,8,-1
768 768 m 1,12,-1
 768 896 l 1,13,-1
 896 896 l 1,14,-1
 896 768 l 1,15,-1
 768 768 l 1,12,-1
256 640 m 1,16,-1
 256 768 l 1,17,-1
 384 768 l 1,18,-1
 384 640 l 1,19,-1
 256 640 l 1,16,-1
640 640 m 1,20,-1
 640 768 l 1,21,-1
 768 768 l 1,22,-1
 768 640 l 1,23,-1
 640 640 l 1,20,-1
384 512 m 1,24,-1
 384 640 l 1,25,-1
 512 640 l 1,26,-1
 512 512 l 1,27,-1
 384 512 l 1,24,-1
512 512 m 1,28,-1
 512 640 l 1,29,-1
 640 640 l 1,30,-1
 640 512 l 1,31,-1
 512 512 l 1,28,-1
384 384 m 1,32,-1
 384 512 l 1,33,-1
 512 512 l 1,34,-1
 512 384 l 1,35,-1
 384 384 l 1,32,-1
512 384 m 1,36,-1
 512 512 l 1,37,-1
 640 512 l 1,38,-1
 640 384 l 1,39,-1
 512 384 l 1,36,-1
256 256 m 1,40,-1
 256 384 l 1,41,-1
 384 384 l 1,42,-1
 384 256 l 1,43,-1
 256 256 l 1,40,-1
640 256 m 1,44,-1
 640 384 l 1,45,-1
 768 384 l 1,46,-1
 768 256 l 1,47,-1
 640 256 l 1,44,-1
128 128 m 1,48,-1
 128 256 l 1,49,-1
 256 256 l 1,50,-1
 256 128 l 1,51,-1
 128 128 l 1,48,-1
768 128 m 1,52,-1
 768 256 l 1,53,-1
 896 256 l 1,54,-1
 896 128 l 1,55,-1
 768 128 l 1,52,-1
128 0 m 1,56,-1
 128 128 l 1,57,-1
 256 128 l 1,58,-1
 256 0 l 1,59,-1
 128 0 l 1,56,-1
768 0 m 1,60,-1
 768 128 l 1,61,-1
 896 128 l 1,62,-1
 896 0 l 1,63,-1
 768 0 l 1,60,-1
EndSplineSet
EndChar

StartChar: Y
Encoding: 89 89 90
Width: 896
Flags: W
LayerCount: 2
Fore
SplineSet
0 896 m 1,0,-1
 0 1024 l 1,1,-1
 128 1024 l 1,2,-1
 128 896 l 1,3,-1
 0 896 l 1,0,-1
768 896 m 1,4,-1
 768 1024 l 1,5,-1
 896 1024 l 1,6,-1
 896 896 l 1,7,-1
 768 896 l 1,4,-1
0 768 m 1,8,-1
 0 896 l 1,9,-1
 128 896 l 1,10,-1
 128 768 l 1,11,-1
 0 768 l 1,8,-1
768 768 m 1,12,-1
 768 896 l 1,13,-1
 896 896 l 1,14,-1
 896 768 l 1,15,-1
 768 768 l 1,12,-1
128 640 m 1,16,-1
 128 768 l 1,17,-1
 256 768 l 1,18,-1
 256 640 l 1,19,-1
 128 640 l 1,16,-1
640 640 m 1,20,-1
 640 768 l 1,21,-1
 768 768 l 1,22,-1
 768 640 l 1,23,-1
 640 640 l 1,20,-1
256 512 m 1,24,-1
 256 640 l 1,25,-1
 384 640 l 1,26,-1
 384 512 l 1,27,-1
 256 512 l 1,24,-1
512 512 m 1,28,-1
 512 640 l 1,29,-1
 640 640 l 1,30,-1
 640 512 l 1,31,-1
 512 512 l 1,28,-1
384 384 m 1,32,-1
 384 512 l 1,33,-1
 512 512 l 1,34,-1
 512 384 l 1,35,-1
 384 384 l 1,32,-1
384 256 m 1,36,-1
 384 384 l 1,37,-1
 512 384 l 1,38,-1
 512 256 l 1,39,-1
 384 256 l 1,36,-1
384 128 m 1,40,-1
 384 256 l 1,41,-1
 512 256 l 1,42,-1
 512 128 l 1,43,-1
 384 128 l 1,40,-1
384 0 m 1,44,-1
 384 128 l 1,45,-1
 512 128 l 1,46,-1
 512 0 l 1,47,-1
 384 0 l 1,44,-1
EndSplineSet
EndChar

StartChar: Z
Encoding: 90 90 91
Width: 896
Flags: W
LayerCount: 2
Fore
SplineSet
128 896 m 1,0,-1
 128 1024 l 1,1,-1
 256 1024 l 1,2,-1
 256 896 l 1,3,-1
 128 896 l 1,0,-1
256 896 m 1,4,-1
 256 1024 l 1,5,-1
 384 1024 l 1,6,-1
 384 896 l 1,7,-1
 256 896 l 1,4,-1
384 896 m 1,8,-1
 384 1024 l 1,9,-1
 512 1024 l 1,10,-1
 512 896 l 1,11,-1
 384 896 l 1,8,-1
512 896 m 1,12,-1
 512 1024 l 1,13,-1
 640 1024 l 1,14,-1
 640 896 l 1,15,-1
 512 896 l 1,12,-1
640 896 m 1,16,-1
 640 1024 l 1,17,-1
 768 1024 l 1,18,-1
 768 896 l 1,19,-1
 640 896 l 1,16,-1
768 896 m 1,20,-1
 768 1024 l 1,21,-1
 896 1024 l 1,22,-1
 896 896 l 1,23,-1
 768 896 l 1,20,-1
768 768 m 1,24,-1
 768 896 l 1,25,-1
 896 896 l 1,26,-1
 896 768 l 1,27,-1
 768 768 l 1,24,-1
640 640 m 1,28,-1
 640 768 l 1,29,-1
 768 768 l 1,30,-1
 768 640 l 1,31,-1
 640 640 l 1,28,-1
512 512 m 1,32,-1
 512 640 l 1,33,-1
 640 640 l 1,34,-1
 640 512 l 1,35,-1
 512 512 l 1,32,-1
384 384 m 1,36,-1
 384 512 l 1,37,-1
 512 512 l 1,38,-1
 512 384 l 1,39,-1
 384 384 l 1,36,-1
256 256 m 1,40,-1
 256 384 l 1,41,-1
 384 384 l 1,42,-1
 384 256 l 1,43,-1
 256 256 l 1,40,-1
128 128 m 1,44,-1
 128 256 l 1,45,-1
 256 256 l 1,46,-1
 256 128 l 1,47,-1
 128 128 l 1,44,-1
128 0 m 1,48,-1
 128 128 l 1,49,-1
 256 128 l 1,50,-1
 256 0 l 1,51,-1
 128 0 l 1,48,-1
256 0 m 1,52,-1
 256 128 l 1,53,-1
 384 128 l 1,54,-1
 384 0 l 1,55,-1
 256 0 l 1,52,-1
384 0 m 1,56,-1
 384 128 l 1,57,-1
 512 128 l 1,58,-1
 512 0 l 1,59,-1
 384 0 l 1,56,-1
512 0 m 1,60,-1
 512 128 l 1,61,-1
 640 128 l 1,62,-1
 640 0 l 1,63,-1
 512 0 l 1,60,-1
640 0 m 1,64,-1
 640 128 l 1,65,-1
 768 128 l 1,66,-1
 768 0 l 1,67,-1
 640 0 l 1,64,-1
768 0 m 1,68,-1
 768 128 l 1,69,-1
 896 128 l 1,70,-1
 896 0 l 1,71,-1
 768 0 l 1,68,-1
EndSplineSet
EndChar

StartChar: bracketleft
Encoding: 91 91 92
Width: 896
Flags: W
LayerCount: 2
Fore
SplineSet
256 1024 m 1,0,-1
 256 1152 l 1,1,-1
 384 1152 l 1,2,-1
 384 1024 l 1,3,-1
 256 1024 l 1,0,-1
384 1024 m 1,4,-1
 384 1152 l 1,5,-1
 512 1152 l 1,6,-1
 512 1024 l 1,7,-1
 384 1024 l 1,4,-1
512 1024 m 1,8,-1
 512 1152 l 1,9,-1
 640 1152 l 1,10,-1
 640 1024 l 1,11,-1
 512 1024 l 1,8,-1
256 896 m 1,12,-1
 256 1024 l 1,13,-1
 384 1024 l 1,14,-1
 384 896 l 1,15,-1
 256 896 l 1,12,-1
256 768 m 1,16,-1
 256 896 l 1,17,-1
 384 896 l 1,18,-1
 384 768 l 1,19,-1
 256 768 l 1,16,-1
256 640 m 1,20,-1
 256 768 l 1,21,-1
 384 768 l 1,22,-1
 384 640 l 1,23,-1
 256 640 l 1,20,-1
256 512 m 1,24,-1
 256 640 l 1,25,-1
 384 640 l 1,26,-1
 384 512 l 1,27,-1
 256 512 l 1,24,-1
256 384 m 1,28,-1
 256 512 l 1,29,-1
 384 512 l 1,30,-1
 384 384 l 1,31,-1
 256 384 l 1,28,-1
256 256 m 1,32,-1
 256 384 l 1,33,-1
 384 384 l 1,34,-1
 384 256 l 1,35,-1
 256 256 l 1,32,-1
256 128 m 1,36,-1
 256 256 l 1,37,-1
 384 256 l 1,38,-1
 384 128 l 1,39,-1
 256 128 l 1,36,-1
256 0 m 1,40,-1
 256 128 l 1,41,-1
 384 128 l 1,42,-1
 384 0 l 1,43,-1
 256 0 l 1,40,-1
256 -128 m 1,44,-1
 256 0 l 1,45,-1
 384 0 l 1,46,-1
 384 -128 l 1,47,-1
 256 -128 l 1,44,-1
256 -256 m 1,48,-1
 256 -128 l 1,49,-1
 384 -128 l 1,50,-1
 384 -256 l 1,51,-1
 256 -256 l 1,48,-1
384 -256 m 1,52,-1
 384 -128 l 1,53,-1
 512 -128 l 1,54,-1
 512 -256 l 1,55,-1
 384 -256 l 1,52,-1
512 -256 m 1,56,-1
 512 -128 l 1,57,-1
 640 -128 l 1,58,-1
 640 -256 l 1,59,-1
 512 -256 l 1,56,-1
EndSplineSet
EndChar

StartChar: backslash
Encoding: 92 92 93
Width: 896
Flags: W
LayerCount: 2
Fore
SplineSet
128 1024 m 1,0,-1
 128 1152 l 1,1,-1
 256 1152 l 1,2,-1
 256 1024 l 1,3,-1
 128 1024 l 1,0,-1
128 896 m 1,4,-1
 128 1024 l 1,5,-1
 256 1024 l 1,6,-1
 256 896 l 1,7,-1
 128 896 l 1,4,-1
256 768 m 1,8,-1
 256 896 l 1,9,-1
 384 896 l 1,10,-1
 384 768 l 1,11,-1
 256 768 l 1,8,-1
256 640 m 1,12,-1
 256 768 l 1,13,-1
 384 768 l 1,14,-1
 384 640 l 1,15,-1
 256 640 l 1,12,-1
384 512 m 1,16,-1
 384 640 l 1,17,-1
 512 640 l 1,18,-1
 512 512 l 1,19,-1
 384 512 l 1,16,-1
384 384 m 1,20,-1
 384 512 l 1,21,-1
 512 512 l 1,22,-1
 512 384 l 1,23,-1
 384 384 l 1,20,-1
512 256 m 1,24,-1
 512 384 l 1,25,-1
 640 384 l 1,26,-1
 640 256 l 1,27,-1
 512 256 l 1,24,-1
512 128 m 1,28,-1
 512 256 l 1,29,-1
 640 256 l 1,30,-1
 640 128 l 1,31,-1
 512 128 l 1,28,-1
640 0 m 1,32,-1
 640 128 l 1,33,-1
 768 128 l 1,34,-1
 768 0 l 1,35,-1
 640 0 l 1,32,-1
640 -128 m 1,36,-1
 640 0 l 1,37,-1
 768 0 l 1,38,-1
 768 -128 l 1,39,-1
 640 -128 l 1,36,-1
EndSplineSet
EndChar

StartChar: bracketright
Encoding: 93 93 94
Width: 896
Flags: W
LayerCount: 2
Fore
SplineSet
256 1024 m 1,0,-1
 256 1152 l 1,1,-1
 384 1152 l 1,2,-1
 384 1024 l 1,3,-1
 256 1024 l 1,0,-1
384 1024 m 1,4,-1
 384 1152 l 1,5,-1
 512 1152 l 1,6,-1
 512 1024 l 1,7,-1
 384 1024 l 1,4,-1
512 1024 m 1,8,-1
 512 1152 l 1,9,-1
 640 1152 l 1,10,-1
 640 1024 l 1,11,-1
 512 1024 l 1,8,-1
512 896 m 1,12,-1
 512 1024 l 1,13,-1
 640 1024 l 1,14,-1
 640 896 l 1,15,-1
 512 896 l 1,12,-1
512 768 m 1,16,-1
 512 896 l 1,17,-1
 640 896 l 1,18,-1
 640 768 l 1,19,-1
 512 768 l 1,16,-1
512 640 m 1,20,-1
 512 768 l 1,21,-1
 640 768 l 1,22,-1
 640 640 l 1,23,-1
 512 640 l 1,20,-1
512 512 m 1,24,-1
 512 640 l 1,25,-1
 640 640 l 1,26,-1
 640 512 l 1,27,-1
 512 512 l 1,24,-1
512 384 m 1,28,-1
 512 512 l 1,29,-1
 640 512 l 1,30,-1
 640 384 l 1,31,-1
 512 384 l 1,28,-1
512 256 m 1,32,-1
 512 384 l 1,33,-1
 640 384 l 1,34,-1
 640 256 l 1,35,-1
 512 256 l 1,32,-1
512 128 m 1,36,-1
 512 256 l 1,37,-1
 640 256 l 1,38,-1
 640 128 l 1,39,-1
 512 128 l 1,36,-1
512 0 m 1,40,-1
 512 128 l 1,41,-1
 640 128 l 1,42,-1
 640 0 l 1,43,-1
 512 0 l 1,40,-1
512 -128 m 1,44,-1
 512 0 l 1,45,-1
 640 0 l 1,46,-1
 640 -128 l 1,47,-1
 512 -128 l 1,44,-1
256 -256 m 1,48,-1
 256 -128 l 1,49,-1
 384 -128 l 1,50,-1
 384 -256 l 1,51,-1
 256 -256 l 1,48,-1
384 -256 m 1,52,-1
 384 -128 l 1,53,-1
 512 -128 l 1,54,-1
 512 -256 l 1,55,-1
 384 -256 l 1,52,-1
512 -256 m 1,56,-1
 512 -128 l 1,57,-1
 640 -128 l 1,58,-1
 640 -256 l 1,59,-1
 512 -256 l 1,56,-1
EndSplineSet
EndChar

StartChar: asciicircum
Encoding: 94 94 95
Width: 896
Flags: W
LayerCount: 2
Fore
SplineSet
384 1024 m 1,0,-1
 384 1152 l 1,1,-1
 512 1152 l 1,2,-1
 512 1024 l 1,3,-1
 384 1024 l 1,0,-1
384 896 m 1,4,-1
 384 1024 l 1,5,-1
 512 1024 l 1,6,-1
 512 896 l 1,7,-1
 384 896 l 1,4,-1
256 768 m 1,8,-1
 256 896 l 1,9,-1
 384 896 l 1,10,-1
 384 768 l 1,11,-1
 256 768 l 1,8,-1
512 768 m 1,12,-1
 512 896 l 1,13,-1
 640 896 l 1,14,-1
 640 768 l 1,15,-1
 512 768 l 1,12,-1
256 640 m 1,16,-1
 256 768 l 1,17,-1
 384 768 l 1,18,-1
 384 640 l 1,19,-1
 256 640 l 1,16,-1
512 640 m 1,20,-1
 512 768 l 1,21,-1
 640 768 l 1,22,-1
 640 640 l 1,23,-1
 512 640 l 1,20,-1
128 512 m 1,24,-1
 128 640 l 1,25,-1
 256 640 l 1,26,-1
 256 512 l 1,27,-1
 128 512 l 1,24,-1
640 512 m 1,28,-1
 640 640 l 1,29,-1
 768 640 l 1,30,-1
 768 512 l 1,31,-1
 640 512 l 1,28,-1
128 384 m 1,32,-1
 128 512 l 1,33,-1
 256 512 l 1,34,-1
 256 384 l 1,35,-1
 128 384 l 1,32,-1
640 384 m 1,36,-1
 640 512 l 1,37,-1
 768 512 l 1,38,-1
 768 384 l 1,39,-1
 640 384 l 1,36,-1
EndSplineSet
EndChar

StartChar: underscore
Encoding: 95 95 96
Width: 896
Flags: W
LayerCount: 2
Fore
SplineSet
0 -128 m 1,0,-1
 0 0 l 1,1,-1
 128 0 l 1,2,-1
 128 -128 l 1,3,-1
 0 -128 l 1,0,-1
128 -128 m 1,4,-1
 128 0 l 1,5,-1
 256 0 l 1,6,-1
 256 -128 l 1,7,-1
 128 -128 l 1,4,-1
256 -128 m 1,8,-1
 256 0 l 1,9,-1
 384 0 l 1,10,-1
 384 -128 l 1,11,-1
 256 -128 l 1,8,-1
384 -128 m 1,12,-1
 384 0 l 1,13,-1
 512 0 l 1,14,-1
 512 -128 l 1,15,-1
 384 -128 l 1,12,-1
512 -128 m 1,16,-1
 512 0 l 1,17,-1
 640 0 l 1,18,-1
 640 -128 l 1,19,-1
 512 -128 l 1,16,-1
640 -128 m 1,20,-1
 640 0 l 1,21,-1
 768 0 l 1,22,-1
 768 -128 l 1,23,-1
 640 -128 l 1,20,-1
768 -128 m 1,24,-1
 768 0 l 1,25,-1
 896 0 l 1,26,-1
 896 -128 l 1,27,-1
 768 -128 l 1,24,-1
EndSplineSet
EndChar

StartChar: grave
Encoding: 96 96 97
Width: 896
Flags: W
LayerCount: 2
Fore
SplineSet
256 1024 m 1,0,-1
 256 1152 l 1,1,-1
 384 1152 l 1,2,-1
 384 1024 l 1,3,-1
 256 1024 l 1,0,-1
384 896 m 1,4,-1
 384 1024 l 1,5,-1
 512 1024 l 1,6,-1
 512 896 l 1,7,-1
 384 896 l 1,4,-1
EndSplineSet
EndChar

StartChar: a
Encoding: 97 97 98
Width: 896
Flags: W
LayerCount: 2
Fore
SplineSet
256 640 m 1,0,-1
 256 768 l 1,1,-1
 384 768 l 1,2,-1
 384 640 l 1,3,-1
 256 640 l 1,0,-1
384 640 m 1,4,-1
 384 768 l 1,5,-1
 512 768 l 1,6,-1
 512 640 l 1,7,-1
 384 640 l 1,4,-1
512 640 m 1,8,-1
 512 768 l 1,9,-1
 640 768 l 1,10,-1
 640 640 l 1,11,-1
 512 640 l 1,8,-1
640 512 m 1,12,-1
 640 640 l 1,13,-1
 768 640 l 1,14,-1
 768 512 l 1,15,-1
 640 512 l 1,12,-1
256 384 m 1,16,-1
 256 512 l 1,17,-1
 384 512 l 1,18,-1
 384 384 l 1,19,-1
 256 384 l 1,16,-1
384 384 m 1,20,-1
 384 512 l 1,21,-1
 512 512 l 1,22,-1
 512 384 l 1,23,-1
 384 384 l 1,20,-1
512 384 m 1,24,-1
 512 512 l 1,25,-1
 640 512 l 1,26,-1
 640 384 l 1,27,-1
 512 384 l 1,24,-1
640 384 m 1,28,-1
 640 512 l 1,29,-1
 768 512 l 1,30,-1
 768 384 l 1,31,-1
 640 384 l 1,28,-1
128 256 m 1,32,-1
 128 384 l 1,33,-1
 256 384 l 1,34,-1
 256 256 l 1,35,-1
 128 256 l 1,32,-1
640 256 m 1,36,-1
 640 384 l 1,37,-1
 768 384 l 1,38,-1
 768 256 l 1,39,-1
 640 256 l 1,36,-1
128 128 m 1,40,-1
 128 256 l 1,41,-1
 256 256 l 1,42,-1
 256 128 l 1,43,-1
 128 128 l 1,40,-1
640 128 m 1,44,-1
 640 256 l 1,45,-1
 768 256 l 1,46,-1
 768 128 l 1,47,-1
 640 128 l 1,44,-1
256 0 m 1,48,-1
 256 128 l 1,49,-1
 384 128 l 1,50,-1
 384 0 l 1,51,-1
 256 0 l 1,48,-1
384 0 m 1,52,-1
 384 128 l 1,53,-1
 512 128 l 1,54,-1
 512 0 l 1,55,-1
 384 0 l 1,52,-1
512 0 m 1,56,-1
 512 128 l 1,57,-1
 640 128 l 1,58,-1
 640 0 l 1,59,-1
 512 0 l 1,56,-1
640 0 m 1,60,-1
 640 128 l 1,61,-1
 768 128 l 1,62,-1
 768 0 l 1,63,-1
 640 0 l 1,60,-1
EndSplineSet
EndChar

StartChar: b
Encoding: 98 98 99
Width: 896
Flags: W
LayerCount: 2
Fore
SplineSet
128 1024 m 1,0,-1
 128 1152 l 1,1,-1
 256 1152 l 1,2,-1
 256 1024 l 1,3,-1
 128 1024 l 1,0,-1
128 896 m 1,4,-1
 128 1024 l 1,5,-1
 256 1024 l 1,6,-1
 256 896 l 1,7,-1
 128 896 l 1,4,-1
128 768 m 1,8,-1
 128 896 l 1,9,-1
 256 896 l 1,10,-1
 256 768 l 1,11,-1
 128 768 l 1,8,-1
128 640 m 1,12,-1
 128 768 l 1,13,-1
 256 768 l 1,14,-1
 256 640 l 1,15,-1
 128 640 l 1,12,-1
256 640 m 1,16,-1
 256 768 l 1,17,-1
 384 768 l 1,18,-1
 384 640 l 1,19,-1
 256 640 l 1,16,-1
384 640 m 1,20,-1
 384 768 l 1,21,-1
 512 768 l 1,22,-1
 512 640 l 1,23,-1
 384 640 l 1,20,-1
512 640 m 1,24,-1
 512 768 l 1,25,-1
 640 768 l 1,26,-1
 640 640 l 1,27,-1
 512 640 l 1,24,-1
128 512 m 1,28,-1
 128 640 l 1,29,-1
 256 640 l 1,30,-1
 256 512 l 1,31,-1
 128 512 l 1,28,-1
640 512 m 1,32,-1
 640 640 l 1,33,-1
 768 640 l 1,34,-1
 768 512 l 1,35,-1
 640 512 l 1,32,-1
128 384 m 1,36,-1
 128 512 l 1,37,-1
 256 512 l 1,38,-1
 256 384 l 1,39,-1
 128 384 l 1,36,-1
640 384 m 1,40,-1
 640 512 l 1,41,-1
 768 512 l 1,42,-1
 768 384 l 1,43,-1
 640 384 l 1,40,-1
128 256 m 1,44,-1
 128 384 l 1,45,-1
 256 384 l 1,46,-1
 256 256 l 1,47,-1
 128 256 l 1,44,-1
640 256 m 1,48,-1
 640 384 l 1,49,-1
 768 384 l 1,50,-1
 768 256 l 1,51,-1
 640 256 l 1,48,-1
128 128 m 1,52,-1
 128 256 l 1,53,-1
 256 256 l 1,54,-1
 256 128 l 1,55,-1
 128 128 l 1,52,-1
640 128 m 1,56,-1
 640 256 l 1,57,-1
 768 256 l 1,58,-1
 768 128 l 1,59,-1
 640 128 l 1,56,-1
128 0 m 1,60,-1
 128 128 l 1,61,-1
 256 128 l 1,62,-1
 256 0 l 1,63,-1
 128 0 l 1,60,-1
256 0 m 1,64,-1
 256 128 l 1,65,-1
 384 128 l 1,66,-1
 384 0 l 1,67,-1
 256 0 l 1,64,-1
384 0 m 1,68,-1
 384 128 l 1,69,-1
 512 128 l 1,70,-1
 512 0 l 1,71,-1
 384 0 l 1,68,-1
512 0 m 1,72,-1
 512 128 l 1,73,-1
 640 128 l 1,74,-1
 640 0 l 1,75,-1
 512 0 l 1,72,-1
EndSplineSet
EndChar

StartChar: c
Encoding: 99 99 100
Width: 896
Flags: W
LayerCount: 2
Fore
SplineSet
256 640 m 1,0,-1
 256 768 l 1,1,-1
 384 768 l 1,2,-1
 384 640 l 1,3,-1
 256 640 l 1,0,-1
384 640 m 1,4,-1
 384 768 l 1,5,-1
 512 768 l 1,6,-1
 512 640 l 1,7,-1
 384 640 l 1,4,-1
512 640 m 1,8,-1
 512 768 l 1,9,-1
 640 768 l 1,10,-1
 640 640 l 1,11,-1
 512 640 l 1,8,-1
128 512 m 1,12,-1
 128 640 l 1,13,-1
 256 640 l 1,14,-1
 256 512 l 1,15,-1
 128 512 l 1,12,-1
640 512 m 1,16,-1
 640 640 l 1,17,-1
 768 640 l 1,18,-1
 768 512 l 1,19,-1
 640 512 l 1,16,-1
128 384 m 1,20,-1
 128 512 l 1,21,-1
 256 512 l 1,22,-1
 256 384 l 1,23,-1
 128 384 l 1,20,-1
128 256 m 1,24,-1
 128 384 l 1,25,-1
 256 384 l 1,26,-1
 256 256 l 1,27,-1
 128 256 l 1,24,-1
128 128 m 1,28,-1
 128 256 l 1,29,-1
 256 256 l 1,30,-1
 256 128 l 1,31,-1
 128 128 l 1,28,-1
640 128 m 1,32,-1
 640 256 l 1,33,-1
 768 256 l 1,34,-1
 768 128 l 1,35,-1
 640 128 l 1,32,-1
256 0 m 1,36,-1
 256 128 l 1,37,-1
 384 128 l 1,38,-1
 384 0 l 1,39,-1
 256 0 l 1,36,-1
384 0 m 1,40,-1
 384 128 l 1,41,-1
 512 128 l 1,42,-1
 512 0 l 1,43,-1
 384 0 l 1,40,-1
512 0 m 1,44,-1
 512 128 l 1,45,-1
 640 128 l 1,46,-1
 640 0 l 1,47,-1
 512 0 l 1,44,-1
EndSplineSet
EndChar

StartChar: d
Encoding: 100 100 101
Width: 896
Flags: W
LayerCount: 2
Fore
SplineSet
640 1024 m 1,0,-1
 640 1152 l 1,1,-1
 768 1152 l 1,2,-1
 768 1024 l 1,3,-1
 640 1024 l 1,0,-1
640 896 m 1,4,-1
 640 1024 l 1,5,-1
 768 1024 l 1,6,-1
 768 896 l 1,7,-1
 640 896 l 1,4,-1
640 768 m 1,8,-1
 640 896 l 1,9,-1
 768 896 l 1,10,-1
 768 768 l 1,11,-1
 640 768 l 1,8,-1
256 640 m 1,12,-1
 256 768 l 1,13,-1
 384 768 l 1,14,-1
 384 640 l 1,15,-1
 256 640 l 1,12,-1
384 640 m 1,16,-1
 384 768 l 1,17,-1
 512 768 l 1,18,-1
 512 640 l 1,19,-1
 384 640 l 1,16,-1
512 640 m 1,20,-1
 512 768 l 1,21,-1
 640 768 l 1,22,-1
 640 640 l 1,23,-1
 512 640 l 1,20,-1
640 640 m 1,24,-1
 640 768 l 1,25,-1
 768 768 l 1,26,-1
 768 640 l 1,27,-1
 640 640 l 1,24,-1
128 512 m 1,28,-1
 128 640 l 1,29,-1
 256 640 l 1,30,-1
 256 512 l 1,31,-1
 128 512 l 1,28,-1
640 512 m 1,32,-1
 640 640 l 1,33,-1
 768 640 l 1,34,-1
 768 512 l 1,35,-1
 640 512 l 1,32,-1
128 384 m 1,36,-1
 128 512 l 1,37,-1
 256 512 l 1,38,-1
 256 384 l 1,39,-1
 128 384 l 1,36,-1
640 384 m 1,40,-1
 640 512 l 1,41,-1
 768 512 l 1,42,-1
 768 384 l 1,43,-1
 640 384 l 1,40,-1
128 256 m 1,44,-1
 128 384 l 1,45,-1
 256 384 l 1,46,-1
 256 256 l 1,47,-1
 128 256 l 1,44,-1
640 256 m 1,48,-1
 640 384 l 1,49,-1
 768 384 l 1,50,-1
 768 256 l 1,51,-1
 640 256 l 1,48,-1
128 128 m 1,52,-1
 128 256 l 1,53,-1
 256 256 l 1,54,-1
 256 128 l 1,55,-1
 128 128 l 1,52,-1
640 128 m 1,56,-1
 640 256 l 1,57,-1
 768 256 l 1,58,-1
 768 128 l 1,59,-1
 640 128 l 1,56,-1
256 0 m 1,60,-1
 256 128 l 1,61,-1
 384 128 l 1,62,-1
 384 0 l 1,63,-1
 256 0 l 1,60,-1
384 0 m 1,64,-1
 384 128 l 1,65,-1
 512 128 l 1,66,-1
 512 0 l 1,67,-1
 384 0 l 1,64,-1
512 0 m 1,68,-1
 512 128 l 1,69,-1
 640 128 l 1,70,-1
 640 0 l 1,71,-1
 512 0 l 1,68,-1
640 0 m 1,72,-1
 640 128 l 1,73,-1
 768 128 l 1,74,-1
 768 0 l 1,75,-1
 640 0 l 1,72,-1
EndSplineSet
EndChar

StartChar: e
Encoding: 101 101 102
Width: 896
Flags: W
LayerCount: 2
Fore
SplineSet
256 640 m 1,0,-1
 256 768 l 1,1,-1
 384 768 l 1,2,-1
 384 640 l 1,3,-1
 256 640 l 1,0,-1
384 640 m 1,4,-1
 384 768 l 1,5,-1
 512 768 l 1,6,-1
 512 640 l 1,7,-1
 384 640 l 1,4,-1
512 640 m 1,8,-1
 512 768 l 1,9,-1
 640 768 l 1,10,-1
 640 640 l 1,11,-1
 512 640 l 1,8,-1
128 512 m 1,12,-1
 128 640 l 1,13,-1
 256 640 l 1,14,-1
 256 512 l 1,15,-1
 128 512 l 1,12,-1
640 512 m 1,16,-1
 640 640 l 1,17,-1
 768 640 l 1,18,-1
 768 512 l 1,19,-1
 640 512 l 1,16,-1
128 384 m 1,20,-1
 128 512 l 1,21,-1
 256 512 l 1,22,-1
 256 384 l 1,23,-1
 128 384 l 1,20,-1
256 384 m 1,24,-1
 256 512 l 1,25,-1
 384 512 l 1,26,-1
 384 384 l 1,27,-1
 256 384 l 1,24,-1
384 384 m 1,28,-1
 384 512 l 1,29,-1
 512 512 l 1,30,-1
 512 384 l 1,31,-1
 384 384 l 1,28,-1
512 384 m 1,32,-1
 512 512 l 1,33,-1
 640 512 l 1,34,-1
 640 384 l 1,35,-1
 512 384 l 1,32,-1
640 384 m 1,36,-1
 640 512 l 1,37,-1
 768 512 l 1,38,-1
 768 384 l 1,39,-1
 640 384 l 1,36,-1
128 256 m 1,40,-1
 128 384 l 1,41,-1
 256 384 l 1,42,-1
 256 256 l 1,43,-1
 128 256 l 1,40,-1
128 128 m 1,44,-1
 128 256 l 1,45,-1
 256 256 l 1,46,-1
 256 128 l 1,47,-1
 128 128 l 1,44,-1
640 128 m 1,48,-1
 640 256 l 1,49,-1
 768 256 l 1,50,-1
 768 128 l 1,51,-1
 640 128 l 1,48,-1
256 0 m 1,52,-1
 256 128 l 1,53,-1
 384 128 l 1,54,-1
 384 0 l 1,55,-1
 256 0 l 1,52,-1
384 0 m 1,56,-1
 384 128 l 1,57,-1
 512 128 l 1,58,-1
 512 0 l 1,59,-1
 384 0 l 1,56,-1
512 0 m 1,60,-1
 512 128 l 1,61,-1
 640 128 l 1,62,-1
 640 0 l 1,63,-1
 512 0 l 1,60,-1
EndSplineSet
EndChar

StartChar: f
Encoding: 102 102 103
Width: 896
Flags: W
LayerCount: 2
Fore
SplineSet
384 1024 m 1,0,-1
 384 1152 l 1,1,-1
 512 1152 l 1,2,-1
 512 1024 l 1,3,-1
 384 1024 l 1,0,-1
512 1024 m 1,4,-1
 512 1152 l 1,5,-1
 640 1152 l 1,6,-1
 640 1024 l 1,7,-1
 512 1024 l 1,4,-1
640 1024 m 1,8,-1
 640 1152 l 1,9,-1
 768 1152 l 1,10,-1
 768 1024 l 1,11,-1
 640 1024 l 1,8,-1
256 896 m 1,12,-1
 256 1024 l 1,13,-1
 384 1024 l 1,14,-1
 384 896 l 1,15,-1
 256 896 l 1,12,-1
256 768 m 1,16,-1
 256 896 l 1,17,-1
 384 896 l 1,18,-1
 384 768 l 1,19,-1
 256 768 l 1,16,-1
128 640 m 1,20,-1
 128 768 l 1,21,-1
 256 768 l 1,22,-1
 256 640 l 1,23,-1
 128 640 l 1,20,-1
256 640 m 1,24,-1
 256 768 l 1,25,-1
 384 768 l 1,26,-1
 384 640 l 1,27,-1
 256 640 l 1,24,-1
384 640 m 1,28,-1
 384 768 l 1,29,-1
 512 768 l 1,30,-1
 512 640 l 1,31,-1
 384 640 l 1,28,-1
512 640 m 1,32,-1
 512 768 l 1,33,-1
 640 768 l 1,34,-1
 640 640 l 1,35,-1
 512 640 l 1,32,-1
256 512 m 1,36,-1
 256 640 l 1,37,-1
 384 640 l 1,38,-1
 384 512 l 1,39,-1
 256 512 l 1,36,-1
256 384 m 1,40,-1
 256 512 l 1,41,-1
 384 512 l 1,42,-1
 384 384 l 1,43,-1
 256 384 l 1,40,-1
256 256 m 1,44,-1
 256 384 l 1,45,-1
 384 384 l 1,46,-1
 384 256 l 1,47,-1
 256 256 l 1,44,-1
256 128 m 1,48,-1
 256 256 l 1,49,-1
 384 256 l 1,50,-1
 384 128 l 1,51,-1
 256 128 l 1,48,-1
256 0 m 1,52,-1
 256 128 l 1,53,-1
 384 128 l 1,54,-1
 384 0 l 1,55,-1
 256 0 l 1,52,-1
EndSplineSet
EndChar

StartChar: g
Encoding: 103 103 104
Width: 896
Flags: W
LayerCount: 2
Fore
SplineSet
256 640 m 1,0,-1
 256 768 l 1,1,-1
 384 768 l 1,2,-1
 384 640 l 1,3,-1
 256 640 l 1,0,-1
384 640 m 1,4,-1
 384 768 l 1,5,-1
 512 768 l 1,6,-1
 512 640 l 1,7,-1
 384 640 l 1,4,-1
512 640 m 1,8,-1
 512 768 l 1,9,-1
 640 768 l 1,10,-1
 640 640 l 1,11,-1
 512 640 l 1,8,-1
640 640 m 1,12,-1
 640 768 l 1,13,-1
 768 768 l 1,14,-1
 768 640 l 1,15,-1
 640 640 l 1,12,-1
128 512 m 1,16,-1
 128 640 l 1,17,-1
 256 640 l 1,18,-1
 256 512 l 1,19,-1
 128 512 l 1,16,-1
640 512 m 1,20,-1
 640 640 l 1,21,-1
 768 640 l 1,22,-1
 768 512 l 1,23,-1
 640 512 l 1,20,-1
128 384 m 1,24,-1
 128 512 l 1,25,-1
 256 512 l 1,26,-1
 256 384 l 1,27,-1
 128 384 l 1,24,-1
640 384 m 1,28,-1
 640 512 l 1,29,-1
 768 512 l 1,30,-1
 768 384 l 1,31,-1
 640 384 l 1,28,-1
128 256 m 1,32,-1
 128 384 l 1,33,-1
 256 384 l 1,34,-1
 256 256 l 1,35,-1
 128 256 l 1,32,-1
640 256 m 1,36,-1
 640 384 l 1,37,-1
 768 384 l 1,38,-1
 768 256 l 1,39,-1
 640 256 l 1,36,-1
128 128 m 1,40,-1
 128 256 l 1,41,-1
 256 256 l 1,42,-1
 256 128 l 1,43,-1
 128 128 l 1,40,-1
640 128 m 1,44,-1
 640 256 l 1,45,-1
 768 256 l 1,46,-1
 768 128 l 1,47,-1
 640 128 l 1,44,-1
256 0 m 1,48,-1
 256 128 l 1,49,-1
 384 128 l 1,50,-1
 384 0 l 1,51,-1
 256 0 l 1,48,-1
384 0 m 1,52,-1
 384 128 l 1,53,-1
 512 128 l 1,54,-1
 512 0 l 1,55,-1
 384 0 l 1,52,-1
512 0 m 1,56,-1
 512 128 l 1,57,-1
 640 128 l 1,58,-1
 640 0 l 1,59,-1
 512 0 l 1,56,-1
640 0 m 1,60,-1
 640 128 l 1,61,-1
 768 128 l 1,62,-1
 768 0 l 1,63,-1
 640 0 l 1,60,-1
640 -128 m 1,64,-1
 640 0 l 1,65,-1
 768 0 l 1,66,-1
 768 -128 l 1,67,-1
 640 -128 l 1,64,-1
640 -256 m 1,68,-1
 640 -128 l 1,69,-1
 768 -128 l 1,70,-1
 768 -256 l 1,71,-1
 640 -256 l 1,68,-1
256 -384 m 1,72,-1
 256 -256 l 1,73,-1
 384 -256 l 1,74,-1
 384 -384 l 1,75,-1
 256 -384 l 1,72,-1
384 -384 m 1,76,-1
 384 -256 l 1,77,-1
 512 -256 l 1,78,-1
 512 -384 l 1,79,-1
 384 -384 l 1,76,-1
512 -384 m 1,80,-1
 512 -256 l 1,81,-1
 640 -256 l 1,82,-1
 640 -384 l 1,83,-1
 512 -384 l 1,80,-1
EndSplineSet
EndChar

StartChar: h
Encoding: 104 104 105
Width: 896
Flags: W
LayerCount: 2
Fore
SplineSet
128 1024 m 1,0,-1
 128 1152 l 1,1,-1
 256 1152 l 1,2,-1
 256 1024 l 1,3,-1
 128 1024 l 1,0,-1
128 896 m 1,4,-1
 128 1024 l 1,5,-1
 256 1024 l 1,6,-1
 256 896 l 1,7,-1
 128 896 l 1,4,-1
128 768 m 1,8,-1
 128 896 l 1,9,-1
 256 896 l 1,10,-1
 256 768 l 1,11,-1
 128 768 l 1,8,-1
128 640 m 1,12,-1
 128 768 l 1,13,-1
 256 768 l 1,14,-1
 256 640 l 1,15,-1
 128 640 l 1,12,-1
256 640 m 1,16,-1
 256 768 l 1,17,-1
 384 768 l 1,18,-1
 384 640 l 1,19,-1
 256 640 l 1,16,-1
384 640 m 1,20,-1
 384 768 l 1,21,-1
 512 768 l 1,22,-1
 512 640 l 1,23,-1
 384 640 l 1,20,-1
512 640 m 1,24,-1
 512 768 l 1,25,-1
 640 768 l 1,26,-1
 640 640 l 1,27,-1
 512 640 l 1,24,-1
128 512 m 1,28,-1
 128 640 l 1,29,-1
 256 640 l 1,30,-1
 256 512 l 1,31,-1
 128 512 l 1,28,-1
640 512 m 1,32,-1
 640 640 l 1,33,-1
 768 640 l 1,34,-1
 768 512 l 1,35,-1
 640 512 l 1,32,-1
128 384 m 1,36,-1
 128 512 l 1,37,-1
 256 512 l 1,38,-1
 256 384 l 1,39,-1
 128 384 l 1,36,-1
640 384 m 1,40,-1
 640 512 l 1,41,-1
 768 512 l 1,42,-1
 768 384 l 1,43,-1
 640 384 l 1,40,-1
128 256 m 1,44,-1
 128 384 l 1,45,-1
 256 384 l 1,46,-1
 256 256 l 1,47,-1
 128 256 l 1,44,-1
640 256 m 1,48,-1
 640 384 l 1,49,-1
 768 384 l 1,50,-1
 768 256 l 1,51,-1
 640 256 l 1,48,-1
128 128 m 1,52,-1
 128 256 l 1,53,-1
 256 256 l 1,54,-1
 256 128 l 1,55,-1
 128 128 l 1,52,-1
640 128 m 1,56,-1
 640 256 l 1,57,-1
 768 256 l 1,58,-1
 768 128 l 1,59,-1
 640 128 l 1,56,-1
128 0 m 1,60,-1
 128 128 l 1,61,-1
 256 128 l 1,62,-1
 256 0 l 1,63,-1
 128 0 l 1,60,-1
640 0 m 1,64,-1
 640 128 l 1,65,-1
 768 128 l 1,66,-1
 768 0 l 1,67,-1
 640 0 l 1,64,-1
EndSplineSet
EndChar

StartChar: i
Encoding: 105 105 106
Width: 896
Flags: W
LayerCount: 2
Fore
SplineSet
384 1024 m 1,0,-1
 384 1152 l 1,1,-1
 512 1152 l 1,2,-1
 512 1024 l 1,3,-1
 384 1024 l 1,0,-1
256 640 m 1,4,-1
 256 768 l 1,5,-1
 384 768 l 1,6,-1
 384 640 l 1,7,-1
 256 640 l 1,4,-1
384 640 m 1,8,-1
 384 768 l 1,9,-1
 512 768 l 1,10,-1
 512 640 l 1,11,-1
 384 640 l 1,8,-1
384 512 m 1,12,-1
 384 640 l 1,13,-1
 512 640 l 1,14,-1
 512 512 l 1,15,-1
 384 512 l 1,12,-1
384 384 m 1,16,-1
 384 512 l 1,17,-1
 512 512 l 1,18,-1
 512 384 l 1,19,-1
 384 384 l 1,16,-1
384 256 m 1,20,-1
 384 384 l 1,21,-1
 512 384 l 1,22,-1
 512 256 l 1,23,-1
 384 256 l 1,20,-1
384 128 m 1,24,-1
 384 256 l 1,25,-1
 512 256 l 1,26,-1
 512 128 l 1,27,-1
 384 128 l 1,24,-1
384 0 m 1,28,-1
 384 128 l 1,29,-1
 512 128 l 1,30,-1
 512 0 l 1,31,-1
 384 0 l 1,28,-1
EndSplineSet
EndChar

StartChar: j
Encoding: 106 106 107
Width: 896
Flags: W
LayerCount: 2
Fore
SplineSet
512 1024 m 1,0,-1
 512 1152 l 1,1,-1
 640 1152 l 1,2,-1
 640 1024 l 1,3,-1
 512 1024 l 1,0,-1
384 640 m 1,4,-1
 384 768 l 1,5,-1
 512 768 l 1,6,-1
 512 640 l 1,7,-1
 384 640 l 1,4,-1
512 640 m 1,8,-1
 512 768 l 1,9,-1
 640 768 l 1,10,-1
 640 640 l 1,11,-1
 512 640 l 1,8,-1
512 512 m 1,12,-1
 512 640 l 1,13,-1
 640 640 l 1,14,-1
 640 512 l 1,15,-1
 512 512 l 1,12,-1
512 384 m 1,16,-1
 512 512 l 1,17,-1
 640 512 l 1,18,-1
 640 384 l 1,19,-1
 512 384 l 1,16,-1
512 256 m 1,20,-1
 512 384 l 1,21,-1
 640 384 l 1,22,-1
 640 256 l 1,23,-1
 512 256 l 1,20,-1
512 128 m 1,24,-1
 512 256 l 1,25,-1
 640 256 l 1,26,-1
 640 128 l 1,27,-1
 512 128 l 1,24,-1
512 0 m 1,28,-1
 512 128 l 1,29,-1
 640 128 l 1,30,-1
 640 0 l 1,31,-1
 512 0 l 1,28,-1
512 -128 m 1,32,-1
 512 0 l 1,33,-1
 640 0 l 1,34,-1
 640 -128 l 1,35,-1
 512 -128 l 1,32,-1
128 -256 m 1,36,-1
 128 -128 l 1,37,-1
 256 -128 l 1,38,-1
 256 -256 l 1,39,-1
 128 -256 l 1,36,-1
256 -256 m 1,40,-1
 256 -128 l 1,41,-1
 384 -128 l 1,42,-1
 384 -256 l 1,43,-1
 256 -256 l 1,40,-1
384 -256 m 1,44,-1
 384 -128 l 1,45,-1
 512 -128 l 1,46,-1
 512 -256 l 1,47,-1
 384 -256 l 1,44,-1
EndSplineSet
EndChar

StartChar: k
Encoding: 107 107 108
Width: 896
Flags: W
LayerCount: 2
Fore
SplineSet
128 1024 m 1,0,-1
 128 1152 l 1,1,-1
 256 1152 l 1,2,-1
 256 1024 l 1,3,-1
 128 1024 l 1,0,-1
128 896 m 1,4,-1
 128 1024 l 1,5,-1
 256 1024 l 1,6,-1
 256 896 l 1,7,-1
 128 896 l 1,4,-1
128 768 m 1,8,-1
 128 896 l 1,9,-1
 256 896 l 1,10,-1
 256 768 l 1,11,-1
 128 768 l 1,8,-1
128 640 m 1,12,-1
 128 768 l 1,13,-1
 256 768 l 1,14,-1
 256 640 l 1,15,-1
 128 640 l 1,12,-1
640 640 m 1,16,-1
 640 768 l 1,17,-1
 768 768 l 1,18,-1
 768 640 l 1,19,-1
 640 640 l 1,16,-1
128 512 m 1,20,-1
 128 640 l 1,21,-1
 256 640 l 1,22,-1
 256 512 l 1,23,-1
 128 512 l 1,20,-1
512 512 m 1,24,-1
 512 640 l 1,25,-1
 640 640 l 1,26,-1
 640 512 l 1,27,-1
 512 512 l 1,24,-1
128 384 m 1,28,-1
 128 512 l 1,29,-1
 256 512 l 1,30,-1
 256 384 l 1,31,-1
 128 384 l 1,28,-1
384 384 m 1,32,-1
 384 512 l 1,33,-1
 512 512 l 1,34,-1
 512 384 l 1,35,-1
 384 384 l 1,32,-1
128 256 m 1,36,-1
 128 384 l 1,37,-1
 256 384 l 1,38,-1
 256 256 l 1,39,-1
 128 256 l 1,36,-1
256 256 m 1,40,-1
 256 384 l 1,41,-1
 384 384 l 1,42,-1
 384 256 l 1,43,-1
 256 256 l 1,40,-1
384 256 m 1,44,-1
 384 384 l 1,45,-1
 512 384 l 1,46,-1
 512 256 l 1,47,-1
 384 256 l 1,44,-1
128 128 m 1,48,-1
 128 256 l 1,49,-1
 256 256 l 1,50,-1
 256 128 l 1,51,-1
 128 128 l 1,48,-1
512 128 m 1,52,-1
 512 256 l 1,53,-1
 640 256 l 1,54,-1
 640 128 l 1,55,-1
 512 128 l 1,52,-1
128 0 m 1,56,-1
 128 128 l 1,57,-1
 256 128 l 1,58,-1
 256 0 l 1,59,-1
 128 0 l 1,56,-1
640 0 m 1,60,-1
 640 128 l 1,61,-1
 768 128 l 1,62,-1
 768 0 l 1,63,-1
 640 0 l 1,60,-1
EndSplineSet
EndChar

StartChar: l
Encoding: 108 108 109
Width: 896
Flags: W
LayerCount: 2
Fore
SplineSet
256 1024 m 1,0,-1
 256 1152 l 1,1,-1
 384 1152 l 1,2,-1
 384 1024 l 1,3,-1
 256 1024 l 1,0,-1
384 1024 m 1,4,-1
 384 1152 l 1,5,-1
 512 1152 l 1,6,-1
 512 1024 l 1,7,-1
 384 1024 l 1,4,-1
384 896 m 1,8,-1
 384 1024 l 1,9,-1
 512 1024 l 1,10,-1
 512 896 l 1,11,-1
 384 896 l 1,8,-1
384 768 m 1,12,-1
 384 896 l 1,13,-1
 512 896 l 1,14,-1
 512 768 l 1,15,-1
 384 768 l 1,12,-1
384 640 m 1,16,-1
 384 768 l 1,17,-1
 512 768 l 1,18,-1
 512 640 l 1,19,-1
 384 640 l 1,16,-1
384 512 m 1,20,-1
 384 640 l 1,21,-1
 512 640 l 1,22,-1
 512 512 l 1,23,-1
 384 512 l 1,20,-1
384 384 m 1,24,-1
 384 512 l 1,25,-1
 512 512 l 1,26,-1
 512 384 l 1,27,-1
 384 384 l 1,24,-1
384 256 m 1,28,-1
 384 384 l 1,29,-1
 512 384 l 1,30,-1
 512 256 l 1,31,-1
 384 256 l 1,28,-1
384 128 m 1,32,-1
 384 256 l 1,33,-1
 512 256 l 1,34,-1
 512 128 l 1,35,-1
 384 128 l 1,32,-1
384 0 m 1,36,-1
 384 128 l 1,37,-1
 512 128 l 1,38,-1
 512 0 l 1,39,-1
 384 0 l 1,36,-1
EndSplineSet
EndChar

StartChar: m
Encoding: 109 109 110
Width: 896
Flags: W
LayerCount: 2
Fore
SplineSet
0 640 m 1,0,-1
 0 768 l 1,1,-1
 128 768 l 1,2,-1
 128 640 l 1,3,-1
 0 640 l 1,0,-1
128 640 m 1,4,-1
 128 768 l 1,5,-1
 256 768 l 1,6,-1
 256 640 l 1,7,-1
 128 640 l 1,4,-1
256 640 m 1,8,-1
 256 768 l 1,9,-1
 384 768 l 1,10,-1
 384 640 l 1,11,-1
 256 640 l 1,8,-1
512 640 m 1,12,-1
 512 768 l 1,13,-1
 640 768 l 1,14,-1
 640 640 l 1,15,-1
 512 640 l 1,12,-1
640 640 m 1,16,-1
 640 768 l 1,17,-1
 768 768 l 1,18,-1
 768 640 l 1,19,-1
 640 640 l 1,16,-1
0 512 m 1,20,-1
 0 640 l 1,21,-1
 128 640 l 1,22,-1
 128 512 l 1,23,-1
 0 512 l 1,20,-1
384 512 m 1,24,-1
 384 640 l 1,25,-1
 512 640 l 1,26,-1
 512 512 l 1,27,-1
 384 512 l 1,24,-1
768 512 m 1,28,-1
 768 640 l 1,29,-1
 896 640 l 1,30,-1
 896 512 l 1,31,-1
 768 512 l 1,28,-1
0 384 m 1,32,-1
 0 512 l 1,33,-1
 128 512 l 1,34,-1
 128 384 l 1,35,-1
 0 384 l 1,32,-1
384 384 m 1,36,-1
 384 512 l 1,37,-1
 512 512 l 1,38,-1
 512 384 l 1,39,-1
 384 384 l 1,36,-1
768 384 m 1,40,-1
 768 512 l 1,41,-1
 896 512 l 1,42,-1
 896 384 l 1,43,-1
 768 384 l 1,40,-1
0 256 m 1,44,-1
 0 384 l 1,45,-1
 128 384 l 1,46,-1
 128 256 l 1,47,-1
 0 256 l 1,44,-1
384 256 m 1,48,-1
 384 384 l 1,49,-1
 512 384 l 1,50,-1
 512 256 l 1,51,-1
 384 256 l 1,48,-1
768 256 m 1,52,-1
 768 384 l 1,53,-1
 896 384 l 1,54,-1
 896 256 l 1,55,-1
 768 256 l 1,52,-1
0 128 m 1,56,-1
 0 256 l 1,57,-1
 128 256 l 1,58,-1
 128 128 l 1,59,-1
 0 128 l 1,56,-1
384 128 m 1,60,-1
 384 256 l 1,61,-1
 512 256 l 1,62,-1
 512 128 l 1,63,-1
 384 128 l 1,60,-1
768 128 m 1,64,-1
 768 256 l 1,65,-1
 896 256 l 1,66,-1
 896 128 l 1,67,-1
 768 128 l 1,64,-1
0 0 m 1,68,-1
 0 128 l 1,69,-1
 128 128 l 1,70,-1
 128 0 l 1,71,-1
 0 0 l 1,68,-1
384 0 m 1,72,-1
 384 128 l 1,73,-1
 512 128 l 1,74,-1
 512 0 l 1,75,-1
 384 0 l 1,72,-1
768 0 m 1,76,-1
 768 128 l 1,77,-1
 896 128 l 1,78,-1
 896 0 l 1,79,-1
 768 0 l 1,76,-1
EndSplineSet
EndChar

StartChar: n
Encoding: 110 110 111
Width: 896
Flags: W
LayerCount: 2
Fore
SplineSet
128 640 m 1,0,-1
 128 768 l 1,1,-1
 256 768 l 1,2,-1
 256 640 l 1,3,-1
 128 640 l 1,0,-1
256 640 m 1,4,-1
 256 768 l 1,5,-1
 384 768 l 1,6,-1
 384 640 l 1,7,-1
 256 640 l 1,4,-1
384 640 m 1,8,-1
 384 768 l 1,9,-1
 512 768 l 1,10,-1
 512 640 l 1,11,-1
 384 640 l 1,8,-1
512 640 m 1,12,-1
 512 768 l 1,13,-1
 640 768 l 1,14,-1
 640 640 l 1,15,-1
 512 640 l 1,12,-1
128 512 m 1,16,-1
 128 640 l 1,17,-1
 256 640 l 1,18,-1
 256 512 l 1,19,-1
 128 512 l 1,16,-1
640 512 m 1,20,-1
 640 640 l 1,21,-1
 768 640 l 1,22,-1
 768 512 l 1,23,-1
 640 512 l 1,20,-1
128 384 m 1,24,-1
 128 512 l 1,25,-1
 256 512 l 1,26,-1
 256 384 l 1,27,-1
 128 384 l 1,24,-1
640 384 m 1,28,-1
 640 512 l 1,29,-1
 768 512 l 1,30,-1
 768 384 l 1,31,-1
 640 384 l 1,28,-1
128 256 m 1,32,-1
 128 384 l 1,33,-1
 256 384 l 1,34,-1
 256 256 l 1,35,-1
 128 256 l 1,32,-1
640 256 m 1,36,-1
 640 384 l 1,37,-1
 768 384 l 1,38,-1
 768 256 l 1,39,-1
 640 256 l 1,36,-1
128 128 m 1,40,-1
 128 256 l 1,41,-1
 256 256 l 1,42,-1
 256 128 l 1,43,-1
 128 128 l 1,40,-1
640 128 m 1,44,-1
 640 256 l 1,45,-1
 768 256 l 1,46,-1
 768 128 l 1,47,-1
 640 128 l 1,44,-1
128 0 m 1,48,-1
 128 128 l 1,49,-1
 256 128 l 1,50,-1
 256 0 l 1,51,-1
 128 0 l 1,48,-1
640 0 m 1,52,-1
 640 128 l 1,53,-1
 768 128 l 1,54,-1
 768 0 l 1,55,-1
 640 0 l 1,52,-1
EndSplineSet
EndChar

StartChar: o
Encoding: 111 111 112
Width: 896
Flags: W
LayerCount: 2
Fore
SplineSet
256 640 m 1,0,-1
 256 768 l 1,1,-1
 384 768 l 1,2,-1
 384 640 l 1,3,-1
 256 640 l 1,0,-1
384 640 m 1,4,-1
 384 768 l 1,5,-1
 512 768 l 1,6,-1
 512 640 l 1,7,-1
 384 640 l 1,4,-1
512 640 m 1,8,-1
 512 768 l 1,9,-1
 640 768 l 1,10,-1
 640 640 l 1,11,-1
 512 640 l 1,8,-1
128 512 m 1,12,-1
 128 640 l 1,13,-1
 256 640 l 1,14,-1
 256 512 l 1,15,-1
 128 512 l 1,12,-1
640 512 m 1,16,-1
 640 640 l 1,17,-1
 768 640 l 1,18,-1
 768 512 l 1,19,-1
 640 512 l 1,16,-1
128 384 m 1,20,-1
 128 512 l 1,21,-1
 256 512 l 1,22,-1
 256 384 l 1,23,-1
 128 384 l 1,20,-1
640 384 m 1,24,-1
 640 512 l 1,25,-1
 768 512 l 1,26,-1
 768 384 l 1,27,-1
 640 384 l 1,24,-1
128 256 m 1,28,-1
 128 384 l 1,29,-1
 256 384 l 1,30,-1
 256 256 l 1,31,-1
 128 256 l 1,28,-1
640 256 m 1,32,-1
 640 384 l 1,33,-1
 768 384 l 1,34,-1
 768 256 l 1,35,-1
 640 256 l 1,32,-1
128 128 m 1,36,-1
 128 256 l 1,37,-1
 256 256 l 1,38,-1
 256 128 l 1,39,-1
 128 128 l 1,36,-1
640 128 m 1,40,-1
 640 256 l 1,41,-1
 768 256 l 1,42,-1
 768 128 l 1,43,-1
 640 128 l 1,40,-1
256 0 m 1,44,-1
 256 128 l 1,45,-1
 384 128 l 1,46,-1
 384 0 l 1,47,-1
 256 0 l 1,44,-1
384 0 m 1,48,-1
 384 128 l 1,49,-1
 512 128 l 1,50,-1
 512 0 l 1,51,-1
 384 0 l 1,48,-1
512 0 m 1,52,-1
 512 128 l 1,53,-1
 640 128 l 1,54,-1
 640 0 l 1,55,-1
 512 0 l 1,52,-1
EndSplineSet
EndChar

StartChar: p
Encoding: 112 112 113
Width: 896
Flags: W
LayerCount: 2
Fore
SplineSet
128 640 m 1,0,-1
 128 768 l 1,1,-1
 256 768 l 1,2,-1
 256 640 l 1,3,-1
 128 640 l 1,0,-1
256 640 m 1,4,-1
 256 768 l 1,5,-1
 384 768 l 1,6,-1
 384 640 l 1,7,-1
 256 640 l 1,4,-1
384 640 m 1,8,-1
 384 768 l 1,9,-1
 512 768 l 1,10,-1
 512 640 l 1,11,-1
 384 640 l 1,8,-1
512 640 m 1,12,-1
 512 768 l 1,13,-1
 640 768 l 1,14,-1
 640 640 l 1,15,-1
 512 640 l 1,12,-1
128 512 m 1,16,-1
 128 640 l 1,17,-1
 256 640 l 1,18,-1
 256 512 l 1,19,-1
 128 512 l 1,16,-1
640 512 m 1,20,-1
 640 640 l 1,21,-1
 768 640 l 1,22,-1
 768 512 l 1,23,-1
 640 512 l 1,20,-1
128 384 m 1,24,-1
 128 512 l 1,25,-1
 256 512 l 1,26,-1
 256 384 l 1,27,-1
 128 384 l 1,24,-1
640 384 m 1,28,-1
 640 512 l 1,29,-1
 768 512 l 1,30,-1
 768 384 l 1,31,-1
 640 384 l 1,28,-1
128 256 m 1,32,-1
 128 384 l 1,33,-1
 256 384 l 1,34,-1
 256 256 l 1,35,-1
 128 256 l 1,32,-1
640 256 m 1,36,-1
 640 384 l 1,37,-1
 768 384 l 1,38,-1
 768 256 l 1,39,-1
 640 256 l 1,36,-1
128 128 m 1,40,-1
 128 256 l 1,41,-1
 256 256 l 1,42,-1
 256 128 l 1,43,-1
 128 128 l 1,40,-1
640 128 m 1,44,-1
 640 256 l 1,45,-1
 768 256 l 1,46,-1
 768 128 l 1,47,-1
 640 128 l 1,44,-1
128 0 m 1,48,-1
 128 128 l 1,49,-1
 256 128 l 1,50,-1
 256 0 l 1,51,-1
 128 0 l 1,48,-1
256 0 m 1,52,-1
 256 128 l 1,53,-1
 384 128 l 1,54,-1
 384 0 l 1,55,-1
 256 0 l 1,52,-1
384 0 m 1,56,-1
 384 128 l 1,57,-1
 512 128 l 1,58,-1
 512 0 l 1,59,-1
 384 0 l 1,56,-1
512 0 m 1,60,-1
 512 128 l 1,61,-1
 640 128 l 1,62,-1
 640 0 l 1,63,-1
 512 0 l 1,60,-1
128 -128 m 1,64,-1
 128 0 l 1,65,-1
 256 0 l 1,66,-1
 256 -128 l 1,67,-1
 128 -128 l 1,64,-1
128 -256 m 1,68,-1
 128 -128 l 1,69,-1
 256 -128 l 1,70,-1
 256 -256 l 1,71,-1
 128 -256 l 1,68,-1
128 -384 m 1,72,-1
 128 -256 l 1,73,-1
 256 -256 l 1,74,-1
 256 -384 l 1,75,-1
 128 -384 l 1,72,-1
EndSplineSet
EndChar

StartChar: q
Encoding: 113 113 114
Width: 896
Flags: W
LayerCount: 2
Fore
SplineSet
256 640 m 1,0,-1
 256 768 l 1,1,-1
 384 768 l 1,2,-1
 384 640 l 1,3,-1
 256 640 l 1,0,-1
384 640 m 1,4,-1
 384 768 l 1,5,-1
 512 768 l 1,6,-1
 512 640 l 1,7,-1
 384 640 l 1,4,-1
512 640 m 1,8,-1
 512 768 l 1,9,-1
 640 768 l 1,10,-1
 640 640 l 1,11,-1
 512 640 l 1,8,-1
640 640 m 1,12,-1
 640 768 l 1,13,-1
 768 768 l 1,14,-1
 768 640 l 1,15,-1
 640 640 l 1,12,-1
128 512 m 1,16,-1
 128 640 l 1,17,-1
 256 640 l 1,18,-1
 256 512 l 1,19,-1
 128 512 l 1,16,-1
640 512 m 1,20,-1
 640 640 l 1,21,-1
 768 640 l 1,22,-1
 768 512 l 1,23,-1
 640 512 l 1,20,-1
128 384 m 1,24,-1
 128 512 l 1,25,-1
 256 512 l 1,26,-1
 256 384 l 1,27,-1
 128 384 l 1,24,-1
640 384 m 1,28,-1
 640 512 l 1,29,-1
 768 512 l 1,30,-1
 768 384 l 1,31,-1
 640 384 l 1,28,-1
128 256 m 1,32,-1
 128 384 l 1,33,-1
 256 384 l 1,34,-1
 256 256 l 1,35,-1
 128 256 l 1,32,-1
640 256 m 1,36,-1
 640 384 l 1,37,-1
 768 384 l 1,38,-1
 768 256 l 1,39,-1
 640 256 l 1,36,-1
128 128 m 1,40,-1
 128 256 l 1,41,-1
 256 256 l 1,42,-1
 256 128 l 1,43,-1
 128 128 l 1,40,-1
640 128 m 1,44,-1
 640 256 l 1,45,-1
 768 256 l 1,46,-1
 768 128 l 1,47,-1
 640 128 l 1,44,-1
256 0 m 1,48,-1
 256 128 l 1,49,-1
 384 128 l 1,50,-1
 384 0 l 1,51,-1
 256 0 l 1,48,-1
384 0 m 1,52,-1
 384 128 l 1,53,-1
 512 128 l 1,54,-1
 512 0 l 1,55,-1
 384 0 l 1,52,-1
512 0 m 1,56,-1
 512 128 l 1,57,-1
 640 128 l 1,58,-1
 640 0 l 1,59,-1
 512 0 l 1,56,-1
640 0 m 1,60,-1
 640 128 l 1,61,-1
 768 128 l 1,62,-1
 768 0 l 1,63,-1
 640 0 l 1,60,-1
640 -128 m 1,64,-1
 640 0 l 1,65,-1
 768 0 l 1,66,-1
 768 -128 l 1,67,-1
 640 -128 l 1,64,-1
640 -256 m 1,68,-1
 640 -128 l 1,69,-1
 768 -128 l 1,70,-1
 768 -256 l 1,71,-1
 640 -256 l 1,68,-1
640 -384 m 1,72,-1
 640 -256 l 1,73,-1
 768 -256 l 1,74,-1
 768 -384 l 1,75,-1
 640 -384 l 1,72,-1
EndSplineSet
EndChar

StartChar: r
Encoding: 114 114 115
Width: 896
Flags: W
LayerCount: 2
Fore
SplineSet
128 640 m 1,0,-1
 128 768 l 1,1,-1
 256 768 l 1,2,-1
 256 640 l 1,3,-1
 128 640 l 1,0,-1
384 640 m 1,4,-1
 384 768 l 1,5,-1
 512 768 l 1,6,-1
 512 640 l 1,7,-1
 384 640 l 1,4,-1
512 640 m 1,8,-1
 512 768 l 1,9,-1
 640 768 l 1,10,-1
 640 640 l 1,11,-1
 512 640 l 1,8,-1
128 512 m 1,12,-1
 128 640 l 1,13,-1
 256 640 l 1,14,-1
 256 512 l 1,15,-1
 128 512 l 1,12,-1
256 512 m 1,16,-1
 256 640 l 1,17,-1
 384 640 l 1,18,-1
 384 512 l 1,19,-1
 256 512 l 1,16,-1
640 512 m 1,20,-1
 640 640 l 1,21,-1
 768 640 l 1,22,-1
 768 512 l 1,23,-1
 640 512 l 1,20,-1
128 384 m 1,24,-1
 128 512 l 1,25,-1
 256 512 l 1,26,-1
 256 384 l 1,27,-1
 128 384 l 1,24,-1
128 256 m 1,28,-1
 128 384 l 1,29,-1
 256 384 l 1,30,-1
 256 256 l 1,31,-1
 128 256 l 1,28,-1
128 128 m 1,32,-1
 128 256 l 1,33,-1
 256 256 l 1,34,-1
 256 128 l 1,35,-1
 128 128 l 1,32,-1
128 0 m 1,36,-1
 128 128 l 1,37,-1
 256 128 l 1,38,-1
 256 0 l 1,39,-1
 128 0 l 1,36,-1
EndSplineSet
EndChar

StartChar: s
Encoding: 115 115 116
Width: 896
Flags: W
LayerCount: 2
Fore
SplineSet
256 640 m 1,0,-1
 256 768 l 1,1,-1
 384 768 l 1,2,-1
 384 640 l 1,3,-1
 256 640 l 1,0,-1
384 640 m 1,4,-1
 384 768 l 1,5,-1
 512 768 l 1,6,-1
 512 640 l 1,7,-1
 384 640 l 1,4,-1
512 640 m 1,8,-1
 512 768 l 1,9,-1
 640 768 l 1,10,-1
 640 640 l 1,11,-1
 512 640 l 1,8,-1
640 640 m 1,12,-1
 640 768 l 1,13,-1
 768 768 l 1,14,-1
 768 640 l 1,15,-1
 640 640 l 1,12,-1
128 512 m 1,16,-1
 128 640 l 1,17,-1
 256 640 l 1,18,-1
 256 512 l 1,19,-1
 128 512 l 1,16,-1
256 384 m 1,20,-1
 256 512 l 1,21,-1
 384 512 l 1,22,-1
 384 384 l 1,23,-1
 256 384 l 1,20,-1
384 384 m 1,24,-1
 384 512 l 1,25,-1
 512 512 l 1,26,-1
 512 384 l 1,27,-1
 384 384 l 1,24,-1
512 256 m 1,28,-1
 512 384 l 1,29,-1
 640 384 l 1,30,-1
 640 256 l 1,31,-1
 512 256 l 1,28,-1
640 128 m 1,32,-1
 640 256 l 1,33,-1
 768 256 l 1,34,-1
 768 128 l 1,35,-1
 640 128 l 1,32,-1
128 0 m 1,36,-1
 128 128 l 1,37,-1
 256 128 l 1,38,-1
 256 0 l 1,39,-1
 128 0 l 1,36,-1
256 0 m 1,40,-1
 256 128 l 1,41,-1
 384 128 l 1,42,-1
 384 0 l 1,43,-1
 256 0 l 1,40,-1
384 0 m 1,44,-1
 384 128 l 1,45,-1
 512 128 l 1,46,-1
 512 0 l 1,47,-1
 384 0 l 1,44,-1
512 0 m 1,48,-1
 512 128 l 1,49,-1
 640 128 l 1,50,-1
 640 0 l 1,51,-1
 512 0 l 1,48,-1
EndSplineSet
EndChar

StartChar: t
Encoding: 116 116 117
Width: 896
Flags: W
LayerCount: 2
Fore
SplineSet
256 896 m 1,0,-1
 256 1024 l 1,1,-1
 384 1024 l 1,2,-1
 384 896 l 1,3,-1
 256 896 l 1,0,-1
256 768 m 1,4,-1
 256 896 l 1,5,-1
 384 896 l 1,6,-1
 384 768 l 1,7,-1
 256 768 l 1,4,-1
256 640 m 1,8,-1
 256 768 l 1,9,-1
 384 768 l 1,10,-1
 384 640 l 1,11,-1
 256 640 l 1,8,-1
384 640 m 1,12,-1
 384 768 l 1,13,-1
 512 768 l 1,14,-1
 512 640 l 1,15,-1
 384 640 l 1,12,-1
512 640 m 1,16,-1
 512 768 l 1,17,-1
 640 768 l 1,18,-1
 640 640 l 1,19,-1
 512 640 l 1,16,-1
640 640 m 1,20,-1
 640 768 l 1,21,-1
 768 768 l 1,22,-1
 768 640 l 1,23,-1
 640 640 l 1,20,-1
256 512 m 1,24,-1
 256 640 l 1,25,-1
 384 640 l 1,26,-1
 384 512 l 1,27,-1
 256 512 l 1,24,-1
256 384 m 1,28,-1
 256 512 l 1,29,-1
 384 512 l 1,30,-1
 384 384 l 1,31,-1
 256 384 l 1,28,-1
256 256 m 1,32,-1
 256 384 l 1,33,-1
 384 384 l 1,34,-1
 384 256 l 1,35,-1
 256 256 l 1,32,-1
256 128 m 1,36,-1
 256 256 l 1,37,-1
 384 256 l 1,38,-1
 384 128 l 1,39,-1
 256 128 l 1,36,-1
384 0 m 1,40,-1
 384 128 l 1,41,-1
 512 128 l 1,42,-1
 512 0 l 1,43,-1
 384 0 l 1,40,-1
512 0 m 1,44,-1
 512 128 l 1,45,-1
 640 128 l 1,46,-1
 640 0 l 1,47,-1
 512 0 l 1,44,-1
640 0 m 1,48,-1
 640 128 l 1,49,-1
 768 128 l 1,50,-1
 768 0 l 1,51,-1
 640 0 l 1,48,-1
EndSplineSet
EndChar

StartChar: u
Encoding: 117 117 118
Width: 896
Flags: W
LayerCount: 2
Fore
SplineSet
128 640 m 1,0,-1
 128 768 l 1,1,-1
 256 768 l 1,2,-1
 256 640 l 1,3,-1
 128 640 l 1,0,-1
640 640 m 1,4,-1
 640 768 l 1,5,-1
 768 768 l 1,6,-1
 768 640 l 1,7,-1
 640 640 l 1,4,-1
128 512 m 1,8,-1
 128 640 l 1,9,-1
 256 640 l 1,10,-1
 256 512 l 1,11,-1
 128 512 l 1,8,-1
640 512 m 1,12,-1
 640 640 l 1,13,-1
 768 640 l 1,14,-1
 768 512 l 1,15,-1
 640 512 l 1,12,-1
128 384 m 1,16,-1
 128 512 l 1,17,-1
 256 512 l 1,18,-1
 256 384 l 1,19,-1
 128 384 l 1,16,-1
640 384 m 1,20,-1
 640 512 l 1,21,-1
 768 512 l 1,22,-1
 768 384 l 1,23,-1
 640 384 l 1,20,-1
128 256 m 1,24,-1
 128 384 l 1,25,-1
 256 384 l 1,26,-1
 256 256 l 1,27,-1
 128 256 l 1,24,-1
640 256 m 1,28,-1
 640 384 l 1,29,-1
 768 384 l 1,30,-1
 768 256 l 1,31,-1
 640 256 l 1,28,-1
128 128 m 1,32,-1
 128 256 l 1,33,-1
 256 256 l 1,34,-1
 256 128 l 1,35,-1
 128 128 l 1,32,-1
640 128 m 1,36,-1
 640 256 l 1,37,-1
 768 256 l 1,38,-1
 768 128 l 1,39,-1
 640 128 l 1,36,-1
256 0 m 1,40,-1
 256 128 l 1,41,-1
 384 128 l 1,42,-1
 384 0 l 1,43,-1
 256 0 l 1,40,-1
384 0 m 1,44,-1
 384 128 l 1,45,-1
 512 128 l 1,46,-1
 512 0 l 1,47,-1
 384 0 l 1,44,-1
512 0 m 1,48,-1
 512 128 l 1,49,-1
 640 128 l 1,50,-1
 640 0 l 1,51,-1
 512 0 l 1,48,-1
640 0 m 1,52,-1
 640 128 l 1,53,-1
 768 128 l 1,54,-1
 768 0 l 1,55,-1
 640 0 l 1,52,-1
EndSplineSet
EndChar

StartChar: v
Encoding: 118 118 119
Width: 896
Flags: W
LayerCount: 2
Fore
SplineSet
128 640 m 1,0,-1
 128 768 l 1,1,-1
 256 768 l 1,2,-1
 256 640 l 1,3,-1
 128 640 l 1,0,-1
640 640 m 1,4,-1
 640 768 l 1,5,-1
 768 768 l 1,6,-1
 768 640 l 1,7,-1
 640 640 l 1,4,-1
128 512 m 1,8,-1
 128 640 l 1,9,-1
 256 640 l 1,10,-1
 256 512 l 1,11,-1
 128 512 l 1,8,-1
640 512 m 1,12,-1
 640 640 l 1,13,-1
 768 640 l 1,14,-1
 768 512 l 1,15,-1
 640 512 l 1,12,-1
256 384 m 1,16,-1
 256 512 l 1,17,-1
 384 512 l 1,18,-1
 384 384 l 1,19,-1
 256 384 l 1,16,-1
512 384 m 1,20,-1
 512 512 l 1,21,-1
 640 512 l 1,22,-1
 640 384 l 1,23,-1
 512 384 l 1,20,-1
256 256 m 1,24,-1
 256 384 l 1,25,-1
 384 384 l 1,26,-1
 384 256 l 1,27,-1
 256 256 l 1,24,-1
512 256 m 1,28,-1
 512 384 l 1,29,-1
 640 384 l 1,30,-1
 640 256 l 1,31,-1
 512 256 l 1,28,-1
384 128 m 1,32,-1
 384 256 l 1,33,-1
 512 256 l 1,34,-1
 512 128 l 1,35,-1
 384 128 l 1,32,-1
384 0 m 1,36,-1
 384 128 l 1,37,-1
 512 128 l 1,38,-1
 512 0 l 1,39,-1
 384 0 l 1,36,-1
EndSplineSet
EndChar

StartChar: w
Encoding: 119 119 120
Width: 896
Flags: W
LayerCount: 2
Fore
SplineSet
0 640 m 1,0,-1
 0 768 l 1,1,-1
 128 768 l 1,2,-1
 128 640 l 1,3,-1
 0 640 l 1,0,-1
768 640 m 1,4,-1
 768 768 l 1,5,-1
 896 768 l 1,6,-1
 896 640 l 1,7,-1
 768 640 l 1,4,-1
0 512 m 1,8,-1
 0 640 l 1,9,-1
 128 640 l 1,10,-1
 128 512 l 1,11,-1
 0 512 l 1,8,-1
384 512 m 1,12,-1
 384 640 l 1,13,-1
 512 640 l 1,14,-1
 512 512 l 1,15,-1
 384 512 l 1,12,-1
768 512 m 1,16,-1
 768 640 l 1,17,-1
 896 640 l 1,18,-1
 896 512 l 1,19,-1
 768 512 l 1,16,-1
0 384 m 1,20,-1
 0 512 l 1,21,-1
 128 512 l 1,22,-1
 128 384 l 1,23,-1
 0 384 l 1,20,-1
384 384 m 1,24,-1
 384 512 l 1,25,-1
 512 512 l 1,26,-1
 512 384 l 1,27,-1
 384 384 l 1,24,-1
768 384 m 1,28,-1
 768 512 l 1,29,-1
 896 512 l 1,30,-1
 896 384 l 1,31,-1
 768 384 l 1,28,-1
0 256 m 1,32,-1
 0 384 l 1,33,-1
 128 384 l 1,34,-1
 128 256 l 1,35,-1
 0 256 l 1,32,-1
256 256 m 1,36,-1
 256 384 l 1,37,-1
 384 384 l 1,38,-1
 384 256 l 1,39,-1
 256 256 l 1,36,-1
512 256 m 1,40,-1
 512 384 l 1,41,-1
 640 384 l 1,42,-1
 640 256 l 1,43,-1
 512 256 l 1,40,-1
768 256 m 1,44,-1
 768 384 l 1,45,-1
 896 384 l 1,46,-1
 896 256 l 1,47,-1
 768 256 l 1,44,-1
128 128 m 1,48,-1
 128 256 l 1,49,-1
 256 256 l 1,50,-1
 256 128 l 1,51,-1
 128 128 l 1,48,-1
256 128 m 1,52,-1
 256 256 l 1,53,-1
 384 256 l 1,54,-1
 384 128 l 1,55,-1
 256 128 l 1,52,-1
512 128 m 1,56,-1
 512 256 l 1,57,-1
 640 256 l 1,58,-1
 640 128 l 1,59,-1
 512 128 l 1,56,-1
640 128 m 1,60,-1
 640 256 l 1,61,-1
 768 256 l 1,62,-1
 768 128 l 1,63,-1
 640 128 l 1,60,-1
128 0 m 1,64,-1
 128 128 l 1,65,-1
 256 128 l 1,66,-1
 256 0 l 1,67,-1
 128 0 l 1,64,-1
640 0 m 1,68,-1
 640 128 l 1,69,-1
 768 128 l 1,70,-1
 768 0 l 1,71,-1
 640 0 l 1,68,-1
EndSplineSet
EndChar

StartChar: x
Encoding: 120 120 121
Width: 896
Flags: W
LayerCount: 2
Fore
SplineSet
128 640 m 1,0,-1
 128 768 l 1,1,-1
 256 768 l 1,2,-1
 256 640 l 1,3,-1
 128 640 l 1,0,-1
640 640 m 1,4,-1
 640 768 l 1,5,-1
 768 768 l 1,6,-1
 768 640 l 1,7,-1
 640 640 l 1,4,-1
256 512 m 1,8,-1
 256 640 l 1,9,-1
 384 640 l 1,10,-1
 384 512 l 1,11,-1
 256 512 l 1,8,-1
512 512 m 1,12,-1
 512 640 l 1,13,-1
 640 640 l 1,14,-1
 640 512 l 1,15,-1
 512 512 l 1,12,-1
384 384 m 1,16,-1
 384 512 l 1,17,-1
 512 512 l 1,18,-1
 512 384 l 1,19,-1
 384 384 l 1,16,-1
384 256 m 1,20,-1
 384 384 l 1,21,-1
 512 384 l 1,22,-1
 512 256 l 1,23,-1
 384 256 l 1,20,-1
256 128 m 1,24,-1
 256 256 l 1,25,-1
 384 256 l 1,26,-1
 384 128 l 1,27,-1
 256 128 l 1,24,-1
512 128 m 1,28,-1
 512 256 l 1,29,-1
 640 256 l 1,30,-1
 640 128 l 1,31,-1
 512 128 l 1,28,-1
128 0 m 1,32,-1
 128 128 l 1,33,-1
 256 128 l 1,34,-1
 256 0 l 1,35,-1
 128 0 l 1,32,-1
640 0 m 1,36,-1
 640 128 l 1,37,-1
 768 128 l 1,38,-1
 768 0 l 1,39,-1
 640 0 l 1,36,-1
EndSplineSet
EndChar

StartChar: y
Encoding: 121 121 122
Width: 896
Flags: W
LayerCount: 2
Fore
SplineSet
128 640 m 1,0,-1
 128 768 l 1,1,-1
 256 768 l 1,2,-1
 256 640 l 1,3,-1
 128 640 l 1,0,-1
640 640 m 1,4,-1
 640 768 l 1,5,-1
 768 768 l 1,6,-1
 768 640 l 1,7,-1
 640 640 l 1,4,-1
128 512 m 1,8,-1
 128 640 l 1,9,-1
 256 640 l 1,10,-1
 256 512 l 1,11,-1
 128 512 l 1,8,-1
640 512 m 1,12,-1
 640 640 l 1,13,-1
 768 640 l 1,14,-1
 768 512 l 1,15,-1
 640 512 l 1,12,-1
128 384 m 1,16,-1
 128 512 l 1,17,-1
 256 512 l 1,18,-1
 256 384 l 1,19,-1
 128 384 l 1,16,-1
640 384 m 1,20,-1
 640 512 l 1,21,-1
 768 512 l 1,22,-1
 768 384 l 1,23,-1
 640 384 l 1,20,-1
128 256 m 1,24,-1
 128 384 l 1,25,-1
 256 384 l 1,26,-1
 256 256 l 1,27,-1
 128 256 l 1,24,-1
640 256 m 1,28,-1
 640 384 l 1,29,-1
 768 384 l 1,30,-1
 768 256 l 1,31,-1
 640 256 l 1,28,-1
128 128 m 1,32,-1
 128 256 l 1,33,-1
 256 256 l 1,34,-1
 256 128 l 1,35,-1
 128 128 l 1,32,-1
640 128 m 1,36,-1
 640 256 l 1,37,-1
 768 256 l 1,38,-1
 768 128 l 1,39,-1
 640 128 l 1,36,-1
256 0 m 1,40,-1
 256 128 l 1,41,-1
 384 128 l 1,42,-1
 384 0 l 1,43,-1
 256 0 l 1,40,-1
384 0 m 1,44,-1
 384 128 l 1,45,-1
 512 128 l 1,46,-1
 512 0 l 1,47,-1
 384 0 l 1,44,-1
512 0 m 1,48,-1
 512 128 l 1,49,-1
 640 128 l 1,50,-1
 640 0 l 1,51,-1
 512 0 l 1,48,-1
640 0 m 1,52,-1
 640 128 l 1,53,-1
 768 128 l 1,54,-1
 768 0 l 1,55,-1
 640 0 l 1,52,-1
640 -128 m 1,56,-1
 640 0 l 1,57,-1
 768 0 l 1,58,-1
 768 -128 l 1,59,-1
 640 -128 l 1,56,-1
640 -256 m 1,60,-1
 640 -128 l 1,61,-1
 768 -128 l 1,62,-1
 768 -256 l 1,63,-1
 640 -256 l 1,60,-1
256 -384 m 1,64,-1
 256 -256 l 1,65,-1
 384 -256 l 1,66,-1
 384 -384 l 1,67,-1
 256 -384 l 1,64,-1
384 -384 m 1,68,-1
 384 -256 l 1,69,-1
 512 -256 l 1,70,-1
 512 -384 l 1,71,-1
 384 -384 l 1,68,-1
512 -384 m 1,72,-1
 512 -256 l 1,73,-1
 640 -256 l 1,74,-1
 640 -384 l 1,75,-1
 512 -384 l 1,72,-1
EndSplineSet
EndChar

StartChar: z
Encoding: 122 122 123
Width: 896
Flags: W
LayerCount: 2
Fore
SplineSet
128 640 m 1,0,-1
 128 768 l 1,1,-1
 256 768 l 1,2,-1
 256 640 l 1,3,-1
 128 640 l 1,0,-1
256 640 m 1,4,-1
 256 768 l 1,5,-1
 384 768 l 1,6,-1
 384 640 l 1,7,-1
 256 640 l 1,4,-1
384 640 m 1,8,-1
 384 768 l 1,9,-1
 512 768 l 1,10,-1
 512 640 l 1,11,-1
 384 640 l 1,8,-1
512 640 m 1,12,-1
 512 768 l 1,13,-1
 640 768 l 1,14,-1
 640 640 l 1,15,-1
 512 640 l 1,12,-1
640 640 m 1,16,-1
 640 768 l 1,17,-1
 768 768 l 1,18,-1
 768 640 l 1,19,-1
 640 640 l 1,16,-1
640 512 m 1,20,-1
 640 640 l 1,21,-1
 768 640 l 1,22,-1
 768 512 l 1,23,-1
 640 512 l 1,20,-1
512 384 m 1,24,-1
 512 512 l 1,25,-1
 640 512 l 1,26,-1
 640 384 l 1,27,-1
 512 384 l 1,24,-1
384 256 m 1,28,-1
 384 384 l 1,29,-1
 512 384 l 1,30,-1
 512 256 l 1,31,-1
 384 256 l 1,28,-1
256 128 m 1,32,-1
 256 256 l 1,33,-1
 384 256 l 1,34,-1
 384 128 l 1,35,-1
 256 128 l 1,32,-1
128 0 m 1,36,-1
 128 128 l 1,37,-1
 256 128 l 1,38,-1
 256 0 l 1,39,-1
 128 0 l 1,36,-1
256 0 m 1,40,-1
 256 128 l 1,41,-1
 384 128 l 1,42,-1
 384 0 l 1,43,-1
 256 0 l 1,40,-1
384 0 m 1,44,-1
 384 128 l 1,45,-1
 512 128 l 1,46,-1
 512 0 l 1,47,-1
 384 0 l 1,44,-1
512 0 m 1,48,-1
 512 128 l 1,49,-1
 640 128 l 1,50,-1
 640 0 l 1,51,-1
 512 0 l 1,48,-1
640 0 m 1,52,-1
 640 128 l 1,53,-1
 768 128 l 1,54,-1
 768 0 l 1,55,-1
 640 0 l 1,52,-1
EndSplineSet
EndChar

StartChar: braceleft
Encoding: 123 123 124
Width: 896
Flags: W
LayerCount: 2
Fore
SplineSet
512 1024 m 1,0,-1
 512 1152 l 1,1,-1
 640 1152 l 1,2,-1
 640 1024 l 1,3,-1
 512 1024 l 1,0,-1
640 1024 m 1,4,-1
 640 1152 l 1,5,-1
 768 1152 l 1,6,-1
 768 1024 l 1,7,-1
 640 1024 l 1,4,-1
384 896 m 1,8,-1
 384 1024 l 1,9,-1
 512 1024 l 1,10,-1
 512 896 l 1,11,-1
 384 896 l 1,8,-1
384 768 m 1,12,-1
 384 896 l 1,13,-1
 512 896 l 1,14,-1
 512 768 l 1,15,-1
 384 768 l 1,12,-1
384 640 m 1,16,-1
 384 768 l 1,17,-1
 512 768 l 1,18,-1
 512 640 l 1,19,-1
 384 640 l 1,16,-1
384 512 m 1,20,-1
 384 640 l 1,21,-1
 512 640 l 1,22,-1
 512 512 l 1,23,-1
 384 512 l 1,20,-1
128 384 m 1,24,-1
 128 512 l 1,25,-1
 256 512 l 1,26,-1
 256 384 l 1,27,-1
 128 384 l 1,24,-1
256 384 m 1,28,-1
 256 512 l 1,29,-1
 384 512 l 1,30,-1
 384 384 l 1,31,-1
 256 384 l 1,28,-1
384 256 m 1,32,-1
 384 384 l 1,33,-1
 512 384 l 1,34,-1
 512 256 l 1,35,-1
 384 256 l 1,32,-1
384 128 m 1,36,-1
 384 256 l 1,37,-1
 512 256 l 1,38,-1
 512 128 l 1,39,-1
 384 128 l 1,36,-1
384 0 m 1,40,-1
 384 128 l 1,41,-1
 512 128 l 1,42,-1
 512 0 l 1,43,-1
 384 0 l 1,40,-1
384 -128 m 1,44,-1
 384 0 l 1,45,-1
 512 0 l 1,46,-1
 512 -128 l 1,47,-1
 384 -128 l 1,44,-1
512 -256 m 1,48,-1
 512 -128 l 1,49,-1
 640 -128 l 1,50,-1
 640 -256 l 1,51,-1
 512 -256 l 1,48,-1
640 -256 m 1,52,-1
 640 -128 l 1,53,-1
 768 -128 l 1,54,-1
 768 -256 l 1,55,-1
 640 -256 l 1,52,-1
EndSplineSet
EndChar

StartChar: bar
Encoding: 124 124 125
Width: 896
Flags: W
LayerCount: 2
Fore
SplineSet
384 1024 m 1,0,-1
 384 1152 l 1,1,-1
 512 1152 l 1,2,-1
 512 1024 l 1,3,-1
 384 1024 l 1,0,-1
384 896 m 1,4,-1
 384 1024 l 1,5,-1
 512 1024 l 1,6,-1
 512 896 l 1,7,-1
 384 896 l 1,4,-1
384 768 m 1,8,-1
 384 896 l 1,9,-1
 512 896 l 1,10,-1
 512 768 l 1,11,-1
 384 768 l 1,8,-1
384 640 m 1,12,-1
 384 768 l 1,13,-1
 512 768 l 1,14,-1
 512 640 l 1,15,-1
 384 640 l 1,12,-1
384 512 m 1,16,-1
 384 640 l 1,17,-1
 512 640 l 1,18,-1
 512 512 l 1,19,-1
 384 512 l 1,16,-1
384 384 m 1,20,-1
 384 512 l 1,21,-1
 512 512 l 1,22,-1
 512 384 l 1,23,-1
 384 384 l 1,20,-1
384 256 m 1,24,-1
 384 384 l 1,25,-1
 512 384 l 1,26,-1
 512 256 l 1,27,-1
 384 256 l 1,24,-1
384 128 m 1,28,-1
 384 256 l 1,29,-1
 512 256 l 1,30,-1
 512 128 l 1,31,-1
 384 128 l 1,28,-1
384 0 m 1,32,-1
 384 128 l 1,33,-1
 512 128 l 1,34,-1
 512 0 l 1,35,-1
 384 0 l 1,32,-1
384 -128 m 1,36,-1
 384 0 l 1,37,-1
 512 0 l 1,38,-1
 512 -128 l 1,39,-1
 384 -128 l 1,36,-1
384 -256 m 1,40,-1
 384 -128 l 1,41,-1
 512 -128 l 1,42,-1
 512 -256 l 1,43,-1
 384 -256 l 1,40,-1
EndSplineSet
EndChar

StartChar: braceright
Encoding: 125 125 126
Width: 896
Flags: W
LayerCount: 2
Fore
SplineSet
128 1024 m 1,0,-1
 128 1152 l 1,1,-1
 256 1152 l 1,2,-1
 256 1024 l 1,3,-1
 128 1024 l 1,0,-1
256 1024 m 1,4,-1
 256 1152 l 1,5,-1
 384 1152 l 1,6,-1
 384 1024 l 1,7,-1
 256 1024 l 1,4,-1
384 896 m 1,8,-1
 384 1024 l 1,9,-1
 512 1024 l 1,10,-1
 512 896 l 1,11,-1
 384 896 l 1,8,-1
384 768 m 1,12,-1
 384 896 l 1,13,-1
 512 896 l 1,14,-1
 512 768 l 1,15,-1
 384 768 l 1,12,-1
384 640 m 1,16,-1
 384 768 l 1,17,-1
 512 768 l 1,18,-1
 512 640 l 1,19,-1
 384 640 l 1,16,-1
384 512 m 1,20,-1
 384 640 l 1,21,-1
 512 640 l 1,22,-1
 512 512 l 1,23,-1
 384 512 l 1,20,-1
512 384 m 1,24,-1
 512 512 l 1,25,-1
 640 512 l 1,26,-1
 640 384 l 1,27,-1
 512 384 l 1,24,-1
640 384 m 1,28,-1
 640 512 l 1,29,-1
 768 512 l 1,30,-1
 768 384 l 1,31,-1
 640 384 l 1,28,-1
384 256 m 1,32,-1
 384 384 l 1,33,-1
 512 384 l 1,34,-1
 512 256 l 1,35,-1
 384 256 l 1,32,-1
384 128 m 1,36,-1
 384 256 l 1,37,-1
 512 256 l 1,38,-1
 512 128 l 1,39,-1
 384 128 l 1,36,-1
384 0 m 1,40,-1
 384 128 l 1,41,-1
 512 128 l 1,42,-1
 512 0 l 1,43,-1
 384 0 l 1,40,-1
384 -128 m 1,44,-1
 384 0 l 1,45,-1
 512 0 l 1,46,-1
 512 -128 l 1,47,-1
 384 -128 l 1,44,-1
128 -256 m 1,48,-1
 128 -128 l 1,49,-1
 256 -128 l 1,50,-1
 256 -256 l 1,51,-1
 128 -256 l 1,48,-1
256 -256 m 1,52,-1
 256 -128 l 1,53,-1
 384 -128 l 1,54,-1
 384 -256 l 1,55,-1
 256 -256 l 1,52,-1
EndSplineSet
EndChar

StartChar: asciitilde
Encoding: 126 126 127
Width: 896
Flags: W
LayerCount: 2
Fore
SplineSet
128 512 m 1,0,-1
 128 640 l 1,1,-1
 256 640 l 1,2,-1
 256 512 l 1,3,-1
 128 512 l 1,0,-1
256 512 m 1,4,-1
 256 640 l 1,5,-1
 384 640 l 1,6,-1
 384 512 l 1,7,-1
 256 512 l 1,4,-1
384 512 m 1,8,-1
 384 640 l 1,9,-1
 512 640 l 1,10,-1
 512 512 l 1,11,-1
 384 512 l 1,8,-1
768 512 m 1,12,-1
 768 640 l 1,13,-1
 896 640 l 1,14,-1
 896 512 l 1,15,-1
 768 512 l 1,12,-1
0 384 m 1,16,-1
 0 512 l 1,17,-1
 128 512 l 1,18,-1
 128 384 l 1,19,-1
 0 384 l 1,16,-1
384 384 m 1,20,-1
 384 512 l 1,21,-1
 512 512 l 1,22,-1
 512 384 l 1,23,-1
 384 384 l 1,20,-1
512 384 m 1,24,-1
 512 512 l 1,25,-1
 640 512 l 1,26,-1
 640 384 l 1,27,-1
 512 384 l 1,24,-1
640 384 m 1,28,-1
 640 512 l 1,29,-1
 768 512 l 1,30,-1
 768 384 l 1,31,-1
 640 384 l 1,28,-1
EndSplineSet
EndChar

StartChar: Euro
Encoding: 8364 8364 129
Width: 896
Flags: W
LayerCount: 2
Fore
SplineSet
384 768 m 1,0,-1
 384 896 l 1,1,-1
 512 896 l 1,2,-1
 512 768 l 1,3,-1
 384 768 l 1,0,-1
512 768 m 1,4,-1
 512 896 l 1,5,-1
 640 896 l 1,6,-1
 640 768 l 1,7,-1
 512 768 l 1,4,-1
640 768 m 1,8,-1
 640 896 l 1,9,-1
 768 896 l 1,10,-1
 768 768 l 1,11,-1
 640 768 l 1,8,-1
256 640 m 1,12,-1
 256 768 l 1,13,-1
 384 768 l 1,14,-1
 384 640 l 1,15,-1
 256 640 l 1,12,-1
768 640 m 1,16,-1
 768 768 l 1,17,-1
 896 768 l 1,18,-1
 896 640 l 1,19,-1
 768 640 l 1,16,-1
128 512 m 1,20,-1
 128 640 l 1,21,-1
 256 640 l 1,22,-1
 256 512 l 1,23,-1
 128 512 l 1,20,-1
256 512 m 1,24,-1
 256 640 l 1,25,-1
 384 640 l 1,26,-1
 384 512 l 1,27,-1
 256 512 l 1,24,-1
384 512 m 1,28,-1
 384 640 l 1,29,-1
 512 640 l 1,30,-1
 512 512 l 1,31,-1
 384 512 l 1,28,-1
512 512 m 1,32,-1
 512 640 l 1,33,-1
 640 640 l 1,34,-1
 640 512 l 1,35,-1
 512 512 l 1,32,-1
256 384 m 1,36,-1
 256 512 l 1,37,-1
 384 512 l 1,38,-1
 384 384 l 1,39,-1
 256 384 l 1,36,-1
128 256 m 1,40,-1
 128 384 l 1,41,-1
 256 384 l 1,42,-1
 256 256 l 1,43,-1
 128 256 l 1,40,-1
256 256 m 1,44,-1
 256 384 l 1,45,-1
 384 384 l 1,46,-1
 384 256 l 1,47,-1
 256 256 l 1,44,-1
384 256 m 1,48,-1
 384 384 l 1,49,-1
 512 384 l 1,50,-1
 512 256 l 1,51,-1
 384 256 l 1,48,-1
512 256 m 1,52,-1
 512 384 l 1,53,-1
 640 384 l 1,54,-1
 640 256 l 1,55,-1
 512 256 l 1,52,-1
256 128 m 1,56,-1
 256 256 l 1,57,-1
 384 256 l 1,58,-1
 384 128 l 1,59,-1
 256 128 l 1,56,-1
768 128 m 1,60,-1
 768 256 l 1,61,-1
 896 256 l 1,62,-1
 896 128 l 1,63,-1
 768 128 l 1,60,-1
384 0 m 1,64,-1
 384 128 l 1,65,-1
 512 128 l 1,66,-1
 512 0 l 1,67,-1
 384 0 l 1,64,-1
512 0 m 1,68,-1
 512 128 l 1,69,-1
 640 128 l 1,70,-1
 640 0 l 1,71,-1
 512 0 l 1,68,-1
640 0 m 1,72,-1
 640 128 l 1,73,-1
 768 128 l 1,74,-1
 768 0 l 1,75,-1
 640 0 l 1,72,-1
EndSplineSet
EndChar

StartChar: unicode#0x0081
Encoding: 129 129 130
Width: 1690
VWidth: 1048
Flags: W
LayerCount: 2
Fore
SplineSet
1420.20019531 1025 m 2,0,-1
 1276.20019531 881 l 1,1,-1
 982.799804688 1176.20019531 l 1,2,-1
 1125 1320.20019531 l 2,3,4
 1135.66193025 1330.86140253 1135.66193025 1330.86140253 1150.01860627 1336.33060361 c 128,-1,5
 1164.37528228 1341.79980469 1164.37528228 1341.79980469 1180.79980469 1341.79980469 c 0,6,7
 1215 1341.79980469 1215 1341.79980469 1236.59960938 1320.20019531 c 2,8,-1
 1420.20019531 1136.59960938 l 2,9,10
 1431.22483826 1125.57496643 1431.22483826 1125.57496643 1437.41222382 1111.13754696 c 128,-1,11
 1443.59960938 1096.70012749 1443.59960938 1096.70012749 1443.59960938 1080.79980469 c 0,12,13
 1443.59960938 1048.40100099 1443.59960938 1048.40100099 1420.20019531 1025 c 2,0,-1
27 222.200195312 m 1,14,-1
 896.400390625 1091.59960938 l 1,15,-1
 1191.59960938 796.400390625 l 1,16,-1
 322.200195312 -73 l 1,17,-1
 27 -73 l 1,18,-1
 27 222.200195312 l 1,14,-1
EndSplineSet
EndChar

StartChar: unicode#0x0082
Encoding: 130 130 131
Width: 1732
VWidth: 1048
Flags: W
LayerCount: 2
Fore
SplineSet
1230 1486 m 1,0,-1
 1662 374 l 1,1,-1
 1230 120 l 1,2,-1
 1172 156 l 1,3,4
 1184 201 1184 201 1184 248 c 0,5,6
 1184 344 1184 344 1138 424 c 0,7,8
 1103 484 1103 484 1055.5 524.5 c 128,-1,9
 1008 565 1008 565 978 575.5 c 2,10,-1
 948 586 l 1,11,-1
 948 822 l 1,12,-1
 1230 1486 l 1,0,-1
24 870 m 1,13,-1
 458 1124 l 1,14,-1
 868 870 l 1,15,-1
 868 602 l 1,16,17
 864 600 864 600 847 602.5 c 128,-1,18
 830 605 830 605 792 599 c 128,-1,19
 754 593 754 593 714.5 583.5 c 128,-1,20
 675 574 675 574 626.5 549 c 128,-1,21
 578 524 578 524 540 488 c 128,-1,22
 502 452 502 452 478 404.5 c 128,-1,23
 454 357 454 357 446.5 314 c 128,-1,24
 439 271 439 271 437.5 233.5 c 128,-1,25
 436 196 436 196 439 174 c 2,26,-1
 442 152 l 1,27,-1
 24 388 l 1,28,-1
 24 870 l 1,13,-1
520 228 m 128,-1,30
 520 351 520 351 606.5 437.5 c 128,-1,31
 693 524 693 524 816 524 c 128,-1,32
 939 524 939 524 1026.5 437.5 c 128,-1,33
 1114 351 1114 351 1114 228 c 128,-1,34
 1114 105 1114 105 1026.5 17.5 c 128,-1,35
 939 -70 939 -70 816 -70 c 128,-1,36
 693 -70 693 -70 606.5 17.5 c 128,-1,29
 520 105 520 105 520 228 c 128,-1,30
EndSplineSet
EndChar

StartChar: unicode#0x0083
Encoding: 131 131 132
Width: 1744
VWidth: 1048
Flags: W
LayerCount: 2
Fore
SplineSet
640.799804688 -54.400390625 m 1,0,1
 644.516807452 -46.9663850976 644.516807452 -46.9663850976 662.513378391 -15.9722343959 c 128,-1,2
 680.50994933 15.0219163058 680.50994933 15.0219163058 719.886361193 82.9715833542 c 128,-1,3
 759.262773057 150.921250403 759.262773057 150.921250403 799.200195312 221 c 0,4,5
 933.259424744 456.236627782 933.259424744 456.236627782 1020.59960937 600.799804688 c 1,6,-1
 1308.59960938 104 l 1,7,8
 1089.89930309 -74.2001953125 1089.89930309 -74.2001953125 810 -74.2001953125 c 0,9,10
 736.973573092 -74.2001953125 736.973573092 -74.2001953125 640.799804688 -54.400390625 c 1,0,1
57.599609375 476.599609375 m 1,11,-1
 820.799804688 476.599609375 l 1,12,-1
 531 -22 l 1,13,14
 366.265263812 38.1401945473 366.265263812 38.1401945473 237.599609375 172.399414062 c 0,15,16
 111.56285428 303.916932909 111.56285428 303.916932909 57.599609375 476.599609375 c 1,11,-1
232.200195312 1243.39941406 m 1,17,-1
 630 554 l 1,18,-1
 39.599609375 554 l 1,19,20
 25.2001953125 628.876640639 25.2001953125 628.876640639 25.2001953125 712.399414062 c 0,21,22
 25.2001953125 1017.33580223 25.2001953125 1017.33580223 232.200195312 1243.39941406 c 1,17,-1
1580.39941406 870.799804688 m 1,23,24
 1587.9784275 831.389099272 1587.9784275 831.389099272 1592.28901844 792.594320517 c 128,-1,25
 1596.59960938 753.799541763 1596.59960938 753.799541763 1596.59960938 712.399414062 c 0,26,27
 1596.59960938 407.466117388 1596.59960938 407.466117388 1389.59960938 181.399414062 c 1,28,-1
 1013.39941406 829.399414062 l 1,29,-1
 991.799804688 870.799804688 l 1,30,-1
 1580.39941406 870.799804688 l 1,23,24
1562.39941406 948.200195312 m 1,31,-1
 799.200195312 948.200195312 l 1,32,-1
 1090.79980469 1445 l 1,33,34
 1133.17135613 1429.53092824 1133.17135613 1429.53092824 1172.79400769 1409.62161844 c 128,-1,35
 1212.41665926 1389.71230864 1212.41665926 1389.71230864 1249.02139148 1365.54351218 c 128,-1,36
 1285.6261237 1341.37471573 1285.6261237 1341.37471573 1319.32519665 1313.15268533 c 128,-1,37
 1353.02426961 1284.93065492 1353.02426961 1284.93065492 1384.20019531 1252.39941406 c 0,38,39
 1507.56390506 1123.67263411 1507.56390506 1123.67263411 1562.39941406 948.200195312 c 1,31,-1
608.399414062 829.399414062 m 1,40,-1
 601.200195312 822.200195312 l 1,41,-1
 313.200195312 1320.79980469 l 1,42,43
 529.691649708 1497.20019531 529.691649708 1497.20019531 810 1497.20019531 c 0,44,45
 891.768634349 1497.20019531 891.768634349 1497.20019531 979.200195312 1479.20019531 c 1,46,-1
 608.399414062 829.399414062 l 1,40,-1
EndSplineSet
EndChar

StartChar: unicode#0x0084
Encoding: 132 132 133
Width: 1780
VWidth: 1048
Flags: W
LayerCount: 2
Fore
SplineSet
1272 858 m 1,0,-1
 1622 1206 l 1,1,-1
 1622 248 l 1,2,-1
 1272 596 l 1,3,-1
 1272 290 l 2,4,5
 1272 251 1272 251 1246 228 c 0,6,7
 1219 204 1219 204 1182 204 c 2,8,-1
 134 204 l 2,9,10
 96 204 96 204 72 228 c 128,-1,11
 48 252 48 252 48 290 c 2,12,-1
 48 1166 l 2,13,14
 48 1204 48 1204 72 1228 c 128,-1,15
 96 1252 96 1252 134 1252 c 2,16,-1
 1182 1252 l 2,17,18
 1219 1252 1219 1252 1246 1228 c 0,19,20
 1272 1205 1272 1205 1272 1166 c 2,21,-1
 1272 858 l 1,0,-1
EndSplineSet
EndChar

StartChar: unicode#0x0085
Encoding: 133 133 134
Width: 1830
VWidth: 1048
Flags: W
LayerCount: 2
Fore
SplineSet
1278.29980469 270.799804688 m 1,0,-1
 1382 371.099609375 l 1,1,-1
 1514.59960938 240.19921875 l 1,2,-1
 1409.20019531 134.799804688 l 1,3,-1
 1278.29980469 270.799804688 l 1,0,-1
1482.29980469 838.599609375 m 1,4,-1
 1706.70019531 838.599609375 l 1,5,-1
 1706.70019531 689 l 1,6,-1
 1482.29980469 689 l 1,7,-1
 1482.29980469 838.599609375 l 1,4,-1
1110 1148 m 1,8,9
 1212.77946133 1088.90092411 1212.77946133 1088.90092411 1273.20019531 988.19921875 c 0,10,11
 1332.70019531 889.032077369 1332.70019531 889.032077369 1332.70019531 765.5 c 0,12,13
 1332.70019531 673.119069736 1332.70019531 673.119069736 1300.4145475 593.52388706 c 128,-1,14
 1268.12889969 513.928704384 1268.12889969 513.928704384 1203.5 449.299804688 c 0,15,16
 1074.29980469 320.099609375 1074.29980469 320.099609375 887.299804688 320.099609375 c 0,17,18
 702 320.099609375 702 320.099609375 572.799804688 449.299804688 c 0,19,20
 441.900390625 580.199218749 441.900390625 580.199218749 441.900390625 765.5 c 0,21,22
 441.900390625 886.200032555 441.900390625 886.200032555 503.099609375 988.19921875 c 128,-1,23
 564.418120715 1090.39478078 564.418120715 1090.39478078 664.599609375 1148 c 1,24,-1
 664.599609375 1506.69921875 l 1,25,-1
 1110 1506.69921875 l 1,26,-1
 1110 1148 l 1,8,9
292.299804688 838.599609375 m 1,27,-1
 292.299804688 689 l 1,28,-1
 69.599609375 689 l 1,29,-1
 69.599609375 838.599609375 l 1,30,-1
 292.299804688 838.599609375 l 1,27,-1
814.200195312 -48.80078125 m 1,31,-1
 814.200195312 170.5 l 1,32,-1
 960.400390625 170.5 l 1,33,-1
 960.400390625 -48.80078125 l 1,34,-1
 814.200195312 -48.80078125 l 1,31,-1
261.700195312 240.19921875 m 1,35,-1
 392.599609375 374.5 l 1,36,-1
 498 270.799804688 l 1,37,-1
 365.400390625 134.799804688 l 1,38,-1
 261.700195312 240.19921875 l 1,35,-1
EndSplineSet
EndChar

StartChar: unicode#0x0086
Encoding: 134 134 135
Width: 1630
VWidth: 1048
Flags: W
LayerCount: 2
Fore
SplineSet
1218 406.399414062 m 0,0,1
 1265.20603019 406.399414062 1265.20603019 406.399414062 1306.61212577 389.090498706 c 128,-1,2
 1348.01822134 371.781583351 1348.01822134 371.781583351 1381.79980469 338 c 0,3,4
 1446.60058594 273.19921875 1446.60058594 273.19921875 1446.60058594 177.799804688 c 0,5,6
 1446.60058594 80.60058594 1446.60058594 80.60058594 1380 14 c 0,7,8
 1311.59960938 -54.400390625 1311.59960938 -54.400390625 1218 -54.400390625 c 0,9,10
 1126.20019531 -54.400390625 1126.20019531 -54.400390625 1057.79980469 14 c 128,-1,11
 989.400390625 82.399414065 989.400390625 82.399414065 989.400390625 177.799804688 c 0,12,13
 989.400390625 203.000000005 989.400390625 203.000000005 994.799804688 230 c 1,14,-1
 436.799804688 554 l 1,15,16
 365.583382552 491 365.583382552 491 274.799804688 491 c 0,17,18
 179.399414062 491 179.399414062 491 109.200195312 561.19921875 c 128,-1,19
 39 631.400878917 39 631.400878917 39 726.799804688 c 128,-1,20
 39 822.19921875 39 822.19921875 109.200195312 892.399414062 c 128,-1,21
 179.400390625 962.599609375 179.400390625 962.599609375 274.799804688 962.599609375 c 0,22,23
 367.617916686 962.599609375 367.617916686 962.599609375 436.799804688 901.399414062 c 1,24,-1
 989.400390625 1221.79980469 l 1,25,26
 982.200195312 1255.39854611 982.200195312 1255.39854611 982.200195312 1275.79980469 c 0,27,28
 982.200195312 1299.46694851 982.200195312 1299.46694851 986.602471191 1321.97460747 c 128,-1,29
 991.00474707 1344.48226642 991.00474707 1344.48226642 999.735648316 1365.5528431 c 128,-1,30
 1008.46654956 1386.62341977 1008.46654956 1386.62341977 1021.7026604 1406.18050956 c 128,-1,31
 1034.93877124 1425.73759936 1034.93877124 1425.73759936 1052.40039062 1443.19921875 c 0,32,33
 1122.59912111 1513.39941406 1122.59912111 1513.39941406 1218 1513.39941406 c 0,34,35
 1265.58787889 1513.39941406 1265.58787889 1513.39941406 1308.06454237 1495.72927249 c 128,-1,36
 1350.54120586 1478.05913092 1350.54120586 1478.05913092 1385.40039062 1443.19921875 c 0,37,38
 1455.60058594 1372.99902343 1455.60058594 1372.99902343 1455.60058594 1275.79980469 c 0,39,40
 1455.60058594 1244.2665603 1455.60058594 1244.2665603 1447.81262723 1215.27864093 c 128,-1,41
 1440.02466853 1186.29072157 1440.02466853 1186.29072157 1424.38821912 1159.92090334 c 128,-1,42
 1408.75176971 1133.5510851 1408.75176971 1133.5510851 1385.40039062 1110.19921875 c 0,43,44
 1315.20117188 1040 1315.20117188 1040 1218 1040 c 0,45,46
 1127.92844532 1040 1127.92844532 1040 1056 1106.59960938 c 1,47,-1
 503.400390625 782.599609375 l 1,48,49
 510.600585938 748.994791137 510.600585938 748.994791137 510.600585938 726.799804688 c 0,50,51
 510.600585938 706.404622925 510.600585938 706.404622925 503.400390625 672.799804688 c 1,52,-1
 1063.20019531 347 l 1,53,54
 1130.70019531 406.399414062 1130.70019531 406.399414062 1218 406.399414062 c 0,0,1
EndSplineSet
EndChar

StartChar: unicode#0x0087
Encoding: 135 135 136
Width: 1632
VWidth: 1780
Flags: W
LayerCount: 2
Fore
SplineSet
1403 1524 m 2,0,1
 1470.99951172 1524 1470.99951172 1524 1523 1472 c 128,-1,2
 1575.00048828 1419.99951172 1575.00048828 1419.99951172 1575 1352 c 2,3,-1
 1575 160 l 2,4,5
 1575 92.000488282 1575 92.000488282 1523 40 c 128,-1,6
 1470.99951172 -12.0004882812 1470.99951172 -12.0004882812 1403 -12 c 2,7,-1
 211 -12 l 2,8,9
 139 -12 139 -12 89 40 c 128,-1,10
 39.0004882812 92.0004882812 39.0004882812 92.0004882812 39 160 c 2,11,-1
 39 500 l 1,12,-1
 211 500 l 1,13,-1
 211 160 l 1,14,-1
 1403 160 l 1,15,-1
 1403 1352 l 1,16,-1
 211 1352 l 1,17,-1
 211 1012 l 1,18,-1
 39 1012 l 1,19,-1
 39 1352 l 2,20,21
 39 1419.99951172 39 1419.99951172 89 1472 c 128,-1,22
 138.999511718 1524.00048828 138.999511718 1524.00048828 211 1524 c 2,23,-1
 1403 1524 l 2,0,1
643 448 m 1,24,-1
 863 672 l 1,25,-1
 39 672 l 1,26,-1
 39 840 l 1,27,-1
 863 840 l 1,28,-1
 643 1064 l 1,29,-1
 763 1184 l 1,30,-1
 1191 756 l 1,31,-1
 763 328 l 1,32,-1
 643 448 l 1,24,-1
EndSplineSet
EndChar

StartChar: unicode#0x0088
Encoding: 136 136 137
Width: 1656
VWidth: 1780
Flags: W
LayerCount: 2
Fore
SplineSet
1419 840 m 1,0,-1
 1419 1352 l 1,1,-1
 227 1352 l 1,2,-1
 227 840 l 1,3,-1
 395 840 l 1,4,-1
 395 672 l 1,5,-1
 567 672 l 1,6,-1
 567 500 l 1,7,-1
 739 500 l 1,8,-1
 739 672 l 1,9,-1
 907 672 l 1,10,-1
 907 500 l 1,11,-1
 1079 500 l 1,12,-1
 1079 672 l 1,13,-1
 1251 672 l 1,14,-1
 1251 840 l 1,15,-1
 1419 840 l 1,0,-1
1251 244 m 1,16,-1
 1251 416 l 1,17,-1
 1079 416 l 1,18,-1
 1079 244 l 1,19,-1
 1251 244 l 1,16,-1
907 244 m 1,20,-1
 907 416 l 1,21,-1
 739 416 l 1,22,-1
 739 244 l 1,23,-1
 907 244 l 1,20,-1
567 244 m 1,24,-1
 567 416 l 1,25,-1
 395 416 l 1,26,-1
 395 244 l 1,27,-1
 567 244 l 1,24,-1
1419 1524 m 2,28,29
 1486.99951172 1524 1486.99951172 1524 1539 1472 c 128,-1,30
 1591.00048828 1419.99951172 1591.00048828 1419.99951172 1591 1352 c 2,31,-1
 1591 160 l 2,32,33
 1591 92.000488282 1591 92.000488282 1539 40 c 128,-1,34
 1486.99951172 -12.0004882812 1486.99951172 -12.0004882812 1419 -12 c 2,35,-1
 227 -12 l 2,36,37
 159.000488282 -12 159.000488282 -12 107 40 c 128,-1,38
 54.9995117188 92.0004882812 54.9995117188 92.0004882812 55 160 c 2,39,-1
 55 1352 l 2,40,41
 55 1419.99951172 55 1419.99951172 107 1472 c 128,-1,42
 159.000488282 1524.00048828 159.000488282 1524.00048828 227 1524 c 2,43,-1
 1419 1524 l 2,28,29
395 1012 m 1,44,-1
 567 1012 l 1,45,-1
 567 840 l 1,46,-1
 395 840 l 1,47,-1
 395 1012 l 1,44,-1
1079 1012 m 1,48,-1
 1251 1012 l 1,49,-1
 1251 840 l 1,50,-1
 1079 840 l 1,51,-1
 1079 1012 l 1,48,-1
739 1012 m 1,52,-1
 907 1012 l 1,53,-1
 907 840 l 1,54,-1
 1079 840 l 1,55,-1
 1079 672 l 1,56,-1
 907 672 l 1,57,-1
 907 840 l 1,58,-1
 739 840 l 1,59,-1
 739 672 l 1,60,-1
 567 672 l 1,61,-1
 567 840 l 1,62,-1
 739 840 l 1,63,-1
 739 1012 l 1,52,-1
1251 672 m 1,64,-1
 1251 500 l 1,65,-1
 1419 500 l 1,66,-1
 1419 672 l 1,67,-1
 1251 672 l 1,64,-1
395 672 m 1,68,-1
 227 672 l 1,69,-1
 227 500 l 1,70,-1
 395 500 l 1,71,-1
 395 672 l 1,68,-1
EndSplineSet
EndChar

StartChar: unicode#0x0089
Encoding: 137 137 138
Width: 896
Flags: W
LayerCount: 2
Fore
SplineSet
512 896 m 1,0,-1
 512 1024 l 1,1,-1
 640 1024 l 1,2,-1
 640 896 l 1,3,-1
 512 896 l 1,0,-1
128 768 m 1,4,-1
 128 896 l 1,5,-1
 256 896 l 1,6,-1
 256 768 l 1,7,-1
 128 768 l 1,4,-1
512 768 m 1,8,-1
 512 896 l 1,9,-1
 640 896 l 1,10,-1
 640 768 l 1,11,-1
 512 768 l 1,8,-1
128 640 m 1,12,-1
 128 768 l 1,13,-1
 256 768 l 1,14,-1
 256 640 l 1,15,-1
 128 640 l 1,12,-1
384 640 m 1,16,-1
 384 768 l 1,17,-1
 512 768 l 1,18,-1
 512 640 l 1,19,-1
 384 640 l 1,16,-1
384 512 m 1,20,-1
 384 640 l 1,21,-1
 512 640 l 1,22,-1
 512 512 l 1,23,-1
 384 512 l 1,20,-1
256 384 m 1,24,-1
 256 512 l 1,25,-1
 384 512 l 1,26,-1
 384 384 l 1,27,-1
 256 384 l 1,24,-1
256 256 m 1,28,-1
 256 384 l 1,29,-1
 384 384 l 1,30,-1
 384 256 l 1,31,-1
 256 256 l 1,28,-1
512 256 m 1,32,-1
 512 384 l 1,33,-1
 640 384 l 1,34,-1
 640 256 l 1,35,-1
 512 256 l 1,32,-1
768 256 m 1,36,-1
 768 384 l 1,37,-1
 896 384 l 1,38,-1
 896 256 l 1,39,-1
 768 256 l 1,36,-1
128 128 m 1,40,-1
 128 256 l 1,41,-1
 256 256 l 1,42,-1
 256 128 l 1,43,-1
 128 128 l 1,40,-1
512 128 m 1,44,-1
 512 256 l 1,45,-1
 640 256 l 1,46,-1
 640 128 l 1,47,-1
 512 128 l 1,44,-1
768 128 m 1,48,-1
 768 256 l 1,49,-1
 896 256 l 1,50,-1
 896 128 l 1,51,-1
 768 128 l 1,48,-1
128 0 m 1,52,-1
 128 128 l 1,53,-1
 256 128 l 1,54,-1
 256 0 l 1,55,-1
 128 0 l 1,52,-1
EndSplineSet
EndChar

StartChar: unicode#0x008a
Encoding: 138 138 139
Width: 896
Flags: W
LayerCount: 2
Fore
SplineSet
256 1152 m 1,0,-1
 256 1280 l 1,1,-1
 384 1280 l 1,2,-1
 384 1152 l 1,3,-1
 256 1152 l 1,0,-1
512 1152 m 1,4,-1
 512 1280 l 1,5,-1
 640 1280 l 1,6,-1
 640 1152 l 1,7,-1
 512 1152 l 1,4,-1
384 1024 m 1,8,-1
 384 1152 l 1,9,-1
 512 1152 l 1,10,-1
 512 1024 l 1,11,-1
 384 1024 l 1,8,-1
256 896 m 1,12,-1
 256 1024 l 1,13,-1
 384 1024 l 1,14,-1
 384 896 l 1,15,-1
 256 896 l 1,12,-1
384 896 m 1,16,-1
 384 1024 l 1,17,-1
 512 1024 l 1,18,-1
 512 896 l 1,19,-1
 384 896 l 1,16,-1
512 896 m 1,20,-1
 512 1024 l 1,21,-1
 640 1024 l 1,22,-1
 640 896 l 1,23,-1
 512 896 l 1,20,-1
640 896 m 1,24,-1
 640 1024 l 1,25,-1
 768 1024 l 1,26,-1
 768 896 l 1,27,-1
 640 896 l 1,24,-1
128 768 m 1,28,-1
 128 896 l 1,29,-1
 256 896 l 1,30,-1
 256 768 l 1,31,-1
 128 768 l 1,28,-1
768 768 m 1,32,-1
 768 896 l 1,33,-1
 896 896 l 1,34,-1
 896 768 l 1,35,-1
 768 768 l 1,32,-1
128 640 m 1,36,-1
 128 768 l 1,37,-1
 256 768 l 1,38,-1
 256 640 l 1,39,-1
 128 640 l 1,36,-1
256 512 m 1,40,-1
 256 640 l 1,41,-1
 384 640 l 1,42,-1
 384 512 l 1,43,-1
 256 512 l 1,40,-1
384 512 m 1,44,-1
 384 640 l 1,45,-1
 512 640 l 1,46,-1
 512 512 l 1,47,-1
 384 512 l 1,44,-1
512 384 m 1,48,-1
 512 512 l 1,49,-1
 640 512 l 1,50,-1
 640 384 l 1,51,-1
 512 384 l 1,48,-1
640 384 m 1,52,-1
 640 512 l 1,53,-1
 768 512 l 1,54,-1
 768 384 l 1,55,-1
 640 384 l 1,52,-1
768 256 m 1,56,-1
 768 384 l 1,57,-1
 896 384 l 1,58,-1
 896 256 l 1,59,-1
 768 256 l 1,56,-1
128 128 m 1,60,-1
 128 256 l 1,61,-1
 256 256 l 1,62,-1
 256 128 l 1,63,-1
 128 128 l 1,60,-1
768 128 m 1,64,-1
 768 256 l 1,65,-1
 896 256 l 1,66,-1
 896 128 l 1,67,-1
 768 128 l 1,64,-1
256 0 m 1,68,-1
 256 128 l 1,69,-1
 384 128 l 1,70,-1
 384 0 l 1,71,-1
 256 0 l 1,68,-1
384 0 m 1,72,-1
 384 128 l 1,73,-1
 512 128 l 1,74,-1
 512 0 l 1,75,-1
 384 0 l 1,72,-1
512 0 m 1,76,-1
 512 128 l 1,77,-1
 640 128 l 1,78,-1
 640 0 l 1,79,-1
 512 0 l 1,76,-1
640 0 m 1,80,-1
 640 128 l 1,81,-1
 768 128 l 1,82,-1
 768 0 l 1,83,-1
 640 0 l 1,80,-1
EndSplineSet
EndChar

StartChar: unicode#0x008b
Encoding: 139 139 140
Width: 896
Flags: W
LayerCount: 2
Fore
SplineSet
384 640 m 1,0,-1
 384 768 l 1,1,-1
 512 768 l 1,2,-1
 512 640 l 1,3,-1
 384 640 l 1,0,-1
256 512 m 1,4,-1
 256 640 l 1,5,-1
 384 640 l 1,6,-1
 384 512 l 1,7,-1
 256 512 l 1,4,-1
128 384 m 1,8,-1
 128 512 l 1,9,-1
 256 512 l 1,10,-1
 256 384 l 1,11,-1
 128 384 l 1,8,-1
256 256 m 1,12,-1
 256 384 l 1,13,-1
 384 384 l 1,14,-1
 384 256 l 1,15,-1
 256 256 l 1,12,-1
384 128 m 1,16,-1
 384 256 l 1,17,-1
 512 256 l 1,18,-1
 512 128 l 1,19,-1
 384 128 l 1,16,-1
EndSplineSet
EndChar

StartChar: unicode#0x008c
Encoding: 140 140 141
Width: 896
Flags: W
LayerCount: 2
Fore
SplineSet
128 896 m 1,0,-1
 128 1024 l 1,1,-1
 256 1024 l 1,2,-1
 256 896 l 1,3,-1
 128 896 l 1,0,-1
256 896 m 1,4,-1
 256 1024 l 1,5,-1
 384 1024 l 1,6,-1
 384 896 l 1,7,-1
 256 896 l 1,4,-1
512 896 m 1,8,-1
 512 1024 l 1,9,-1
 640 1024 l 1,10,-1
 640 896 l 1,11,-1
 512 896 l 1,8,-1
640 896 m 1,12,-1
 640 1024 l 1,13,-1
 768 1024 l 1,14,-1
 768 896 l 1,15,-1
 640 896 l 1,12,-1
768 896 m 1,16,-1
 768 1024 l 1,17,-1
 896 1024 l 1,18,-1
 896 896 l 1,19,-1
 768 896 l 1,16,-1
0 768 m 1,20,-1
 0 896 l 1,21,-1
 128 896 l 1,22,-1
 128 768 l 1,23,-1
 0 768 l 1,20,-1
384 768 m 1,24,-1
 384 896 l 1,25,-1
 512 896 l 1,26,-1
 512 768 l 1,27,-1
 384 768 l 1,24,-1
0 640 m 1,28,-1
 0 768 l 1,29,-1
 128 768 l 1,30,-1
 128 640 l 1,31,-1
 0 640 l 1,28,-1
384 640 m 1,32,-1
 384 768 l 1,33,-1
 512 768 l 1,34,-1
 512 640 l 1,35,-1
 384 640 l 1,32,-1
0 512 m 1,36,-1
 0 640 l 1,37,-1
 128 640 l 1,38,-1
 128 512 l 1,39,-1
 0 512 l 1,36,-1
384 512 m 1,40,-1
 384 640 l 1,41,-1
 512 640 l 1,42,-1
 512 512 l 1,43,-1
 384 512 l 1,40,-1
512 512 m 1,44,-1
 512 640 l 1,45,-1
 640 640 l 1,46,-1
 640 512 l 1,47,-1
 512 512 l 1,44,-1
640 512 m 1,48,-1
 640 640 l 1,49,-1
 768 640 l 1,50,-1
 768 512 l 1,51,-1
 640 512 l 1,48,-1
0 384 m 1,52,-1
 0 512 l 1,53,-1
 128 512 l 1,54,-1
 128 384 l 1,55,-1
 0 384 l 1,52,-1
384 384 m 1,56,-1
 384 512 l 1,57,-1
 512 512 l 1,58,-1
 512 384 l 1,59,-1
 384 384 l 1,56,-1
0 256 m 1,60,-1
 0 384 l 1,61,-1
 128 384 l 1,62,-1
 128 256 l 1,63,-1
 0 256 l 1,60,-1
384 256 m 1,64,-1
 384 384 l 1,65,-1
 512 384 l 1,66,-1
 512 256 l 1,67,-1
 384 256 l 1,64,-1
0 128 m 1,68,-1
 0 256 l 1,69,-1
 128 256 l 1,70,-1
 128 128 l 1,71,-1
 0 128 l 1,68,-1
384 128 m 1,72,-1
 384 256 l 1,73,-1
 512 256 l 1,74,-1
 512 128 l 1,75,-1
 384 128 l 1,72,-1
128 0 m 1,76,-1
 128 128 l 1,77,-1
 256 128 l 1,78,-1
 256 0 l 1,79,-1
 128 0 l 1,76,-1
256 0 m 1,80,-1
 256 128 l 1,81,-1
 384 128 l 1,82,-1
 384 0 l 1,83,-1
 256 0 l 1,80,-1
512 0 m 1,84,-1
 512 128 l 1,85,-1
 640 128 l 1,86,-1
 640 0 l 1,87,-1
 512 0 l 1,84,-1
640 0 m 1,88,-1
 640 128 l 1,89,-1
 768 128 l 1,90,-1
 768 0 l 1,91,-1
 640 0 l 1,88,-1
768 0 m 1,92,-1
 768 128 l 1,93,-1
 896 128 l 1,94,-1
 896 0 l 1,95,-1
 768 0 l 1,92,-1
EndSplineSet
EndChar

StartChar: unicode#0x008e
Encoding: 142 142 143
Width: 896
Flags: W
LayerCount: 2
Fore
SplineSet
256 1152 m 1,0,-1
 256 1280 l 1,1,-1
 384 1280 l 1,2,-1
 384 1152 l 1,3,-1
 256 1152 l 1,0,-1
512 1152 m 1,4,-1
 512 1280 l 1,5,-1
 640 1280 l 1,6,-1
 640 1152 l 1,7,-1
 512 1152 l 1,4,-1
384 1024 m 1,8,-1
 384 1152 l 1,9,-1
 512 1152 l 1,10,-1
 512 1024 l 1,11,-1
 384 1024 l 1,8,-1
128 896 m 1,12,-1
 128 1024 l 1,13,-1
 256 1024 l 1,14,-1
 256 896 l 1,15,-1
 128 896 l 1,12,-1
256 896 m 1,16,-1
 256 1024 l 1,17,-1
 384 1024 l 1,18,-1
 384 896 l 1,19,-1
 256 896 l 1,16,-1
384 896 m 1,20,-1
 384 1024 l 1,21,-1
 512 1024 l 1,22,-1
 512 896 l 1,23,-1
 384 896 l 1,20,-1
512 896 m 1,24,-1
 512 1024 l 1,25,-1
 640 1024 l 1,26,-1
 640 896 l 1,27,-1
 512 896 l 1,24,-1
640 896 m 1,28,-1
 640 1024 l 1,29,-1
 768 1024 l 1,30,-1
 768 896 l 1,31,-1
 640 896 l 1,28,-1
768 896 m 1,32,-1
 768 1024 l 1,33,-1
 896 1024 l 1,34,-1
 896 896 l 1,35,-1
 768 896 l 1,32,-1
768 768 m 1,36,-1
 768 896 l 1,37,-1
 896 896 l 1,38,-1
 896 768 l 1,39,-1
 768 768 l 1,36,-1
640 640 m 1,40,-1
 640 768 l 1,41,-1
 768 768 l 1,42,-1
 768 640 l 1,43,-1
 640 640 l 1,40,-1
512 512 m 1,44,-1
 512 640 l 1,45,-1
 640 640 l 1,46,-1
 640 512 l 1,47,-1
 512 512 l 1,44,-1
384 384 m 1,48,-1
 384 512 l 1,49,-1
 512 512 l 1,50,-1
 512 384 l 1,51,-1
 384 384 l 1,48,-1
256 256 m 1,52,-1
 256 384 l 1,53,-1
 384 384 l 1,54,-1
 384 256 l 1,55,-1
 256 256 l 1,52,-1
128 128 m 1,56,-1
 128 256 l 1,57,-1
 256 256 l 1,58,-1
 256 128 l 1,59,-1
 128 128 l 1,56,-1
128 0 m 1,60,-1
 128 128 l 1,61,-1
 256 128 l 1,62,-1
 256 0 l 1,63,-1
 128 0 l 1,60,-1
256 0 m 1,64,-1
 256 128 l 1,65,-1
 384 128 l 1,66,-1
 384 0 l 1,67,-1
 256 0 l 1,64,-1
384 0 m 1,68,-1
 384 128 l 1,69,-1
 512 128 l 1,70,-1
 512 0 l 1,71,-1
 384 0 l 1,68,-1
512 0 m 1,72,-1
 512 128 l 1,73,-1
 640 128 l 1,74,-1
 640 0 l 1,75,-1
 512 0 l 1,72,-1
640 0 m 1,76,-1
 640 128 l 1,77,-1
 768 128 l 1,78,-1
 768 0 l 1,79,-1
 640 0 l 1,76,-1
768 0 m 1,80,-1
 768 128 l 1,81,-1
 896 128 l 1,82,-1
 896 0 l 1,83,-1
 768 0 l 1,80,-1
EndSplineSet
EndChar

StartChar: unicode#0x0091
Encoding: 145 145 146
Width: 896
Flags: W
LayerCount: 2
Fore
SplineSet
384 1024 m 1,0,-1
 384 1152 l 1,1,-1
 512 1152 l 1,2,-1
 512 1024 l 1,3,-1
 384 1024 l 1,0,-1
384 896 m 1,4,-1
 384 1024 l 1,5,-1
 512 1024 l 1,6,-1
 512 896 l 1,7,-1
 384 896 l 1,4,-1
512 768 m 1,8,-1
 512 896 l 1,9,-1
 640 896 l 1,10,-1
 640 768 l 1,11,-1
 512 768 l 1,8,-1
EndSplineSet
EndChar

StartChar: unicode#0x0092
Encoding: 146 146 147
Width: 896
Flags: W
LayerCount: 2
Fore
SplineSet
384 1024 m 1,0,-1
 384 1152 l 1,1,-1
 512 1152 l 1,2,-1
 512 1024 l 1,3,-1
 384 1024 l 1,0,-1
384 896 m 1,4,-1
 384 1024 l 1,5,-1
 512 1024 l 1,6,-1
 512 896 l 1,7,-1
 384 896 l 1,4,-1
256 768 m 1,8,-1
 256 896 l 1,9,-1
 384 896 l 1,10,-1
 384 768 l 1,11,-1
 256 768 l 1,8,-1
EndSplineSet
EndChar

StartChar: unicode#0x0093
Encoding: 147 147 148
Width: 896
Flags: W
LayerCount: 2
Fore
SplineSet
256 1024 m 1,0,-1
 256 1152 l 1,1,-1
 384 1152 l 1,2,-1
 384 1024 l 1,3,-1
 256 1024 l 1,0,-1
512 1024 m 1,4,-1
 512 1152 l 1,5,-1
 640 1152 l 1,6,-1
 640 1024 l 1,7,-1
 512 1024 l 1,4,-1
256 896 m 1,8,-1
 256 1024 l 1,9,-1
 384 1024 l 1,10,-1
 384 896 l 1,11,-1
 256 896 l 1,8,-1
512 896 m 1,12,-1
 512 1024 l 1,13,-1
 640 1024 l 1,14,-1
 640 896 l 1,15,-1
 512 896 l 1,12,-1
384 768 m 1,16,-1
 384 896 l 1,17,-1
 512 896 l 1,18,-1
 512 768 l 1,19,-1
 384 768 l 1,16,-1
640 768 m 1,20,-1
 640 896 l 1,21,-1
 768 896 l 1,22,-1
 768 768 l 1,23,-1
 640 768 l 1,20,-1
EndSplineSet
EndChar

StartChar: unicode#0x0094
Encoding: 148 148 149
Width: 896
Flags: W
LayerCount: 2
Fore
SplineSet
256 1024 m 1,0,-1
 256 1152 l 1,1,-1
 384 1152 l 1,2,-1
 384 1024 l 1,3,-1
 256 1024 l 1,0,-1
512 1024 m 1,4,-1
 512 1152 l 1,5,-1
 640 1152 l 1,6,-1
 640 1024 l 1,7,-1
 512 1024 l 1,4,-1
256 896 m 1,8,-1
 256 1024 l 1,9,-1
 384 1024 l 1,10,-1
 384 896 l 1,11,-1
 256 896 l 1,8,-1
512 896 m 1,12,-1
 512 1024 l 1,13,-1
 640 1024 l 1,14,-1
 640 896 l 1,15,-1
 512 896 l 1,12,-1
128 768 m 1,16,-1
 128 896 l 1,17,-1
 256 896 l 1,18,-1
 256 768 l 1,19,-1
 128 768 l 1,16,-1
384 768 m 1,20,-1
 384 896 l 1,21,-1
 512 896 l 1,22,-1
 512 768 l 1,23,-1
 384 768 l 1,20,-1
EndSplineSet
EndChar

StartChar: unicode#0x0095
Encoding: 149 149 150
Width: 896
Flags: W
LayerCount: 2
Fore
SplineSet
384 640 m 1,0,-1
 384 768 l 1,1,-1
 512 768 l 1,2,-1
 512 640 l 1,3,-1
 384 640 l 1,0,-1
256 512 m 1,4,-1
 256 640 l 1,5,-1
 384 640 l 1,6,-1
 384 512 l 1,7,-1
 256 512 l 1,4,-1
384 512 m 1,8,-1
 384 640 l 1,9,-1
 512 640 l 1,10,-1
 512 512 l 1,11,-1
 384 512 l 1,8,-1
512 512 m 1,12,-1
 512 640 l 1,13,-1
 640 640 l 1,14,-1
 640 512 l 1,15,-1
 512 512 l 1,12,-1
128 384 m 1,16,-1
 128 512 l 1,17,-1
 256 512 l 1,18,-1
 256 384 l 1,19,-1
 128 384 l 1,16,-1
256 384 m 1,20,-1
 256 512 l 1,21,-1
 384 512 l 1,22,-1
 384 384 l 1,23,-1
 256 384 l 1,20,-1
384 384 m 1,24,-1
 384 512 l 1,25,-1
 512 512 l 1,26,-1
 512 384 l 1,27,-1
 384 384 l 1,24,-1
512 384 m 1,28,-1
 512 512 l 1,29,-1
 640 512 l 1,30,-1
 640 384 l 1,31,-1
 512 384 l 1,28,-1
640 384 m 1,32,-1
 640 512 l 1,33,-1
 768 512 l 1,34,-1
 768 384 l 1,35,-1
 640 384 l 1,32,-1
256 256 m 1,36,-1
 256 384 l 1,37,-1
 384 384 l 1,38,-1
 384 256 l 1,39,-1
 256 256 l 1,36,-1
384 256 m 1,40,-1
 384 384 l 1,41,-1
 512 384 l 1,42,-1
 512 256 l 1,43,-1
 384 256 l 1,40,-1
512 256 m 1,44,-1
 512 384 l 1,45,-1
 640 384 l 1,46,-1
 640 256 l 1,47,-1
 512 256 l 1,44,-1
384 128 m 1,48,-1
 384 256 l 1,49,-1
 512 256 l 1,50,-1
 512 128 l 1,51,-1
 384 128 l 1,48,-1
EndSplineSet
EndChar

StartChar: unicode#0x0096
Encoding: 150 150 151
Width: 896
Flags: W
LayerCount: 2
Fore
SplineSet
128 384 m 1,0,-1
 128 512 l 1,1,-1
 256 512 l 1,2,-1
 256 384 l 1,3,-1
 128 384 l 1,0,-1
256 384 m 1,4,-1
 256 512 l 1,5,-1
 384 512 l 1,6,-1
 384 384 l 1,7,-1
 256 384 l 1,4,-1
384 384 m 1,8,-1
 384 512 l 1,9,-1
 512 512 l 1,10,-1
 512 384 l 1,11,-1
 384 384 l 1,8,-1
512 384 m 1,12,-1
 512 512 l 1,13,-1
 640 512 l 1,14,-1
 640 384 l 1,15,-1
 512 384 l 1,12,-1
640 384 m 1,16,-1
 640 512 l 1,17,-1
 768 512 l 1,18,-1
 768 384 l 1,19,-1
 640 384 l 1,16,-1
EndSplineSet
EndChar

StartChar: unicode#0x0097
Encoding: 151 151 152
Width: 896
Flags: W
LayerCount: 2
Fore
SplineSet
0 384 m 1,0,-1
 0 512 l 1,1,-1
 128 512 l 1,2,-1
 128 384 l 1,3,-1
 0 384 l 1,0,-1
128 384 m 1,4,-1
 128 512 l 1,5,-1
 256 512 l 1,6,-1
 256 384 l 1,7,-1
 128 384 l 1,4,-1
256 384 m 1,8,-1
 256 512 l 1,9,-1
 384 512 l 1,10,-1
 384 384 l 1,11,-1
 256 384 l 1,8,-1
384 384 m 1,12,-1
 384 512 l 1,13,-1
 512 512 l 1,14,-1
 512 384 l 1,15,-1
 384 384 l 1,12,-1
512 384 m 1,16,-1
 512 512 l 1,17,-1
 640 512 l 1,18,-1
 640 384 l 1,19,-1
 512 384 l 1,16,-1
640 384 m 1,20,-1
 640 512 l 1,21,-1
 768 512 l 1,22,-1
 768 384 l 1,23,-1
 640 384 l 1,20,-1
768 384 m 1,24,-1
 768 512 l 1,25,-1
 896 512 l 1,26,-1
 896 384 l 1,27,-1
 768 384 l 1,24,-1
EndSplineSet
EndChar

StartChar: unicode#0x0098
Encoding: 152 152 153
Width: 896
Flags: W
LayerCount: 2
Fore
SplineSet
256 896 m 1,0,-1
 256 1024 l 1,1,-1
 384 1024 l 1,2,-1
 384 896 l 1,3,-1
 256 896 l 1,0,-1
512 896 m 1,4,-1
 512 1024 l 1,5,-1
 640 1024 l 1,6,-1
 640 896 l 1,7,-1
 512 896 l 1,4,-1
128 768 m 1,8,-1
 128 896 l 1,9,-1
 256 896 l 1,10,-1
 256 768 l 1,11,-1
 128 768 l 1,8,-1
384 768 m 1,12,-1
 384 896 l 1,13,-1
 512 896 l 1,14,-1
 512 768 l 1,15,-1
 384 768 l 1,12,-1
EndSplineSet
EndChar

StartChar: unicode#0x0099
Encoding: 153 153 154
Width: 896
Flags: W
LayerCount: 2
Fore
SplineSet
0 896 m 1,0,-1
 0 1024 l 1,1,-1
 128 1024 l 1,2,-1
 128 896 l 1,3,-1
 0 896 l 1,0,-1
128 896 m 1,4,-1
 128 1024 l 1,5,-1
 256 1024 l 1,6,-1
 256 896 l 1,7,-1
 128 896 l 1,4,-1
256 896 m 1,8,-1
 256 1024 l 1,9,-1
 384 1024 l 1,10,-1
 384 896 l 1,11,-1
 256 896 l 1,8,-1
512 896 m 1,12,-1
 512 1024 l 1,13,-1
 640 1024 l 1,14,-1
 640 896 l 1,15,-1
 512 896 l 1,12,-1
640 896 m 1,16,-1
 640 1024 l 1,17,-1
 768 1024 l 1,18,-1
 768 896 l 1,19,-1
 640 896 l 1,16,-1
768 896 m 1,20,-1
 768 1024 l 1,21,-1
 896 1024 l 1,22,-1
 896 896 l 1,23,-1
 768 896 l 1,20,-1
128 768 m 1,24,-1
 128 896 l 1,25,-1
 256 896 l 1,26,-1
 256 768 l 1,27,-1
 128 768 l 1,24,-1
512 768 m 1,28,-1
 512 896 l 1,29,-1
 640 896 l 1,30,-1
 640 768 l 1,31,-1
 512 768 l 1,28,-1
640 768 m 1,32,-1
 640 896 l 1,33,-1
 768 896 l 1,34,-1
 768 768 l 1,35,-1
 640 768 l 1,32,-1
768 768 m 1,36,-1
 768 896 l 1,37,-1
 896 896 l 1,38,-1
 896 768 l 1,39,-1
 768 768 l 1,36,-1
128 640 m 1,40,-1
 128 768 l 1,41,-1
 256 768 l 1,42,-1
 256 640 l 1,43,-1
 128 640 l 1,40,-1
512 640 m 1,44,-1
 512 768 l 1,45,-1
 640 768 l 1,46,-1
 640 640 l 1,47,-1
 512 640 l 1,44,-1
768 640 m 1,48,-1
 768 768 l 1,49,-1
 896 768 l 1,50,-1
 896 640 l 1,51,-1
 768 640 l 1,48,-1
128 512 m 1,52,-1
 128 640 l 1,53,-1
 256 640 l 1,54,-1
 256 512 l 1,55,-1
 128 512 l 1,52,-1
512 512 m 1,56,-1
 512 640 l 1,57,-1
 640 640 l 1,58,-1
 640 512 l 1,59,-1
 512 512 l 1,56,-1
768 512 m 1,60,-1
 768 640 l 1,61,-1
 896 640 l 1,62,-1
 896 512 l 1,63,-1
 768 512 l 1,60,-1
EndSplineSet
EndChar

StartChar: unicode#0x009a
Encoding: 154 154 155
Width: 896
Flags: W
LayerCount: 2
Fore
SplineSet
256 1024 m 1,0,-1
 256 1152 l 1,1,-1
 384 1152 l 1,2,-1
 384 1024 l 1,3,-1
 256 1024 l 1,0,-1
512 1024 m 1,4,-1
 512 1152 l 1,5,-1
 640 1152 l 1,6,-1
 640 1024 l 1,7,-1
 512 1024 l 1,4,-1
384 896 m 1,8,-1
 384 1024 l 1,9,-1
 512 1024 l 1,10,-1
 512 896 l 1,11,-1
 384 896 l 1,8,-1
256 640 m 1,12,-1
 256 768 l 1,13,-1
 384 768 l 1,14,-1
 384 640 l 1,15,-1
 256 640 l 1,12,-1
384 640 m 1,16,-1
 384 768 l 1,17,-1
 512 768 l 1,18,-1
 512 640 l 1,19,-1
 384 640 l 1,16,-1
512 640 m 1,20,-1
 512 768 l 1,21,-1
 640 768 l 1,22,-1
 640 640 l 1,23,-1
 512 640 l 1,20,-1
640 640 m 1,24,-1
 640 768 l 1,25,-1
 768 768 l 1,26,-1
 768 640 l 1,27,-1
 640 640 l 1,24,-1
128 512 m 1,28,-1
 128 640 l 1,29,-1
 256 640 l 1,30,-1
 256 512 l 1,31,-1
 128 512 l 1,28,-1
256 384 m 1,32,-1
 256 512 l 1,33,-1
 384 512 l 1,34,-1
 384 384 l 1,35,-1
 256 384 l 1,32,-1
384 384 m 1,36,-1
 384 512 l 1,37,-1
 512 512 l 1,38,-1
 512 384 l 1,39,-1
 384 384 l 1,36,-1
512 256 m 1,40,-1
 512 384 l 1,41,-1
 640 384 l 1,42,-1
 640 256 l 1,43,-1
 512 256 l 1,40,-1
640 128 m 1,44,-1
 640 256 l 1,45,-1
 768 256 l 1,46,-1
 768 128 l 1,47,-1
 640 128 l 1,44,-1
128 0 m 1,48,-1
 128 128 l 1,49,-1
 256 128 l 1,50,-1
 256 0 l 1,51,-1
 128 0 l 1,48,-1
256 0 m 1,52,-1
 256 128 l 1,53,-1
 384 128 l 1,54,-1
 384 0 l 1,55,-1
 256 0 l 1,52,-1
384 0 m 1,56,-1
 384 128 l 1,57,-1
 512 128 l 1,58,-1
 512 0 l 1,59,-1
 384 0 l 1,56,-1
512 0 m 1,60,-1
 512 128 l 1,61,-1
 640 128 l 1,62,-1
 640 0 l 1,63,-1
 512 0 l 1,60,-1
EndSplineSet
EndChar

StartChar: unicode#0x009b
Encoding: 155 155 156
Width: 896
Flags: W
LayerCount: 2
Fore
SplineSet
128 640 m 1,0,-1
 128 768 l 1,1,-1
 256 768 l 1,2,-1
 256 640 l 1,3,-1
 128 640 l 1,0,-1
256 512 m 1,4,-1
 256 640 l 1,5,-1
 384 640 l 1,6,-1
 384 512 l 1,7,-1
 256 512 l 1,4,-1
384 384 m 1,8,-1
 384 512 l 1,9,-1
 512 512 l 1,10,-1
 512 384 l 1,11,-1
 384 384 l 1,8,-1
256 256 m 1,12,-1
 256 384 l 1,13,-1
 384 384 l 1,14,-1
 384 256 l 1,15,-1
 256 256 l 1,12,-1
128 128 m 1,16,-1
 128 256 l 1,17,-1
 256 256 l 1,18,-1
 256 128 l 1,19,-1
 128 128 l 1,16,-1
EndSplineSet
EndChar

StartChar: unicode#0x009c
Encoding: 156 156 157
Width: 896
Flags: W
LayerCount: 2
Fore
SplineSet
128 640 m 1,0,-1
 128 768 l 1,1,-1
 256 768 l 1,2,-1
 256 640 l 1,3,-1
 128 640 l 1,0,-1
256 640 m 1,4,-1
 256 768 l 1,5,-1
 384 768 l 1,6,-1
 384 640 l 1,7,-1
 256 640 l 1,4,-1
512 640 m 1,8,-1
 512 768 l 1,9,-1
 640 768 l 1,10,-1
 640 640 l 1,11,-1
 512 640 l 1,8,-1
640 640 m 1,12,-1
 640 768 l 1,13,-1
 768 768 l 1,14,-1
 768 640 l 1,15,-1
 640 640 l 1,12,-1
0 512 m 1,16,-1
 0 640 l 1,17,-1
 128 640 l 1,18,-1
 128 512 l 1,19,-1
 0 512 l 1,16,-1
384 512 m 1,20,-1
 384 640 l 1,21,-1
 512 640 l 1,22,-1
 512 512 l 1,23,-1
 384 512 l 1,20,-1
768 512 m 1,24,-1
 768 640 l 1,25,-1
 896 640 l 1,26,-1
 896 512 l 1,27,-1
 768 512 l 1,24,-1
0 384 m 1,28,-1
 0 512 l 1,29,-1
 128 512 l 1,30,-1
 128 384 l 1,31,-1
 0 384 l 1,28,-1
384 384 m 1,32,-1
 384 512 l 1,33,-1
 512 512 l 1,34,-1
 512 384 l 1,35,-1
 384 384 l 1,32,-1
512 384 m 1,36,-1
 512 512 l 1,37,-1
 640 512 l 1,38,-1
 640 384 l 1,39,-1
 512 384 l 1,36,-1
640 384 m 1,40,-1
 640 512 l 1,41,-1
 768 512 l 1,42,-1
 768 384 l 1,43,-1
 640 384 l 1,40,-1
768 384 m 1,44,-1
 768 512 l 1,45,-1
 896 512 l 1,46,-1
 896 384 l 1,47,-1
 768 384 l 1,44,-1
0 256 m 1,48,-1
 0 384 l 1,49,-1
 128 384 l 1,50,-1
 128 256 l 1,51,-1
 0 256 l 1,48,-1
384 256 m 1,52,-1
 384 384 l 1,53,-1
 512 384 l 1,54,-1
 512 256 l 1,55,-1
 384 256 l 1,52,-1
0 128 m 1,56,-1
 0 256 l 1,57,-1
 128 256 l 1,58,-1
 128 128 l 1,59,-1
 0 128 l 1,56,-1
384 128 m 1,60,-1
 384 256 l 1,61,-1
 512 256 l 1,62,-1
 512 128 l 1,63,-1
 384 128 l 1,60,-1
768 128 m 1,64,-1
 768 256 l 1,65,-1
 896 256 l 1,66,-1
 896 128 l 1,67,-1
 768 128 l 1,64,-1
128 0 m 1,68,-1
 128 128 l 1,69,-1
 256 128 l 1,70,-1
 256 0 l 1,71,-1
 128 0 l 1,68,-1
256 0 m 1,72,-1
 256 128 l 1,73,-1
 384 128 l 1,74,-1
 384 0 l 1,75,-1
 256 0 l 1,72,-1
512 0 m 1,76,-1
 512 128 l 1,77,-1
 640 128 l 1,78,-1
 640 0 l 1,79,-1
 512 0 l 1,76,-1
640 0 m 1,80,-1
 640 128 l 1,81,-1
 768 128 l 1,82,-1
 768 0 l 1,83,-1
 640 0 l 1,80,-1
EndSplineSet
EndChar

StartChar: unicode#0x009e
Encoding: 158 158 159
Width: 896
Flags: W
LayerCount: 2
Fore
SplineSet
256 1024 m 1,0,-1
 256 1152 l 1,1,-1
 384 1152 l 1,2,-1
 384 1024 l 1,3,-1
 256 1024 l 1,0,-1
512 1024 m 1,4,-1
 512 1152 l 1,5,-1
 640 1152 l 1,6,-1
 640 1024 l 1,7,-1
 512 1024 l 1,4,-1
384 896 m 1,8,-1
 384 1024 l 1,9,-1
 512 1024 l 1,10,-1
 512 896 l 1,11,-1
 384 896 l 1,8,-1
128 640 m 1,12,-1
 128 768 l 1,13,-1
 256 768 l 1,14,-1
 256 640 l 1,15,-1
 128 640 l 1,12,-1
256 640 m 1,16,-1
 256 768 l 1,17,-1
 384 768 l 1,18,-1
 384 640 l 1,19,-1
 256 640 l 1,16,-1
384 640 m 1,20,-1
 384 768 l 1,21,-1
 512 768 l 1,22,-1
 512 640 l 1,23,-1
 384 640 l 1,20,-1
512 640 m 1,24,-1
 512 768 l 1,25,-1
 640 768 l 1,26,-1
 640 640 l 1,27,-1
 512 640 l 1,24,-1
640 640 m 1,28,-1
 640 768 l 1,29,-1
 768 768 l 1,30,-1
 768 640 l 1,31,-1
 640 640 l 1,28,-1
640 512 m 1,32,-1
 640 640 l 1,33,-1
 768 640 l 1,34,-1
 768 512 l 1,35,-1
 640 512 l 1,32,-1
512 384 m 1,36,-1
 512 512 l 1,37,-1
 640 512 l 1,38,-1
 640 384 l 1,39,-1
 512 384 l 1,36,-1
384 256 m 1,40,-1
 384 384 l 1,41,-1
 512 384 l 1,42,-1
 512 256 l 1,43,-1
 384 256 l 1,40,-1
256 128 m 1,44,-1
 256 256 l 1,45,-1
 384 256 l 1,46,-1
 384 128 l 1,47,-1
 256 128 l 1,44,-1
128 0 m 1,48,-1
 128 128 l 1,49,-1
 256 128 l 1,50,-1
 256 0 l 1,51,-1
 128 0 l 1,48,-1
256 0 m 1,52,-1
 256 128 l 1,53,-1
 384 128 l 1,54,-1
 384 0 l 1,55,-1
 256 0 l 1,52,-1
384 0 m 1,56,-1
 384 128 l 1,57,-1
 512 128 l 1,58,-1
 512 0 l 1,59,-1
 384 0 l 1,56,-1
512 0 m 1,60,-1
 512 128 l 1,61,-1
 640 128 l 1,62,-1
 640 0 l 1,63,-1
 512 0 l 1,60,-1
640 0 m 1,64,-1
 640 128 l 1,65,-1
 768 128 l 1,66,-1
 768 0 l 1,67,-1
 640 0 l 1,64,-1
EndSplineSet
EndChar

StartChar: unicode#0x009f
Encoding: 159 159 160
Width: 896
Flags: W
LayerCount: 2
Fore
SplineSet
256 1024 m 1,0,-1
 256 1152 l 1,1,-1
 384 1152 l 1,2,-1
 384 1024 l 1,3,-1
 256 1024 l 1,0,-1
512 1024 m 1,4,-1
 512 1152 l 1,5,-1
 640 1152 l 1,6,-1
 640 1024 l 1,7,-1
 512 1024 l 1,4,-1
0 768 m 1,8,-1
 0 896 l 1,9,-1
 128 896 l 1,10,-1
 128 768 l 1,11,-1
 0 768 l 1,8,-1
768 768 m 1,12,-1
 768 896 l 1,13,-1
 896 896 l 1,14,-1
 896 768 l 1,15,-1
 768 768 l 1,12,-1
0 640 m 1,16,-1
 0 768 l 1,17,-1
 128 768 l 1,18,-1
 128 640 l 1,19,-1
 0 640 l 1,16,-1
768 640 m 1,20,-1
 768 768 l 1,21,-1
 896 768 l 1,22,-1
 896 640 l 1,23,-1
 768 640 l 1,20,-1
128 512 m 1,24,-1
 128 640 l 1,25,-1
 256 640 l 1,26,-1
 256 512 l 1,27,-1
 128 512 l 1,24,-1
640 512 m 1,28,-1
 640 640 l 1,29,-1
 768 640 l 1,30,-1
 768 512 l 1,31,-1
 640 512 l 1,28,-1
256 384 m 1,32,-1
 256 512 l 1,33,-1
 384 512 l 1,34,-1
 384 384 l 1,35,-1
 256 384 l 1,32,-1
512 384 m 1,36,-1
 512 512 l 1,37,-1
 640 512 l 1,38,-1
 640 384 l 1,39,-1
 512 384 l 1,36,-1
384 256 m 1,40,-1
 384 384 l 1,41,-1
 512 384 l 1,42,-1
 512 256 l 1,43,-1
 384 256 l 1,40,-1
384 128 m 1,44,-1
 384 256 l 1,45,-1
 512 256 l 1,46,-1
 512 128 l 1,47,-1
 384 128 l 1,44,-1
384 0 m 1,48,-1
 384 128 l 1,49,-1
 512 128 l 1,50,-1
 512 0 l 1,51,-1
 384 0 l 1,48,-1
EndSplineSet
EndChar

StartChar: exclamdown
Encoding: 161 161 162
Width: 896
Flags: W
LayerCount: 2
Fore
SplineSet
384 896 m 1,0,-1
 384 1024 l 1,1,-1
 512 1024 l 1,2,-1
 512 896 l 1,3,-1
 384 896 l 1,0,-1
384 640 m 1,4,-1
 384 768 l 1,5,-1
 512 768 l 1,6,-1
 512 640 l 1,7,-1
 384 640 l 1,4,-1
384 512 m 1,8,-1
 384 640 l 1,9,-1
 512 640 l 1,10,-1
 512 512 l 1,11,-1
 384 512 l 1,8,-1
384 384 m 1,12,-1
 384 512 l 1,13,-1
 512 512 l 1,14,-1
 512 384 l 1,15,-1
 384 384 l 1,12,-1
384 256 m 1,16,-1
 384 384 l 1,17,-1
 512 384 l 1,18,-1
 512 256 l 1,19,-1
 384 256 l 1,16,-1
384 128 m 1,20,-1
 384 256 l 1,21,-1
 512 256 l 1,22,-1
 512 128 l 1,23,-1
 384 128 l 1,20,-1
384 0 m 1,24,-1
 384 128 l 1,25,-1
 512 128 l 1,26,-1
 512 0 l 1,27,-1
 384 0 l 1,24,-1
EndSplineSet
EndChar

StartChar: cent
Encoding: 162 162 163
Width: 896
Flags: W
LayerCount: 2
Fore
SplineSet
384 768 m 1,0,-1
 384 896 l 1,1,-1
 512 896 l 1,2,-1
 512 768 l 1,3,-1
 384 768 l 1,0,-1
256 640 m 1,4,-1
 256 768 l 1,5,-1
 384 768 l 1,6,-1
 384 640 l 1,7,-1
 256 640 l 1,4,-1
384 640 m 1,8,-1
 384 768 l 1,9,-1
 512 768 l 1,10,-1
 512 640 l 1,11,-1
 384 640 l 1,8,-1
512 640 m 1,12,-1
 512 768 l 1,13,-1
 640 768 l 1,14,-1
 640 640 l 1,15,-1
 512 640 l 1,12,-1
128 512 m 1,16,-1
 128 640 l 1,17,-1
 256 640 l 1,18,-1
 256 512 l 1,19,-1
 128 512 l 1,16,-1
384 512 m 1,20,-1
 384 640 l 1,21,-1
 512 640 l 1,22,-1
 512 512 l 1,23,-1
 384 512 l 1,20,-1
640 512 m 1,24,-1
 640 640 l 1,25,-1
 768 640 l 1,26,-1
 768 512 l 1,27,-1
 640 512 l 1,24,-1
128 384 m 1,28,-1
 128 512 l 1,29,-1
 256 512 l 1,30,-1
 256 384 l 1,31,-1
 128 384 l 1,28,-1
384 384 m 1,32,-1
 384 512 l 1,33,-1
 512 512 l 1,34,-1
 512 384 l 1,35,-1
 384 384 l 1,32,-1
128 256 m 1,36,-1
 128 384 l 1,37,-1
 256 384 l 1,38,-1
 256 256 l 1,39,-1
 128 256 l 1,36,-1
384 256 m 1,40,-1
 384 384 l 1,41,-1
 512 384 l 1,42,-1
 512 256 l 1,43,-1
 384 256 l 1,40,-1
128 128 m 1,44,-1
 128 256 l 1,45,-1
 256 256 l 1,46,-1
 256 128 l 1,47,-1
 128 128 l 1,44,-1
384 128 m 1,48,-1
 384 256 l 1,49,-1
 512 256 l 1,50,-1
 512 128 l 1,51,-1
 384 128 l 1,48,-1
640 128 m 1,52,-1
 640 256 l 1,53,-1
 768 256 l 1,54,-1
 768 128 l 1,55,-1
 640 128 l 1,52,-1
256 0 m 1,56,-1
 256 128 l 1,57,-1
 384 128 l 1,58,-1
 384 0 l 1,59,-1
 256 0 l 1,56,-1
384 0 m 1,60,-1
 384 128 l 1,61,-1
 512 128 l 1,62,-1
 512 0 l 1,63,-1
 384 0 l 1,60,-1
512 0 m 1,64,-1
 512 128 l 1,65,-1
 640 128 l 1,66,-1
 640 0 l 1,67,-1
 512 0 l 1,64,-1
384 -128 m 1,68,-1
 384 0 l 1,69,-1
 512 0 l 1,70,-1
 512 -128 l 1,71,-1
 384 -128 l 1,68,-1
EndSplineSet
EndChar

StartChar: sterling
Encoding: 163 163 164
Width: 896
Flags: W
LayerCount: 2
Fore
SplineSet
384 896 m 1,0,-1
 384 1024 l 1,1,-1
 512 1024 l 1,2,-1
 512 896 l 1,3,-1
 384 896 l 1,0,-1
512 896 m 1,4,-1
 512 1024 l 1,5,-1
 640 1024 l 1,6,-1
 640 896 l 1,7,-1
 512 896 l 1,4,-1
256 768 m 1,8,-1
 256 896 l 1,9,-1
 384 896 l 1,10,-1
 384 768 l 1,11,-1
 256 768 l 1,8,-1
256 640 m 1,12,-1
 256 768 l 1,13,-1
 384 768 l 1,14,-1
 384 640 l 1,15,-1
 256 640 l 1,12,-1
128 512 m 1,16,-1
 128 640 l 1,17,-1
 256 640 l 1,18,-1
 256 512 l 1,19,-1
 128 512 l 1,16,-1
256 512 m 1,20,-1
 256 640 l 1,21,-1
 384 640 l 1,22,-1
 384 512 l 1,23,-1
 256 512 l 1,20,-1
384 512 m 1,24,-1
 384 640 l 1,25,-1
 512 640 l 1,26,-1
 512 512 l 1,27,-1
 384 512 l 1,24,-1
512 512 m 1,28,-1
 512 640 l 1,29,-1
 640 640 l 1,30,-1
 640 512 l 1,31,-1
 512 512 l 1,28,-1
256 384 m 1,32,-1
 256 512 l 1,33,-1
 384 512 l 1,34,-1
 384 384 l 1,35,-1
 256 384 l 1,32,-1
256 256 m 1,36,-1
 256 384 l 1,37,-1
 384 384 l 1,38,-1
 384 256 l 1,39,-1
 256 256 l 1,36,-1
128 128 m 1,40,-1
 128 256 l 1,41,-1
 256 256 l 1,42,-1
 256 128 l 1,43,-1
 128 128 l 1,40,-1
128 0 m 1,44,-1
 128 128 l 1,45,-1
 256 128 l 1,46,-1
 256 0 l 1,47,-1
 128 0 l 1,44,-1
256 0 m 1,48,-1
 256 128 l 1,49,-1
 384 128 l 1,50,-1
 384 0 l 1,51,-1
 256 0 l 1,48,-1
384 0 m 1,52,-1
 384 128 l 1,53,-1
 512 128 l 1,54,-1
 512 0 l 1,55,-1
 384 0 l 1,52,-1
512 0 m 1,56,-1
 512 128 l 1,57,-1
 640 128 l 1,58,-1
 640 0 l 1,59,-1
 512 0 l 1,56,-1
640 0 m 1,60,-1
 640 128 l 1,61,-1
 768 128 l 1,62,-1
 768 0 l 1,63,-1
 640 0 l 1,60,-1
EndSplineSet
EndChar

StartChar: currency
Encoding: 164 164 165
Width: 896
Flags: W
LayerCount: 2
Fore
SplineSet
0 768 m 1,0,-1
 0 896 l 1,1,-1
 128 896 l 1,2,-1
 128 768 l 1,3,-1
 0 768 l 1,0,-1
768 768 m 1,4,-1
 768 896 l 1,5,-1
 896 896 l 1,6,-1
 896 768 l 1,7,-1
 768 768 l 1,4,-1
128 640 m 1,8,-1
 128 768 l 1,9,-1
 256 768 l 1,10,-1
 256 640 l 1,11,-1
 128 640 l 1,8,-1
256 640 m 1,12,-1
 256 768 l 1,13,-1
 384 768 l 1,14,-1
 384 640 l 1,15,-1
 256 640 l 1,12,-1
384 640 m 1,16,-1
 384 768 l 1,17,-1
 512 768 l 1,18,-1
 512 640 l 1,19,-1
 384 640 l 1,16,-1
512 640 m 1,20,-1
 512 768 l 1,21,-1
 640 768 l 1,22,-1
 640 640 l 1,23,-1
 512 640 l 1,20,-1
640 640 m 1,24,-1
 640 768 l 1,25,-1
 768 768 l 1,26,-1
 768 640 l 1,27,-1
 640 640 l 1,24,-1
128 512 m 1,28,-1
 128 640 l 1,29,-1
 256 640 l 1,30,-1
 256 512 l 1,31,-1
 128 512 l 1,28,-1
640 512 m 1,32,-1
 640 640 l 1,33,-1
 768 640 l 1,34,-1
 768 512 l 1,35,-1
 640 512 l 1,32,-1
128 384 m 1,36,-1
 128 512 l 1,37,-1
 256 512 l 1,38,-1
 256 384 l 1,39,-1
 128 384 l 1,36,-1
640 384 m 1,40,-1
 640 512 l 1,41,-1
 768 512 l 1,42,-1
 768 384 l 1,43,-1
 640 384 l 1,40,-1
128 256 m 1,44,-1
 128 384 l 1,45,-1
 256 384 l 1,46,-1
 256 256 l 1,47,-1
 128 256 l 1,44,-1
640 256 m 1,48,-1
 640 384 l 1,49,-1
 768 384 l 1,50,-1
 768 256 l 1,51,-1
 640 256 l 1,48,-1
128 128 m 1,52,-1
 128 256 l 1,53,-1
 256 256 l 1,54,-1
 256 128 l 1,55,-1
 128 128 l 1,52,-1
256 128 m 1,56,-1
 256 256 l 1,57,-1
 384 256 l 1,58,-1
 384 128 l 1,59,-1
 256 128 l 1,56,-1
384 128 m 1,60,-1
 384 256 l 1,61,-1
 512 256 l 1,62,-1
 512 128 l 1,63,-1
 384 128 l 1,60,-1
512 128 m 1,64,-1
 512 256 l 1,65,-1
 640 256 l 1,66,-1
 640 128 l 1,67,-1
 512 128 l 1,64,-1
640 128 m 1,68,-1
 640 256 l 1,69,-1
 768 256 l 1,70,-1
 768 128 l 1,71,-1
 640 128 l 1,68,-1
0 0 m 1,72,-1
 0 128 l 1,73,-1
 128 128 l 1,74,-1
 128 0 l 1,75,-1
 0 0 l 1,72,-1
768 0 m 1,76,-1
 768 128 l 1,77,-1
 896 128 l 1,78,-1
 896 0 l 1,79,-1
 768 0 l 1,76,-1
EndSplineSet
EndChar

StartChar: yen
Encoding: 165 165 166
Width: 896
Flags: W
LayerCount: 2
Fore
SplineSet
0 896 m 1,0,-1
 0 1024 l 1,1,-1
 128 1024 l 1,2,-1
 128 896 l 1,3,-1
 0 896 l 1,0,-1
768 896 m 1,4,-1
 768 1024 l 1,5,-1
 896 1024 l 1,6,-1
 896 896 l 1,7,-1
 768 896 l 1,4,-1
0 768 m 1,8,-1
 0 896 l 1,9,-1
 128 896 l 1,10,-1
 128 768 l 1,11,-1
 0 768 l 1,8,-1
768 768 m 1,12,-1
 768 896 l 1,13,-1
 896 896 l 1,14,-1
 896 768 l 1,15,-1
 768 768 l 1,12,-1
128 640 m 1,16,-1
 128 768 l 1,17,-1
 256 768 l 1,18,-1
 256 640 l 1,19,-1
 128 640 l 1,16,-1
640 640 m 1,20,-1
 640 768 l 1,21,-1
 768 768 l 1,22,-1
 768 640 l 1,23,-1
 640 640 l 1,20,-1
256 512 m 1,24,-1
 256 640 l 1,25,-1
 384 640 l 1,26,-1
 384 512 l 1,27,-1
 256 512 l 1,24,-1
512 512 m 1,28,-1
 512 640 l 1,29,-1
 640 640 l 1,30,-1
 640 512 l 1,31,-1
 512 512 l 1,28,-1
384 384 m 1,32,-1
 384 512 l 1,33,-1
 512 512 l 1,34,-1
 512 384 l 1,35,-1
 384 384 l 1,32,-1
128 256 m 1,36,-1
 128 384 l 1,37,-1
 256 384 l 1,38,-1
 256 256 l 1,39,-1
 128 256 l 1,36,-1
256 256 m 1,40,-1
 256 384 l 1,41,-1
 384 384 l 1,42,-1
 384 256 l 1,43,-1
 256 256 l 1,40,-1
384 256 m 1,44,-1
 384 384 l 1,45,-1
 512 384 l 1,46,-1
 512 256 l 1,47,-1
 384 256 l 1,44,-1
512 256 m 1,48,-1
 512 384 l 1,49,-1
 640 384 l 1,50,-1
 640 256 l 1,51,-1
 512 256 l 1,48,-1
640 256 m 1,52,-1
 640 384 l 1,53,-1
 768 384 l 1,54,-1
 768 256 l 1,55,-1
 640 256 l 1,52,-1
384 128 m 1,56,-1
 384 256 l 1,57,-1
 512 256 l 1,58,-1
 512 128 l 1,59,-1
 384 128 l 1,56,-1
384 0 m 1,60,-1
 384 128 l 1,61,-1
 512 128 l 1,62,-1
 512 0 l 1,63,-1
 384 0 l 1,60,-1
EndSplineSet
EndChar

StartChar: brokenbar
Encoding: 166 166 167
Width: 896
Flags: W
LayerCount: 2
Fore
SplineSet
384 1024 m 1,0,-1
 384 1152 l 1,1,-1
 512 1152 l 1,2,-1
 512 1024 l 1,3,-1
 384 1024 l 1,0,-1
384 896 m 1,4,-1
 384 1024 l 1,5,-1
 512 1024 l 1,6,-1
 512 896 l 1,7,-1
 384 896 l 1,4,-1
384 768 m 1,8,-1
 384 896 l 1,9,-1
 512 896 l 1,10,-1
 512 768 l 1,11,-1
 384 768 l 1,8,-1
384 640 m 1,12,-1
 384 768 l 1,13,-1
 512 768 l 1,14,-1
 512 640 l 1,15,-1
 384 640 l 1,12,-1
384 512 m 1,16,-1
 384 640 l 1,17,-1
 512 640 l 1,18,-1
 512 512 l 1,19,-1
 384 512 l 1,16,-1
384 256 m 1,20,-1
 384 384 l 1,21,-1
 512 384 l 1,22,-1
 512 256 l 1,23,-1
 384 256 l 1,20,-1
384 128 m 1,24,-1
 384 256 l 1,25,-1
 512 256 l 1,26,-1
 512 128 l 1,27,-1
 384 128 l 1,24,-1
384 0 m 1,28,-1
 384 128 l 1,29,-1
 512 128 l 1,30,-1
 512 0 l 1,31,-1
 384 0 l 1,28,-1
384 -128 m 1,32,-1
 384 0 l 1,33,-1
 512 0 l 1,34,-1
 512 -128 l 1,35,-1
 384 -128 l 1,32,-1
384 -256 m 1,36,-1
 384 -128 l 1,37,-1
 512 -128 l 1,38,-1
 512 -256 l 1,39,-1
 384 -256 l 1,36,-1
EndSplineSet
EndChar

StartChar: section
Encoding: 167 167 168
Width: 896
Flags: W
LayerCount: 2
Fore
SplineSet
256 1024 m 1,0,-1
 256 1152 l 1,1,-1
 384 1152 l 1,2,-1
 384 1024 l 1,3,-1
 256 1024 l 1,0,-1
384 1024 m 1,4,-1
 384 1152 l 1,5,-1
 512 1152 l 1,6,-1
 512 1024 l 1,7,-1
 384 1024 l 1,4,-1
512 1024 m 1,8,-1
 512 1152 l 1,9,-1
 640 1152 l 1,10,-1
 640 1024 l 1,11,-1
 512 1024 l 1,8,-1
128 896 m 1,12,-1
 128 1024 l 1,13,-1
 256 1024 l 1,14,-1
 256 896 l 1,15,-1
 128 896 l 1,12,-1
640 896 m 1,16,-1
 640 1024 l 1,17,-1
 768 1024 l 1,18,-1
 768 896 l 1,19,-1
 640 896 l 1,16,-1
128 768 m 1,20,-1
 128 896 l 1,21,-1
 256 896 l 1,22,-1
 256 768 l 1,23,-1
 128 768 l 1,20,-1
256 640 m 1,24,-1
 256 768 l 1,25,-1
 384 768 l 1,26,-1
 384 640 l 1,27,-1
 256 640 l 1,24,-1
384 640 m 1,28,-1
 384 768 l 1,29,-1
 512 768 l 1,30,-1
 512 640 l 1,31,-1
 384 640 l 1,28,-1
256 512 m 1,32,-1
 256 640 l 1,33,-1
 384 640 l 1,34,-1
 384 512 l 1,35,-1
 256 512 l 1,32,-1
512 512 m 1,36,-1
 512 640 l 1,37,-1
 640 640 l 1,38,-1
 640 512 l 1,39,-1
 512 512 l 1,36,-1
384 384 m 1,40,-1
 384 512 l 1,41,-1
 512 512 l 1,42,-1
 512 384 l 1,43,-1
 384 384 l 1,40,-1
512 384 m 1,44,-1
 512 512 l 1,45,-1
 640 512 l 1,46,-1
 640 384 l 1,47,-1
 512 384 l 1,44,-1
640 256 m 1,48,-1
 640 384 l 1,49,-1
 768 384 l 1,50,-1
 768 256 l 1,51,-1
 640 256 l 1,48,-1
128 128 m 1,52,-1
 128 256 l 1,53,-1
 256 256 l 1,54,-1
 256 128 l 1,55,-1
 128 128 l 1,52,-1
640 128 m 1,56,-1
 640 256 l 1,57,-1
 768 256 l 1,58,-1
 768 128 l 1,59,-1
 640 128 l 1,56,-1
256 0 m 1,60,-1
 256 128 l 1,61,-1
 384 128 l 1,62,-1
 384 0 l 1,63,-1
 256 0 l 1,60,-1
384 0 m 1,64,-1
 384 128 l 1,65,-1
 512 128 l 1,66,-1
 512 0 l 1,67,-1
 384 0 l 1,64,-1
512 0 m 1,68,-1
 512 128 l 1,69,-1
 640 128 l 1,70,-1
 640 0 l 1,71,-1
 512 0 l 1,68,-1
EndSplineSet
EndChar

StartChar: dieresis
Encoding: 168 168 169
Width: 896
Flags: W
LayerCount: 2
Fore
SplineSet
256 1024 m 1,0,-1
 256 1152 l 1,1,-1
 384 1152 l 1,2,-1
 384 1024 l 1,3,-1
 256 1024 l 1,0,-1
512 1024 m 1,4,-1
 512 1152 l 1,5,-1
 640 1152 l 1,6,-1
 640 1024 l 1,7,-1
 512 1024 l 1,4,-1
EndSplineSet
EndChar

StartChar: copyright
Encoding: 169 169 170
Width: 896
Flags: W
LayerCount: 2
Fore
SplineSet
128 896 m 1,0,-1
 128 1024 l 1,1,-1
 256 1024 l 1,2,-1
 256 896 l 1,3,-1
 128 896 l 1,0,-1
256 896 m 1,4,-1
 256 1024 l 1,5,-1
 384 1024 l 1,6,-1
 384 896 l 1,7,-1
 256 896 l 1,4,-1
384 896 m 1,8,-1
 384 1024 l 1,9,-1
 512 1024 l 1,10,-1
 512 896 l 1,11,-1
 384 896 l 1,8,-1
512 896 m 1,12,-1
 512 1024 l 1,13,-1
 640 1024 l 1,14,-1
 640 896 l 1,15,-1
 512 896 l 1,12,-1
640 896 m 1,16,-1
 640 1024 l 1,17,-1
 768 1024 l 1,18,-1
 768 896 l 1,19,-1
 640 896 l 1,16,-1
0 768 m 1,20,-1
 0 896 l 1,21,-1
 128 896 l 1,22,-1
 128 768 l 1,23,-1
 0 768 l 1,20,-1
768 768 m 1,24,-1
 768 896 l 1,25,-1
 896 896 l 1,26,-1
 896 768 l 1,27,-1
 768 768 l 1,24,-1
0 640 m 1,28,-1
 0 768 l 1,29,-1
 128 768 l 1,30,-1
 128 640 l 1,31,-1
 0 640 l 1,28,-1
384 640 m 1,32,-1
 384 768 l 1,33,-1
 512 768 l 1,34,-1
 512 640 l 1,35,-1
 384 640 l 1,32,-1
512 640 m 1,36,-1
 512 768 l 1,37,-1
 640 768 l 1,38,-1
 640 640 l 1,39,-1
 512 640 l 1,36,-1
768 640 m 1,40,-1
 768 768 l 1,41,-1
 896 768 l 1,42,-1
 896 640 l 1,43,-1
 768 640 l 1,40,-1
0 512 m 1,44,-1
 0 640 l 1,45,-1
 128 640 l 1,46,-1
 128 512 l 1,47,-1
 0 512 l 1,44,-1
256 512 m 1,48,-1
 256 640 l 1,49,-1
 384 640 l 1,50,-1
 384 512 l 1,51,-1
 256 512 l 1,48,-1
768 512 m 1,52,-1
 768 640 l 1,53,-1
 896 640 l 1,54,-1
 896 512 l 1,55,-1
 768 512 l 1,52,-1
0 384 m 1,56,-1
 0 512 l 1,57,-1
 128 512 l 1,58,-1
 128 384 l 1,59,-1
 0 384 l 1,56,-1
256 384 m 1,60,-1
 256 512 l 1,61,-1
 384 512 l 1,62,-1
 384 384 l 1,63,-1
 256 384 l 1,60,-1
768 384 m 1,64,-1
 768 512 l 1,65,-1
 896 512 l 1,66,-1
 896 384 l 1,67,-1
 768 384 l 1,64,-1
0 256 m 1,68,-1
 0 384 l 1,69,-1
 128 384 l 1,70,-1
 128 256 l 1,71,-1
 0 256 l 1,68,-1
384 256 m 1,72,-1
 384 384 l 1,73,-1
 512 384 l 1,74,-1
 512 256 l 1,75,-1
 384 256 l 1,72,-1
512 256 m 1,76,-1
 512 384 l 1,77,-1
 640 384 l 1,78,-1
 640 256 l 1,79,-1
 512 256 l 1,76,-1
768 256 m 1,80,-1
 768 384 l 1,81,-1
 896 384 l 1,82,-1
 896 256 l 1,83,-1
 768 256 l 1,80,-1
0 128 m 1,84,-1
 0 256 l 1,85,-1
 128 256 l 1,86,-1
 128 128 l 1,87,-1
 0 128 l 1,84,-1
768 128 m 1,88,-1
 768 256 l 1,89,-1
 896 256 l 1,90,-1
 896 128 l 1,91,-1
 768 128 l 1,88,-1
128 0 m 1,92,-1
 128 128 l 1,93,-1
 256 128 l 1,94,-1
 256 0 l 1,95,-1
 128 0 l 1,92,-1
256 0 m 1,96,-1
 256 128 l 1,97,-1
 384 128 l 1,98,-1
 384 0 l 1,99,-1
 256 0 l 1,96,-1
384 0 m 1,100,-1
 384 128 l 1,101,-1
 512 128 l 1,102,-1
 512 0 l 1,103,-1
 384 0 l 1,100,-1
512 0 m 1,104,-1
 512 128 l 1,105,-1
 640 128 l 1,106,-1
 640 0 l 1,107,-1
 512 0 l 1,104,-1
640 0 m 1,108,-1
 640 128 l 1,109,-1
 768 128 l 1,110,-1
 768 0 l 1,111,-1
 640 0 l 1,108,-1
EndSplineSet
EndChar

StartChar: ordfeminine
Encoding: 170 170 171
Width: 896
Flags: W
LayerCount: 2
Fore
SplineSet
256 896 m 1,0,-1
 256 1024 l 1,1,-1
 384 1024 l 1,2,-1
 384 896 l 1,3,-1
 256 896 l 1,0,-1
384 896 m 1,4,-1
 384 1024 l 1,5,-1
 512 1024 l 1,6,-1
 512 896 l 1,7,-1
 384 896 l 1,4,-1
512 768 m 1,8,-1
 512 896 l 1,9,-1
 640 896 l 1,10,-1
 640 768 l 1,11,-1
 512 768 l 1,8,-1
256 640 m 1,12,-1
 256 768 l 1,13,-1
 384 768 l 1,14,-1
 384 640 l 1,15,-1
 256 640 l 1,12,-1
384 640 m 1,16,-1
 384 768 l 1,17,-1
 512 768 l 1,18,-1
 512 640 l 1,19,-1
 384 640 l 1,16,-1
512 640 m 1,20,-1
 512 768 l 1,21,-1
 640 768 l 1,22,-1
 640 640 l 1,23,-1
 512 640 l 1,20,-1
128 512 m 1,24,-1
 128 640 l 1,25,-1
 256 640 l 1,26,-1
 256 512 l 1,27,-1
 128 512 l 1,24,-1
512 512 m 1,28,-1
 512 640 l 1,29,-1
 640 640 l 1,30,-1
 640 512 l 1,31,-1
 512 512 l 1,28,-1
256 384 m 1,32,-1
 256 512 l 1,33,-1
 384 512 l 1,34,-1
 384 384 l 1,35,-1
 256 384 l 1,32,-1
384 384 m 1,36,-1
 384 512 l 1,37,-1
 512 512 l 1,38,-1
 512 384 l 1,39,-1
 384 384 l 1,36,-1
512 384 m 1,40,-1
 512 512 l 1,41,-1
 640 512 l 1,42,-1
 640 384 l 1,43,-1
 512 384 l 1,40,-1
EndSplineSet
EndChar

StartChar: guillemotleft
Encoding: 171 171 172
Width: 896
Flags: W
LayerCount: 2
Fore
SplineSet
384 640 m 1,0,-1
 384 768 l 1,1,-1
 512 768 l 1,2,-1
 512 640 l 1,3,-1
 384 640 l 1,0,-1
640 640 m 1,4,-1
 640 768 l 1,5,-1
 768 768 l 1,6,-1
 768 640 l 1,7,-1
 640 640 l 1,4,-1
256 512 m 1,8,-1
 256 640 l 1,9,-1
 384 640 l 1,10,-1
 384 512 l 1,11,-1
 256 512 l 1,8,-1
512 512 m 1,12,-1
 512 640 l 1,13,-1
 640 640 l 1,14,-1
 640 512 l 1,15,-1
 512 512 l 1,12,-1
128 384 m 1,16,-1
 128 512 l 1,17,-1
 256 512 l 1,18,-1
 256 384 l 1,19,-1
 128 384 l 1,16,-1
384 384 m 1,20,-1
 384 512 l 1,21,-1
 512 512 l 1,22,-1
 512 384 l 1,23,-1
 384 384 l 1,20,-1
256 256 m 1,24,-1
 256 384 l 1,25,-1
 384 384 l 1,26,-1
 384 256 l 1,27,-1
 256 256 l 1,24,-1
512 256 m 1,28,-1
 512 384 l 1,29,-1
 640 384 l 1,30,-1
 640 256 l 1,31,-1
 512 256 l 1,28,-1
384 128 m 1,32,-1
 384 256 l 1,33,-1
 512 256 l 1,34,-1
 512 128 l 1,35,-1
 384 128 l 1,32,-1
640 128 m 1,36,-1
 640 256 l 1,37,-1
 768 256 l 1,38,-1
 768 128 l 1,39,-1
 640 128 l 1,36,-1
EndSplineSet
EndChar

StartChar: logicalnot
Encoding: 172 172 173
Width: 896
Flags: W
LayerCount: 2
Fore
SplineSet
128 384 m 1,0,-1
 128 512 l 1,1,-1
 256 512 l 1,2,-1
 256 384 l 1,3,-1
 128 384 l 1,0,-1
256 384 m 1,4,-1
 256 512 l 1,5,-1
 384 512 l 1,6,-1
 384 384 l 1,7,-1
 256 384 l 1,4,-1
384 384 m 1,8,-1
 384 512 l 1,9,-1
 512 512 l 1,10,-1
 512 384 l 1,11,-1
 384 384 l 1,8,-1
512 384 m 1,12,-1
 512 512 l 1,13,-1
 640 512 l 1,14,-1
 640 384 l 1,15,-1
 512 384 l 1,12,-1
512 256 m 1,16,-1
 512 384 l 1,17,-1
 640 384 l 1,18,-1
 640 256 l 1,19,-1
 512 256 l 1,16,-1
512 128 m 1,20,-1
 512 256 l 1,21,-1
 640 256 l 1,22,-1
 640 128 l 1,23,-1
 512 128 l 1,20,-1
512 0 m 1,24,-1
 512 128 l 1,25,-1
 640 128 l 1,26,-1
 640 0 l 1,27,-1
 512 0 l 1,24,-1
EndSplineSet
EndChar

StartChar: registered
Encoding: 174 174 175
Width: 896
Flags: W
LayerCount: 2
Fore
SplineSet
128 896 m 1,0,-1
 128 1024 l 1,1,-1
 256 1024 l 1,2,-1
 256 896 l 1,3,-1
 128 896 l 1,0,-1
256 896 m 1,4,-1
 256 1024 l 1,5,-1
 384 1024 l 1,6,-1
 384 896 l 1,7,-1
 256 896 l 1,4,-1
384 896 m 1,8,-1
 384 1024 l 1,9,-1
 512 1024 l 1,10,-1
 512 896 l 1,11,-1
 384 896 l 1,8,-1
512 896 m 1,12,-1
 512 1024 l 1,13,-1
 640 1024 l 1,14,-1
 640 896 l 1,15,-1
 512 896 l 1,12,-1
640 896 m 1,16,-1
 640 1024 l 1,17,-1
 768 1024 l 1,18,-1
 768 896 l 1,19,-1
 640 896 l 1,16,-1
0 768 m 1,20,-1
 0 896 l 1,21,-1
 128 896 l 1,22,-1
 128 768 l 1,23,-1
 0 768 l 1,20,-1
768 768 m 1,24,-1
 768 896 l 1,25,-1
 896 896 l 1,26,-1
 896 768 l 1,27,-1
 768 768 l 1,24,-1
0 640 m 1,28,-1
 0 768 l 1,29,-1
 128 768 l 1,30,-1
 128 640 l 1,31,-1
 0 640 l 1,28,-1
256 640 m 1,32,-1
 256 768 l 1,33,-1
 384 768 l 1,34,-1
 384 640 l 1,35,-1
 256 640 l 1,32,-1
384 640 m 1,36,-1
 384 768 l 1,37,-1
 512 768 l 1,38,-1
 512 640 l 1,39,-1
 384 640 l 1,36,-1
768 640 m 1,40,-1
 768 768 l 1,41,-1
 896 768 l 1,42,-1
 896 640 l 1,43,-1
 768 640 l 1,40,-1
0 512 m 1,44,-1
 0 640 l 1,45,-1
 128 640 l 1,46,-1
 128 512 l 1,47,-1
 0 512 l 1,44,-1
256 512 m 1,48,-1
 256 640 l 1,49,-1
 384 640 l 1,50,-1
 384 512 l 1,51,-1
 256 512 l 1,48,-1
512 512 m 1,52,-1
 512 640 l 1,53,-1
 640 640 l 1,54,-1
 640 512 l 1,55,-1
 512 512 l 1,52,-1
768 512 m 1,56,-1
 768 640 l 1,57,-1
 896 640 l 1,58,-1
 896 512 l 1,59,-1
 768 512 l 1,56,-1
0 384 m 1,60,-1
 0 512 l 1,61,-1
 128 512 l 1,62,-1
 128 384 l 1,63,-1
 0 384 l 1,60,-1
256 384 m 1,64,-1
 256 512 l 1,65,-1
 384 512 l 1,66,-1
 384 384 l 1,67,-1
 256 384 l 1,64,-1
384 384 m 1,68,-1
 384 512 l 1,69,-1
 512 512 l 1,70,-1
 512 384 l 1,71,-1
 384 384 l 1,68,-1
768 384 m 1,72,-1
 768 512 l 1,73,-1
 896 512 l 1,74,-1
 896 384 l 1,75,-1
 768 384 l 1,72,-1
0 256 m 1,76,-1
 0 384 l 1,77,-1
 128 384 l 1,78,-1
 128 256 l 1,79,-1
 0 256 l 1,76,-1
256 256 m 1,80,-1
 256 384 l 1,81,-1
 384 384 l 1,82,-1
 384 256 l 1,83,-1
 256 256 l 1,80,-1
512 256 m 1,84,-1
 512 384 l 1,85,-1
 640 384 l 1,86,-1
 640 256 l 1,87,-1
 512 256 l 1,84,-1
768 256 m 1,88,-1
 768 384 l 1,89,-1
 896 384 l 1,90,-1
 896 256 l 1,91,-1
 768 256 l 1,88,-1
0 128 m 1,92,-1
 0 256 l 1,93,-1
 128 256 l 1,94,-1
 128 128 l 1,95,-1
 0 128 l 1,92,-1
768 128 m 1,96,-1
 768 256 l 1,97,-1
 896 256 l 1,98,-1
 896 128 l 1,99,-1
 768 128 l 1,96,-1
128 0 m 1,100,-1
 128 128 l 1,101,-1
 256 128 l 1,102,-1
 256 0 l 1,103,-1
 128 0 l 1,100,-1
256 0 m 1,104,-1
 256 128 l 1,105,-1
 384 128 l 1,106,-1
 384 0 l 1,107,-1
 256 0 l 1,104,-1
384 0 m 1,108,-1
 384 128 l 1,109,-1
 512 128 l 1,110,-1
 512 0 l 1,111,-1
 384 0 l 1,108,-1
512 0 m 1,112,-1
 512 128 l 1,113,-1
 640 128 l 1,114,-1
 640 0 l 1,115,-1
 512 0 l 1,112,-1
640 0 m 1,116,-1
 640 128 l 1,117,-1
 768 128 l 1,118,-1
 768 0 l 1,119,-1
 640 0 l 1,116,-1
EndSplineSet
EndChar

StartChar: macron
Encoding: 175 175 176
Width: 896
Flags: W
LayerCount: 2
Fore
SplineSet
0 1152 m 1,0,-1
 0 1280 l 1,1,-1
 128 1280 l 1,2,-1
 128 1152 l 1,3,-1
 0 1152 l 1,0,-1
128 1152 m 1,4,-1
 128 1280 l 1,5,-1
 256 1280 l 1,6,-1
 256 1152 l 1,7,-1
 128 1152 l 1,4,-1
256 1152 m 1,8,-1
 256 1280 l 1,9,-1
 384 1280 l 1,10,-1
 384 1152 l 1,11,-1
 256 1152 l 1,8,-1
384 1152 m 1,12,-1
 384 1280 l 1,13,-1
 512 1280 l 1,14,-1
 512 1152 l 1,15,-1
 384 1152 l 1,12,-1
512 1152 m 1,16,-1
 512 1280 l 1,17,-1
 640 1280 l 1,18,-1
 640 1152 l 1,19,-1
 512 1152 l 1,16,-1
640 1152 m 1,20,-1
 640 1280 l 1,21,-1
 768 1280 l 1,22,-1
 768 1152 l 1,23,-1
 640 1152 l 1,20,-1
768 1152 m 1,24,-1
 768 1280 l 1,25,-1
 896 1280 l 1,26,-1
 896 1152 l 1,27,-1
 768 1152 l 1,24,-1
EndSplineSet
EndChar

StartChar: degree
Encoding: 176 176 177
Width: 896
Flags: W
LayerCount: 2
Fore
SplineSet
256 1024 m 1,0,-1
 256 1152 l 1,1,-1
 384 1152 l 1,2,-1
 384 1024 l 1,3,-1
 256 1024 l 1,0,-1
384 1024 m 1,4,-1
 384 1152 l 1,5,-1
 512 1152 l 1,6,-1
 512 1024 l 1,7,-1
 384 1024 l 1,4,-1
128 896 m 1,8,-1
 128 1024 l 1,9,-1
 256 1024 l 1,10,-1
 256 896 l 1,11,-1
 128 896 l 1,8,-1
512 896 m 1,12,-1
 512 1024 l 1,13,-1
 640 1024 l 1,14,-1
 640 896 l 1,15,-1
 512 896 l 1,12,-1
128 768 m 1,16,-1
 128 896 l 1,17,-1
 256 896 l 1,18,-1
 256 768 l 1,19,-1
 128 768 l 1,16,-1
512 768 m 1,20,-1
 512 896 l 1,21,-1
 640 896 l 1,22,-1
 640 768 l 1,23,-1
 512 768 l 1,20,-1
256 640 m 1,24,-1
 256 768 l 1,25,-1
 384 768 l 1,26,-1
 384 640 l 1,27,-1
 256 640 l 1,24,-1
384 640 m 1,28,-1
 384 768 l 1,29,-1
 512 768 l 1,30,-1
 512 640 l 1,31,-1
 384 640 l 1,28,-1
EndSplineSet
EndChar

